<mxfile host="app.diagrams.net" modified="2021-09-10T10:49:49.754Z" agent="5.0 (Macintosh; Intel Mac OS X 10_15_5) AppleWebKit/537.36 (KHTML, like Gecko) Chrome/83.0.4103.106 Safari/537.36" etag="8rNofeVzah7xCzTC2Vgl" version="15.0.6" type="github" pages="2">
  <diagram id="oJy5XmbjPNlmjI9G-bA2" name="Page-1">
    <mxGraphModel dx="3463" dy="2150" grid="1" gridSize="10" guides="1" tooltips="1" connect="1" arrows="1" fold="1" page="1" pageScale="1" pageWidth="827" pageHeight="1169" math="0" shadow="0">
      <root>
        <mxCell id="0" />
        <mxCell id="1" parent="0" />
        <mxCell id="gg8FVpKPNv8x14Igiipq-12" value="" style="rounded=0;whiteSpace=wrap;html=1;" vertex="1" parent="1">
          <mxGeometry x="-120" y="1380" width="1220" height="1110" as="geometry" />
        </mxCell>
        <mxCell id="Q57_OqPY2b1l59b12ero-390" value="" style="rounded=0;whiteSpace=wrap;html=1;" parent="1" vertex="1">
          <mxGeometry x="-1590" y="-10" width="1500" height="1220" as="geometry" />
        </mxCell>
        <mxCell id="Q57_OqPY2b1l59b12ero-389" value="Loop" style="shape=umlFrame;whiteSpace=wrap;html=1;" parent="1" vertex="1">
          <mxGeometry x="-1450" y="830" width="1240" height="100" as="geometry" />
        </mxCell>
        <mxCell id="Q57_OqPY2b1l59b12ero-314" value="" style="rounded=0;whiteSpace=wrap;html=1;" parent="1" vertex="1">
          <mxGeometry x="1350" y="1590" width="1720" height="930" as="geometry" />
        </mxCell>
        <mxCell id="Q57_OqPY2b1l59b12ero-162" value="" style="rounded=0;whiteSpace=wrap;html=1;" parent="1" vertex="1">
          <mxGeometry x="1810" y="790" width="1370" height="740" as="geometry" />
        </mxCell>
        <mxCell id="Q57_OqPY2b1l59b12ero-76" value="" style="rounded=0;whiteSpace=wrap;html=1;" parent="1" vertex="1">
          <mxGeometry x="860" y="10" width="1520" height="610" as="geometry" />
        </mxCell>
        <mxCell id="QDKmADp-dBKPlhhtmY0i-87" value="" style="rounded=0;whiteSpace=wrap;html=1;" parent="1" vertex="1">
          <mxGeometry x="40" y="790" width="1450" height="620" as="geometry" />
        </mxCell>
        <mxCell id="fEHCaJs_lgeAi88xtSm3-24" value="" style="rounded=0;whiteSpace=wrap;html=1;" parent="1" vertex="1">
          <mxGeometry x="20" y="20" width="680" height="480" as="geometry" />
        </mxCell>
        <mxCell id="fEHCaJs_lgeAi88xtSm3-11" value="alt" style="shape=umlFrame;whiteSpace=wrap;html=1;" parent="1" vertex="1">
          <mxGeometry x="220" y="260" width="410" height="200" as="geometry" />
        </mxCell>
        <mxCell id="fEHCaJs_lgeAi88xtSm3-1" value="Hive" style="shape=umlLifeline;perimeter=lifelinePerimeter;whiteSpace=wrap;html=1;container=1;collapsible=0;recursiveResize=0;outlineConnect=0;" parent="1" vertex="1">
          <mxGeometry x="150" y="70" width="100" height="380" as="geometry" />
        </mxCell>
        <mxCell id="fEHCaJs_lgeAi88xtSm3-2" value="" style="html=1;points=[];perimeter=orthogonalPerimeter;" parent="fEHCaJs_lgeAi88xtSm3-1" vertex="1">
          <mxGeometry x="45" y="120" width="10" height="40" as="geometry" />
        </mxCell>
        <mxCell id="fEHCaJs_lgeAi88xtSm3-3" value="Spark计算集群" style="shape=umlLifeline;perimeter=lifelinePerimeter;whiteSpace=wrap;html=1;container=1;collapsible=0;recursiveResize=0;outlineConnect=0;" parent="1" vertex="1">
          <mxGeometry x="340" y="70" width="100" height="380" as="geometry" />
        </mxCell>
        <mxCell id="fEHCaJs_lgeAi88xtSm3-4" value="" style="html=1;points=[];perimeter=orthogonalPerimeter;" parent="fEHCaJs_lgeAi88xtSm3-3" vertex="1">
          <mxGeometry x="45" y="60" width="10" height="320" as="geometry" />
        </mxCell>
        <mxCell id="fEHCaJs_lgeAi88xtSm3-5" value="拉取router层日志数据" style="html=1;verticalAlign=bottom;endArrow=block;" parent="1" edge="1">
          <mxGeometry width="80" relative="1" as="geometry">
            <mxPoint x="205" y="209" as="sourcePoint" />
            <mxPoint x="385" y="209" as="targetPoint" />
          </mxGeometry>
        </mxCell>
        <mxCell id="fEHCaJs_lgeAi88xtSm3-7" value="数据清洗及预处理" style="edgeStyle=orthogonalEdgeStyle;html=1;align=left;spacingLeft=2;endArrow=block;rounded=0;" parent="1" edge="1">
          <mxGeometry relative="1" as="geometry">
            <mxPoint x="395" y="220" as="sourcePoint" />
            <Array as="points">
              <mxPoint x="440" y="220" />
              <mxPoint x="440" y="250" />
              <mxPoint x="396" y="250" />
            </Array>
            <mxPoint x="396" y="250" as="targetPoint" />
          </mxGeometry>
        </mxCell>
        <mxCell id="fEHCaJs_lgeAi88xtSm3-8" value="Mysql" style="shape=umlLifeline;perimeter=lifelinePerimeter;whiteSpace=wrap;html=1;container=1;collapsible=0;recursiveResize=0;outlineConnect=0;" parent="1" vertex="1">
          <mxGeometry x="540" y="70" width="100" height="380" as="geometry" />
        </mxCell>
        <mxCell id="fEHCaJs_lgeAi88xtSm3-9" value="" style="html=1;points=[];perimeter=orthogonalPerimeter;" parent="fEHCaJs_lgeAi88xtSm3-8" vertex="1">
          <mxGeometry x="45" y="210" width="10" height="170" as="geometry" />
        </mxCell>
        <mxCell id="fEHCaJs_lgeAi88xtSm3-12" value="" style="endArrow=none;dashed=1;html=1;entryX=1.004;entryY=0.497;entryDx=0;entryDy=0;entryPerimeter=0;exitX=-0.001;exitY=0.493;exitDx=0;exitDy=0;exitPerimeter=0;" parent="1" source="fEHCaJs_lgeAi88xtSm3-11" target="fEHCaJs_lgeAi88xtSm3-11" edge="1">
          <mxGeometry width="50" height="50" relative="1" as="geometry">
            <mxPoint x="320" y="359.58000000000004" as="sourcePoint" />
            <mxPoint x="440" y="359.58000000000004" as="targetPoint" />
          </mxGeometry>
        </mxCell>
        <mxCell id="fEHCaJs_lgeAi88xtSm3-13" value="scenes=访问行为分析" style="text;html=1;align=center;verticalAlign=middle;resizable=0;points=[];autosize=1;strokeColor=none;" parent="1" vertex="1">
          <mxGeometry x="220" y="300" width="130" height="20" as="geometry" />
        </mxCell>
        <mxCell id="fEHCaJs_lgeAi88xtSm3-14" value="scenes=站点关联关系分析" style="text;html=1;align=center;verticalAlign=middle;resizable=0;points=[];autosize=1;strokeColor=none;" parent="1" vertex="1">
          <mxGeometry x="220" y="390" width="160" height="20" as="geometry" />
        </mxCell>
        <mxCell id="fEHCaJs_lgeAi88xtSm3-15" value="以用户访问事件作为&lt;br&gt;维度采用K-Means算&lt;br&gt;法进行数据挖掘" style="edgeStyle=orthogonalEdgeStyle;html=1;align=left;spacingLeft=2;endArrow=block;rounded=0;" parent="1" edge="1">
          <mxGeometry relative="1" as="geometry">
            <mxPoint x="395" y="280" as="sourcePoint" />
            <Array as="points">
              <mxPoint x="440" y="280" />
              <mxPoint x="440" y="310" />
              <mxPoint x="396" y="310" />
            </Array>
            <mxPoint x="396" y="310" as="targetPoint" />
          </mxGeometry>
        </mxCell>
        <mxCell id="fEHCaJs_lgeAi88xtSm3-16" value="集群注册并申请&lt;br&gt;计算资源" style="edgeStyle=orthogonalEdgeStyle;html=1;align=left;spacingLeft=2;endArrow=block;rounded=0;" parent="1" edge="1">
          <mxGeometry relative="1" as="geometry">
            <mxPoint x="395" y="140" as="sourcePoint" />
            <Array as="points">
              <mxPoint x="440" y="140" />
              <mxPoint x="440" y="170" />
              <mxPoint x="396" y="170" />
            </Array>
            <mxPoint x="396" y="170" as="targetPoint" />
          </mxGeometry>
        </mxCell>
        <mxCell id="fEHCaJs_lgeAi88xtSm3-17" value="存储挖掘结果" style="html=1;verticalAlign=bottom;endArrow=block;entryX=-0.033;entryY=0.354;entryDx=0;entryDy=0;entryPerimeter=0;" parent="1" target="fEHCaJs_lgeAi88xtSm3-9" edge="1">
          <mxGeometry width="80" relative="1" as="geometry">
            <mxPoint x="395" y="340" as="sourcePoint" />
            <mxPoint x="580" y="340" as="targetPoint" />
          </mxGeometry>
        </mxCell>
        <mxCell id="fEHCaJs_lgeAi88xtSm3-18" value="" style="shape=umlLifeline;participant=umlActor;perimeter=lifelinePerimeter;whiteSpace=wrap;html=1;container=1;collapsible=0;recursiveResize=0;verticalAlign=top;spacingTop=36;outlineConnect=0;" parent="1" vertex="1">
          <mxGeometry x="50" y="70" width="20" height="390" as="geometry" />
        </mxCell>
        <mxCell id="fEHCaJs_lgeAi88xtSm3-20" value="" style="html=1;points=[];perimeter=orthogonalPerimeter;" parent="fEHCaJs_lgeAi88xtSm3-18" vertex="1">
          <mxGeometry x="5" y="50" width="10" height="50" as="geometry" />
        </mxCell>
        <mxCell id="fEHCaJs_lgeAi88xtSm3-19" value="启动数据挖掘模块" style="html=1;verticalAlign=bottom;endArrow=block;entryX=-0.033;entryY=0.032;entryDx=0;entryDy=0;entryPerimeter=0;" parent="1" target="fEHCaJs_lgeAi88xtSm3-4" edge="1">
          <mxGeometry width="80" relative="1" as="geometry">
            <mxPoint x="65" y="140" as="sourcePoint" />
            <mxPoint x="378" y="140" as="targetPoint" />
          </mxGeometry>
        </mxCell>
        <mxCell id="fEHCaJs_lgeAi88xtSm3-21" value="平台管理员" style="text;html=1;align=center;verticalAlign=middle;resizable=0;points=[];autosize=1;strokeColor=none;" parent="1" vertex="1">
          <mxGeometry x="20" y="40" width="80" height="20" as="geometry" />
        </mxCell>
        <mxCell id="fEHCaJs_lgeAi88xtSm3-22" value="以访问站点作为维度&lt;br&gt;采用关联关系分析算&lt;br&gt;法进行数据挖掘" style="edgeStyle=orthogonalEdgeStyle;html=1;align=left;spacingLeft=2;endArrow=block;rounded=0;" parent="1" edge="1">
          <mxGeometry relative="1" as="geometry">
            <mxPoint x="395" y="370" as="sourcePoint" />
            <Array as="points">
              <mxPoint x="440" y="370" />
              <mxPoint x="440" y="400" />
              <mxPoint x="396" y="400" />
            </Array>
            <mxPoint x="396" y="400" as="targetPoint" />
          </mxGeometry>
        </mxCell>
        <mxCell id="fEHCaJs_lgeAi88xtSm3-23" value="存储挖掘结果" style="html=1;verticalAlign=bottom;endArrow=block;entryX=-0.033;entryY=0.354;entryDx=0;entryDy=0;entryPerimeter=0;" parent="1" edge="1">
          <mxGeometry width="80" relative="1" as="geometry">
            <mxPoint x="395" y="430" as="sourcePoint" />
            <mxPoint x="584.6700000000001" y="430.17999999999995" as="targetPoint" />
          </mxGeometry>
        </mxCell>
        <mxCell id="QDKmADp-dBKPlhhtmY0i-1" value="平台管理员" style="shape=umlActor;verticalLabelPosition=bottom;verticalAlign=top;html=1;" parent="1" vertex="1">
          <mxGeometry x="120" y="1040" width="30" height="60" as="geometry" />
        </mxCell>
        <mxCell id="QDKmADp-dBKPlhhtmY0i-3" value="&lt;font style=&quot;font-size: 17px&quot;&gt;用户交互功能&lt;/font&gt;" style="ellipse;whiteSpace=wrap;html=1;" parent="1" vertex="1">
          <mxGeometry x="210" y="1040" width="120" height="60" as="geometry" />
        </mxCell>
        <mxCell id="QDKmADp-dBKPlhhtmY0i-4" value="&lt;font style=&quot;font-size: 17px&quot;&gt;日志搜索&lt;/font&gt;" style="ellipse;whiteSpace=wrap;html=1;" parent="1" vertex="1">
          <mxGeometry x="394" y="810" width="120" height="60" as="geometry" />
        </mxCell>
        <mxCell id="QDKmADp-dBKPlhhtmY0i-5" value="&lt;font style=&quot;font-size: 17px&quot;&gt;数据挖掘&lt;br&gt;结果展示&lt;/font&gt;" style="ellipse;whiteSpace=wrap;html=1;" parent="1" vertex="1">
          <mxGeometry x="394" y="940" width="120" height="60" as="geometry" />
        </mxCell>
        <mxCell id="QDKmADp-dBKPlhhtmY0i-6" value="&lt;font style=&quot;font-size: 17px&quot;&gt;接口运行情况&lt;br&gt;结果展示&lt;/font&gt;" style="ellipse;whiteSpace=wrap;html=1;" parent="1" vertex="1">
          <mxGeometry x="394" y="1140" width="120" height="60" as="geometry" />
        </mxCell>
        <mxCell id="QDKmADp-dBKPlhhtmY0i-7" value="&lt;span style=&quot;font-size: 17px&quot;&gt;异常访问&lt;br&gt;&lt;/span&gt;&lt;font style=&quot;font-size: 17px&quot;&gt;报警通知&lt;/font&gt;" style="ellipse;whiteSpace=wrap;html=1;" parent="1" vertex="1">
          <mxGeometry x="394" y="1270" width="120" height="60" as="geometry" />
        </mxCell>
        <mxCell id="QDKmADp-dBKPlhhtmY0i-14" value="" style="endArrow=open;html=1;endSize=12;startArrow=none;startSize=14;startFill=0;align=left;verticalAlign=bottom;entryX=0;entryY=0.5;entryDx=0;entryDy=0;exitX=1;exitY=0.5;exitDx=0;exitDy=0;" parent="1" source="QDKmADp-dBKPlhhtmY0i-3" target="QDKmADp-dBKPlhhtmY0i-4" edge="1">
          <mxGeometry x="-1" y="3" relative="1" as="geometry">
            <mxPoint x="330" y="1039.5" as="sourcePoint" />
            <mxPoint x="490" y="1039.5" as="targetPoint" />
          </mxGeometry>
        </mxCell>
        <mxCell id="QDKmADp-dBKPlhhtmY0i-29" value="" style="endArrow=open;html=1;endSize=12;startArrow=none;startSize=14;startFill=0;align=left;verticalAlign=bottom;exitX=1;exitY=0.5;exitDx=0;exitDy=0;entryX=0;entryY=0.5;entryDx=0;entryDy=0;" parent="1" source="QDKmADp-dBKPlhhtmY0i-3" target="QDKmADp-dBKPlhhtmY0i-5" edge="1">
          <mxGeometry x="-1" y="3" relative="1" as="geometry">
            <mxPoint x="330" y="1139.5" as="sourcePoint" />
            <mxPoint x="394" y="1040" as="targetPoint" />
          </mxGeometry>
        </mxCell>
        <mxCell id="QDKmADp-dBKPlhhtmY0i-30" value="" style="endArrow=open;html=1;endSize=12;startArrow=none;startSize=14;startFill=0;align=left;verticalAlign=bottom;entryX=0;entryY=0.5;entryDx=0;entryDy=0;exitX=1;exitY=0.5;exitDx=0;exitDy=0;" parent="1" source="QDKmADp-dBKPlhhtmY0i-3" target="QDKmADp-dBKPlhhtmY0i-6" edge="1">
          <mxGeometry x="-1" y="3" relative="1" as="geometry">
            <mxPoint x="330" y="1239.5" as="sourcePoint" />
            <mxPoint x="394" y="1090" as="targetPoint" />
          </mxGeometry>
        </mxCell>
        <mxCell id="QDKmADp-dBKPlhhtmY0i-31" value="" style="endArrow=open;html=1;endSize=12;startArrow=none;startSize=14;startFill=0;align=left;verticalAlign=bottom;entryX=0;entryY=0.5;entryDx=0;entryDy=0;" parent="1" target="QDKmADp-dBKPlhhtmY0i-7" edge="1">
          <mxGeometry x="-1" y="3" relative="1" as="geometry">
            <mxPoint x="329" y="1070" as="sourcePoint" />
            <mxPoint x="394" y="1190" as="targetPoint" />
          </mxGeometry>
        </mxCell>
        <mxCell id="QDKmADp-dBKPlhhtmY0i-32" value="&lt;font style=&quot;font-size: 17px&quot;&gt;用户访问行为&lt;br&gt;分析结果展示&lt;/font&gt;" style="ellipse;whiteSpace=wrap;html=1;" parent="1" vertex="1">
          <mxGeometry x="540" y="885" width="120" height="60" as="geometry" />
        </mxCell>
        <mxCell id="QDKmADp-dBKPlhhtmY0i-33" value="&lt;font style=&quot;font-size: 17px&quot;&gt;站点关联关系&lt;br&gt;分析结果展示&lt;/font&gt;" style="ellipse;whiteSpace=wrap;html=1;" parent="1" vertex="1">
          <mxGeometry x="540" y="1000" width="120" height="60" as="geometry" />
        </mxCell>
        <mxCell id="QDKmADp-dBKPlhhtmY0i-36" value="" style="endArrow=block;endFill=0;html=1;exitX=0;exitY=0.5;exitDx=0;exitDy=0;entryX=1;entryY=0.5;entryDx=0;entryDy=0;" parent="1" source="QDKmADp-dBKPlhhtmY0i-32" target="QDKmADp-dBKPlhhtmY0i-5" edge="1">
          <mxGeometry width="160" relative="1" as="geometry">
            <mxPoint x="380" y="1080" as="sourcePoint" />
            <mxPoint x="540" y="1080" as="targetPoint" />
          </mxGeometry>
        </mxCell>
        <mxCell id="QDKmADp-dBKPlhhtmY0i-37" value="" style="endArrow=block;endFill=0;html=1;exitX=0;exitY=0.5;exitDx=0;exitDy=0;" parent="1" edge="1">
          <mxGeometry width="160" relative="1" as="geometry">
            <mxPoint x="540" y="1030" as="sourcePoint" />
            <mxPoint x="514" y="970" as="targetPoint" />
          </mxGeometry>
        </mxCell>
        <mxCell id="QDKmADp-dBKPlhhtmY0i-38" value="&lt;span style=&quot;font-size: 17px&quot;&gt;接口qps&lt;br&gt;&lt;/span&gt;&lt;font style=&quot;font-size: 17px&quot;&gt;展示&lt;/font&gt;" style="ellipse;whiteSpace=wrap;html=1;" parent="1" vertex="1">
          <mxGeometry x="540" y="1070" width="120" height="60" as="geometry" />
        </mxCell>
        <mxCell id="QDKmADp-dBKPlhhtmY0i-39" value="&lt;span style=&quot;font-size: 17px&quot;&gt;接口上游调用&lt;br&gt;&lt;/span&gt;&lt;font style=&quot;font-size: 17px&quot;&gt;失败率展示&lt;/font&gt;" style="ellipse;whiteSpace=wrap;html=1;" parent="1" vertex="1">
          <mxGeometry x="540" y="1140" width="120" height="60" as="geometry" />
        </mxCell>
        <mxCell id="QDKmADp-dBKPlhhtmY0i-40" value="&lt;span style=&quot;font-size: 17px&quot;&gt;接口下游调用&lt;br&gt;&lt;/span&gt;&lt;font style=&quot;font-size: 17px&quot;&gt;失败率展示&lt;/font&gt;" style="ellipse;whiteSpace=wrap;html=1;" parent="1" vertex="1">
          <mxGeometry x="540" y="1210" width="120" height="60" as="geometry" />
        </mxCell>
        <mxCell id="QDKmADp-dBKPlhhtmY0i-41" value="" style="endArrow=block;endFill=0;html=1;exitX=0;exitY=0.5;exitDx=0;exitDy=0;entryX=1;entryY=0.5;entryDx=0;entryDy=0;" parent="1" target="QDKmADp-dBKPlhhtmY0i-6" edge="1">
          <mxGeometry width="160" relative="1" as="geometry">
            <mxPoint x="540" y="1100" as="sourcePoint" />
            <mxPoint x="514" y="1155" as="targetPoint" />
          </mxGeometry>
        </mxCell>
        <mxCell id="QDKmADp-dBKPlhhtmY0i-42" value="" style="endArrow=block;endFill=0;html=1;exitX=0;exitY=0.5;exitDx=0;exitDy=0;entryX=1;entryY=0.5;entryDx=0;entryDy=0;" parent="1" target="QDKmADp-dBKPlhhtmY0i-6" edge="1">
          <mxGeometry width="160" relative="1" as="geometry">
            <mxPoint x="540" y="1169" as="sourcePoint" />
            <mxPoint x="514" y="1224" as="targetPoint" />
          </mxGeometry>
        </mxCell>
        <mxCell id="QDKmADp-dBKPlhhtmY0i-43" value="" style="endArrow=block;endFill=0;html=1;exitX=0;exitY=0.5;exitDx=0;exitDy=0;" parent="1" edge="1">
          <mxGeometry width="160" relative="1" as="geometry">
            <mxPoint x="540" y="1240" as="sourcePoint" />
            <mxPoint x="514" y="1170" as="targetPoint" />
          </mxGeometry>
        </mxCell>
        <mxCell id="QDKmADp-dBKPlhhtmY0i-44" value="&lt;font style=&quot;font-size: 17px&quot;&gt;数据挖掘&lt;/font&gt;" style="ellipse;whiteSpace=wrap;html=1;" parent="1" vertex="1">
          <mxGeometry x="880" y="930" width="120" height="60" as="geometry" />
        </mxCell>
        <mxCell id="QDKmADp-dBKPlhhtmY0i-53" value="&lt;font style=&quot;font-size: 17px&quot;&gt;日志采集&lt;/font&gt;" style="ellipse;whiteSpace=wrap;html=1;" parent="1" vertex="1">
          <mxGeometry x="1030" y="1070" width="120" height="60" as="geometry" />
        </mxCell>
        <mxCell id="QDKmADp-dBKPlhhtmY0i-56" value="&lt;span style=&quot;font-size: 17px&quot;&gt;用户访问行为&lt;br&gt;数据挖掘&lt;br&gt;&lt;/span&gt;" style="ellipse;whiteSpace=wrap;html=1;" parent="1" vertex="1">
          <mxGeometry x="730" y="880" width="120" height="60" as="geometry" />
        </mxCell>
        <mxCell id="QDKmADp-dBKPlhhtmY0i-57" value="&lt;span style=&quot;font-size: 17px&quot;&gt;站点关联关系&lt;/span&gt;&lt;br style=&quot;font-size: 17px&quot;&gt;&lt;span style=&quot;font-size: 17px&quot;&gt;数据挖掘&lt;br&gt;&lt;/span&gt;" style="ellipse;whiteSpace=wrap;html=1;" parent="1" vertex="1">
          <mxGeometry x="730" y="1000" width="120" height="60" as="geometry" />
        </mxCell>
        <mxCell id="QDKmADp-dBKPlhhtmY0i-58" value="include" style="endArrow=open;endSize=12;dashed=1;html=1;entryX=0;entryY=0.5;entryDx=0;entryDy=0;" parent="1" target="QDKmADp-dBKPlhhtmY0i-56" edge="1">
          <mxGeometry width="160" relative="1" as="geometry">
            <mxPoint x="660" y="910" as="sourcePoint" />
            <mxPoint x="690" y="1020" as="targetPoint" />
          </mxGeometry>
        </mxCell>
        <mxCell id="QDKmADp-dBKPlhhtmY0i-59" value="include" style="endArrow=open;endSize=12;dashed=1;html=1;entryX=0;entryY=0.5;entryDx=0;entryDy=0;" parent="1" edge="1">
          <mxGeometry width="160" relative="1" as="geometry">
            <mxPoint x="660" y="1030" as="sourcePoint" />
            <mxPoint x="730" y="1030" as="targetPoint" />
          </mxGeometry>
        </mxCell>
        <mxCell id="QDKmADp-dBKPlhhtmY0i-60" value="" style="endArrow=block;endFill=0;html=1;exitX=0;exitY=0.5;exitDx=0;exitDy=0;" parent="1" edge="1">
          <mxGeometry width="160" relative="1" as="geometry">
            <mxPoint x="880" y="960" as="sourcePoint" />
            <mxPoint x="850" y="910" as="targetPoint" />
          </mxGeometry>
        </mxCell>
        <mxCell id="QDKmADp-dBKPlhhtmY0i-61" value="" style="endArrow=block;endFill=0;html=1;" parent="1" edge="1">
          <mxGeometry width="160" relative="1" as="geometry">
            <mxPoint x="880" y="960" as="sourcePoint" />
            <mxPoint x="850" y="1030" as="targetPoint" />
          </mxGeometry>
        </mxCell>
        <mxCell id="QDKmADp-dBKPlhhtmY0i-62" value="&lt;span style=&quot;font-size: 17px&quot;&gt;平台运行&lt;br&gt;情况监控&lt;br&gt;&lt;/span&gt;" style="ellipse;whiteSpace=wrap;html=1;" parent="1" vertex="1">
          <mxGeometry x="730" y="1140" width="120" height="60" as="geometry" />
        </mxCell>
        <mxCell id="QDKmADp-dBKPlhhtmY0i-63" value="include" style="endArrow=open;endSize=12;dashed=1;html=1;entryX=0;entryY=0.5;entryDx=0;entryDy=0;" parent="1" target="QDKmADp-dBKPlhhtmY0i-62" edge="1">
          <mxGeometry width="160" relative="1" as="geometry">
            <mxPoint x="660" y="1099.5" as="sourcePoint" />
            <mxPoint x="730" y="1099.5" as="targetPoint" />
          </mxGeometry>
        </mxCell>
        <mxCell id="QDKmADp-dBKPlhhtmY0i-64" value="include" style="endArrow=open;endSize=12;dashed=1;html=1;entryX=0;entryY=0.5;entryDx=0;entryDy=0;" parent="1" target="QDKmADp-dBKPlhhtmY0i-62" edge="1">
          <mxGeometry width="160" relative="1" as="geometry">
            <mxPoint x="660" y="1169" as="sourcePoint" />
            <mxPoint x="730" y="1239.5" as="targetPoint" />
          </mxGeometry>
        </mxCell>
        <mxCell id="QDKmADp-dBKPlhhtmY0i-65" value="include" style="endArrow=open;endSize=12;dashed=1;html=1;entryX=0;entryY=0.5;entryDx=0;entryDy=0;" parent="1" target="QDKmADp-dBKPlhhtmY0i-62" edge="1">
          <mxGeometry width="160" relative="1" as="geometry">
            <mxPoint x="660" y="1240" as="sourcePoint" />
            <mxPoint x="730" y="1310.5" as="targetPoint" />
          </mxGeometry>
        </mxCell>
        <mxCell id="QDKmADp-dBKPlhhtmY0i-66" value="&lt;span style=&quot;font-size: 17px&quot;&gt;异常访问&lt;br&gt;监控&lt;br&gt;&lt;/span&gt;" style="ellipse;whiteSpace=wrap;html=1;" parent="1" vertex="1">
          <mxGeometry x="730" y="1270" width="120" height="60" as="geometry" />
        </mxCell>
        <mxCell id="QDKmADp-dBKPlhhtmY0i-67" value="&lt;font style=&quot;font-size: 17px&quot;&gt;实时监控预警&lt;/font&gt;" style="ellipse;whiteSpace=wrap;html=1;" parent="1" vertex="1">
          <mxGeometry x="880" y="1200" width="120" height="60" as="geometry" />
        </mxCell>
        <mxCell id="QDKmADp-dBKPlhhtmY0i-68" value="include" style="endArrow=open;endSize=12;dashed=1;html=1;entryX=0;entryY=0.5;entryDx=0;entryDy=0;exitX=1;exitY=0.5;exitDx=0;exitDy=0;" parent="1" source="QDKmADp-dBKPlhhtmY0i-7" edge="1">
          <mxGeometry width="160" relative="1" as="geometry">
            <mxPoint x="520" y="1300" as="sourcePoint" />
            <mxPoint x="730" y="1300" as="targetPoint" />
          </mxGeometry>
        </mxCell>
        <mxCell id="QDKmADp-dBKPlhhtmY0i-69" value="" style="endArrow=block;endFill=0;html=1;exitX=0;exitY=0.5;exitDx=0;exitDy=0;" parent="1" source="QDKmADp-dBKPlhhtmY0i-67" edge="1">
          <mxGeometry width="160" relative="1" as="geometry">
            <mxPoint x="880" y="1219" as="sourcePoint" />
            <mxPoint x="850" y="1169" as="targetPoint" />
          </mxGeometry>
        </mxCell>
        <mxCell id="QDKmADp-dBKPlhhtmY0i-72" value="" style="endArrow=block;endFill=0;html=1;exitX=-0.008;exitY=0.617;exitDx=0;exitDy=0;exitPerimeter=0;" parent="1" source="QDKmADp-dBKPlhhtmY0i-67" edge="1">
          <mxGeometry width="160" relative="1" as="geometry">
            <mxPoint x="890" y="1240" as="sourcePoint" />
            <mxPoint x="850" y="1300" as="targetPoint" />
          </mxGeometry>
        </mxCell>
        <mxCell id="QDKmADp-dBKPlhhtmY0i-73" value="" style="endArrow=open;html=1;endSize=12;startArrow=none;startSize=14;startFill=0;align=left;verticalAlign=bottom;exitX=1;exitY=0.5;exitDx=0;exitDy=0;" parent="1" edge="1">
          <mxGeometry x="-1" y="3" relative="1" as="geometry">
            <mxPoint x="1000" y="960" as="sourcePoint" />
            <mxPoint x="1029" y="1100" as="targetPoint" />
          </mxGeometry>
        </mxCell>
        <mxCell id="QDKmADp-dBKPlhhtmY0i-74" value="" style="endArrow=open;html=1;endSize=12;startArrow=none;startSize=14;startFill=0;align=left;verticalAlign=bottom;exitX=1;exitY=0.5;exitDx=0;exitDy=0;" parent="1" edge="1">
          <mxGeometry x="-1" y="3" relative="1" as="geometry">
            <mxPoint x="1000" y="1230" as="sourcePoint" />
            <mxPoint x="1029" y="1100" as="targetPoint" />
          </mxGeometry>
        </mxCell>
        <mxCell id="QDKmADp-dBKPlhhtmY0i-75" value="&lt;font style=&quot;font-size: 17px&quot;&gt;原始日志&lt;br&gt;获取&lt;/font&gt;" style="ellipse;whiteSpace=wrap;html=1;" parent="1" vertex="1">
          <mxGeometry x="1210" y="930" width="120" height="60" as="geometry" />
        </mxCell>
        <mxCell id="QDKmADp-dBKPlhhtmY0i-76" value="&lt;font style=&quot;font-size: 17px&quot;&gt;日志结构化&lt;br&gt;处理&lt;br&gt;&lt;/font&gt;" style="ellipse;whiteSpace=wrap;html=1;" parent="1" vertex="1">
          <mxGeometry x="1210" y="1070" width="120" height="60" as="geometry" />
        </mxCell>
        <mxCell id="QDKmADp-dBKPlhhtmY0i-77" value="&lt;span style=&quot;font-size: 17px&quot;&gt;日志落地&lt;br&gt;存储&lt;/span&gt;" style="ellipse;whiteSpace=wrap;html=1;" parent="1" vertex="1">
          <mxGeometry x="1210" y="1210" width="120" height="60" as="geometry" />
        </mxCell>
        <mxCell id="QDKmADp-dBKPlhhtmY0i-78" value="exclude" style="endArrow=open;endSize=12;dashed=1;html=1;entryX=0;entryY=0.5;entryDx=0;entryDy=0;exitX=1;exitY=0.5;exitDx=0;exitDy=0;" parent="1" source="QDKmADp-dBKPlhhtmY0i-53" target="QDKmADp-dBKPlhhtmY0i-75" edge="1">
          <mxGeometry width="160" relative="1" as="geometry">
            <mxPoint x="1140" y="1099.5" as="sourcePoint" />
            <mxPoint x="1210" y="1099.5" as="targetPoint" />
          </mxGeometry>
        </mxCell>
        <mxCell id="QDKmADp-dBKPlhhtmY0i-79" value="exclude" style="endArrow=open;endSize=12;dashed=1;html=1;entryX=0;entryY=0.5;entryDx=0;entryDy=0;" parent="1" edge="1">
          <mxGeometry width="160" relative="1" as="geometry">
            <mxPoint x="1150" y="1100" as="sourcePoint" />
            <mxPoint x="1210" y="1100" as="targetPoint" />
          </mxGeometry>
        </mxCell>
        <mxCell id="QDKmADp-dBKPlhhtmY0i-80" value="exclude" style="endArrow=open;endSize=12;dashed=1;html=1;entryX=0;entryY=0.5;entryDx=0;entryDy=0;exitX=1;exitY=0.5;exitDx=0;exitDy=0;" parent="1" source="QDKmADp-dBKPlhhtmY0i-53" edge="1">
          <mxGeometry width="160" relative="1" as="geometry">
            <mxPoint x="1150" y="1380" as="sourcePoint" />
            <mxPoint x="1210" y="1240" as="targetPoint" />
          </mxGeometry>
        </mxCell>
        <mxCell id="QDKmADp-dBKPlhhtmY0i-83" value="" style="endArrow=open;html=1;endSize=12;startArrow=none;startSize=14;startFill=0;align=left;verticalAlign=bottom;exitX=1;exitY=0.5;exitDx=0;exitDy=0;" parent="1" source="QDKmADp-dBKPlhhtmY0i-4" edge="1">
          <mxGeometry x="-1" y="3" relative="1" as="geometry">
            <mxPoint x="711.5238095238096" y="720" as="sourcePoint" />
            <mxPoint x="1030" y="1100" as="targetPoint" />
            <Array as="points">
              <mxPoint x="1030" y="840" />
            </Array>
          </mxGeometry>
        </mxCell>
        <mxCell id="QDKmADp-dBKPlhhtmY0i-85" value="" style="endArrow=open;html=1;endSize=12;startArrow=none;startSize=14;startFill=0;align=left;verticalAlign=bottom;exitX=1;exitY=0.5;exitDx=0;exitDy=0;" parent="1" edge="1">
          <mxGeometry x="-1" y="3" relative="1" as="geometry">
            <mxPoint x="148" y="1070" as="sourcePoint" />
            <mxPoint x="210" y="1070" as="targetPoint" />
          </mxGeometry>
        </mxCell>
        <mxCell id="OeGlNz5TgmZ-BaxSbqV--9" value="管理员、开发人员、运营人员" style="rounded=0;orthogonalLoop=1;jettySize=auto;html=1;exitX=1;exitY=0.3333333333333333;exitDx=0;exitDy=0;exitPerimeter=0;" parent="1" source="OeGlNz5TgmZ-BaxSbqV--1" edge="1">
          <mxGeometry relative="1" as="geometry">
            <mxPoint x="200" y="1620" as="targetPoint" />
          </mxGeometry>
        </mxCell>
        <mxCell id="OeGlNz5TgmZ-BaxSbqV--10" value="管理员、运营人员" style="edgeStyle=none;rounded=0;orthogonalLoop=1;jettySize=auto;html=1;exitX=1;exitY=0.3333333333333333;exitDx=0;exitDy=0;exitPerimeter=0;" parent="1" source="OeGlNz5TgmZ-BaxSbqV--1" edge="1">
          <mxGeometry relative="1" as="geometry">
            <mxPoint x="200" y="1780" as="targetPoint" />
          </mxGeometry>
        </mxCell>
        <mxCell id="OeGlNz5TgmZ-BaxSbqV--11" value="管理员、开发人员" style="edgeStyle=none;rounded=0;orthogonalLoop=1;jettySize=auto;html=1;exitX=1;exitY=0.3333333333333333;exitDx=0;exitDy=0;exitPerimeter=0;" parent="1" source="OeGlNz5TgmZ-BaxSbqV--1" edge="1">
          <mxGeometry relative="1" as="geometry">
            <mxPoint x="200" y="1930" as="targetPoint" />
          </mxGeometry>
        </mxCell>
        <mxCell id="OeGlNz5TgmZ-BaxSbqV--12" value="管理员、开发人员、运营人员" style="edgeStyle=none;rounded=0;orthogonalLoop=1;jettySize=auto;html=1;exitX=1;exitY=0.3333333333333333;exitDx=0;exitDy=0;exitPerimeter=0;" parent="1" edge="1">
          <mxGeometry relative="1" as="geometry">
            <mxPoint x="90" y="1838" as="sourcePoint" />
            <mxPoint x="200" y="2188" as="targetPoint" />
          </mxGeometry>
        </mxCell>
        <mxCell id="OeGlNz5TgmZ-BaxSbqV--1" value="" style="shape=umlActor;verticalLabelPosition=bottom;verticalAlign=top;html=1;" parent="1" vertex="1">
          <mxGeometry x="50" y="1820" width="40" height="60" as="geometry" />
        </mxCell>
        <mxCell id="OeGlNz5TgmZ-BaxSbqV--2" value="&lt;font style=&quot;font-size: 17px&quot;&gt;用户交互功能&lt;/font&gt;" style="ellipse;whiteSpace=wrap;html=1;" parent="1" vertex="1">
          <mxGeometry x="210" y="2170" width="120" height="60" as="geometry" />
        </mxCell>
        <mxCell id="OeGlNz5TgmZ-BaxSbqV--4" value="&lt;font style=&quot;font-size: 17px&quot;&gt;数据挖掘&lt;/font&gt;" style="ellipse;whiteSpace=wrap;html=1;" parent="1" vertex="1">
          <mxGeometry x="210" y="1750" width="120" height="60" as="geometry" />
        </mxCell>
        <mxCell id="OeGlNz5TgmZ-BaxSbqV--5" value="&lt;font style=&quot;font-size: 17px&quot;&gt;实时监控预警&lt;/font&gt;" style="ellipse;whiteSpace=wrap;html=1;" parent="1" vertex="1">
          <mxGeometry x="210" y="1910" width="120" height="60" as="geometry" />
        </mxCell>
        <mxCell id="OeGlNz5TgmZ-BaxSbqV--48" value="&amp;lt;&amp;lt;include&amp;gt;&amp;gt;" style="edgeStyle=none;rounded=0;orthogonalLoop=1;jettySize=auto;html=1;exitX=1;exitY=0.5;exitDx=0;exitDy=0;endArrow=classic;endFill=1;dashed=1;" parent="1" source="OeGlNz5TgmZ-BaxSbqV--6" edge="1">
          <mxGeometry relative="1" as="geometry">
            <mxPoint x="540" y="1540" as="targetPoint" />
          </mxGeometry>
        </mxCell>
        <mxCell id="OeGlNz5TgmZ-BaxSbqV--49" value="&amp;lt;&amp;lt;include&amp;gt;&amp;gt;" style="edgeStyle=none;rounded=0;orthogonalLoop=1;jettySize=auto;html=1;exitX=1;exitY=0.5;exitDx=0;exitDy=0;endArrow=classic;endFill=1;dashed=1;" parent="1" source="OeGlNz5TgmZ-BaxSbqV--6" edge="1">
          <mxGeometry relative="1" as="geometry">
            <mxPoint x="550" y="1610" as="targetPoint" />
          </mxGeometry>
        </mxCell>
        <mxCell id="OeGlNz5TgmZ-BaxSbqV--50" value="&amp;lt;&amp;lt;include&amp;gt;&amp;gt;" style="edgeStyle=none;rounded=0;orthogonalLoop=1;jettySize=auto;html=1;exitX=1;exitY=0.5;exitDx=0;exitDy=0;endArrow=classic;endFill=1;dashed=1;" parent="1" source="OeGlNz5TgmZ-BaxSbqV--6" edge="1">
          <mxGeometry relative="1" as="geometry">
            <mxPoint x="540" y="1680" as="targetPoint" />
          </mxGeometry>
        </mxCell>
        <mxCell id="OeGlNz5TgmZ-BaxSbqV--6" value="&lt;font style=&quot;font-size: 17px&quot;&gt;日志采集&lt;/font&gt;" style="ellipse;whiteSpace=wrap;html=1;" parent="1" vertex="1">
          <mxGeometry x="210" y="1580" width="120" height="60" as="geometry" />
        </mxCell>
        <mxCell id="OeGlNz5TgmZ-BaxSbqV--13" value="&lt;font style=&quot;font-size: 17px&quot;&gt;原始日志&lt;br&gt;获取&lt;/font&gt;" style="ellipse;whiteSpace=wrap;html=1;" parent="1" vertex="1">
          <mxGeometry x="560" y="1510" width="120" height="60" as="geometry" />
        </mxCell>
        <mxCell id="OeGlNz5TgmZ-BaxSbqV--14" value="&lt;font style=&quot;font-size: 17px&quot;&gt;日志结构化&lt;br&gt;处理&lt;br&gt;&lt;/font&gt;" style="ellipse;whiteSpace=wrap;html=1;" parent="1" vertex="1">
          <mxGeometry x="560" y="1580" width="120" height="60" as="geometry" />
        </mxCell>
        <mxCell id="OeGlNz5TgmZ-BaxSbqV--15" value="&lt;span style=&quot;font-size: 17px&quot;&gt;日志落地&lt;br&gt;存储&lt;/span&gt;" style="ellipse;whiteSpace=wrap;html=1;" parent="1" vertex="1">
          <mxGeometry x="560" y="1650" width="120" height="60" as="geometry" />
        </mxCell>
        <mxCell id="OeGlNz5TgmZ-BaxSbqV--40" style="edgeStyle=none;rounded=0;orthogonalLoop=1;jettySize=auto;html=1;exitX=0;exitY=0.5;exitDx=0;exitDy=0;endArrow=block;endFill=0;" parent="1" source="OeGlNz5TgmZ-BaxSbqV--21" edge="1">
          <mxGeometry relative="1" as="geometry">
            <mxPoint x="340" y="1770" as="targetPoint" />
          </mxGeometry>
        </mxCell>
        <mxCell id="OeGlNz5TgmZ-BaxSbqV--21" value="&lt;span style=&quot;font-size: 17px&quot;&gt;用户访问行为&lt;br&gt;数据挖掘&lt;br&gt;&lt;/span&gt;" style="ellipse;whiteSpace=wrap;html=1;" parent="1" vertex="1">
          <mxGeometry x="560" y="1723.5" width="120" height="60" as="geometry" />
        </mxCell>
        <mxCell id="OeGlNz5TgmZ-BaxSbqV--41" style="edgeStyle=none;rounded=0;orthogonalLoop=1;jettySize=auto;html=1;exitX=0;exitY=0.5;exitDx=0;exitDy=0;endArrow=block;endFill=0;" parent="1" source="OeGlNz5TgmZ-BaxSbqV--22" edge="1">
          <mxGeometry relative="1" as="geometry">
            <mxPoint x="340" y="1790" as="targetPoint" />
          </mxGeometry>
        </mxCell>
        <mxCell id="OeGlNz5TgmZ-BaxSbqV--22" value="&lt;span style=&quot;font-size: 17px&quot;&gt;站点关联关系&lt;/span&gt;&lt;br style=&quot;font-size: 17px&quot;&gt;&lt;span style=&quot;font-size: 17px&quot;&gt;数据挖掘&lt;br&gt;&lt;/span&gt;" style="ellipse;whiteSpace=wrap;html=1;" parent="1" vertex="1">
          <mxGeometry x="560" y="1790" width="120" height="60" as="geometry" />
        </mxCell>
        <mxCell id="OeGlNz5TgmZ-BaxSbqV--42" style="edgeStyle=none;rounded=0;orthogonalLoop=1;jettySize=auto;html=1;exitX=0;exitY=0.5;exitDx=0;exitDy=0;endArrow=block;endFill=0;" parent="1" source="OeGlNz5TgmZ-BaxSbqV--25" edge="1">
          <mxGeometry relative="1" as="geometry">
            <mxPoint x="340" y="1930" as="targetPoint" />
          </mxGeometry>
        </mxCell>
        <mxCell id="OeGlNz5TgmZ-BaxSbqV--25" value="&lt;span style=&quot;font-size: 17px&quot;&gt;平台运行&lt;br&gt;情况监控&lt;br&gt;&lt;/span&gt;" style="ellipse;whiteSpace=wrap;html=1;" parent="1" vertex="1">
          <mxGeometry x="560" y="1880" width="120" height="60" as="geometry" />
        </mxCell>
        <mxCell id="OeGlNz5TgmZ-BaxSbqV--43" style="edgeStyle=none;rounded=0;orthogonalLoop=1;jettySize=auto;html=1;exitX=0;exitY=0.5;exitDx=0;exitDy=0;endArrow=block;endFill=0;" parent="1" source="OeGlNz5TgmZ-BaxSbqV--26" edge="1">
          <mxGeometry relative="1" as="geometry">
            <mxPoint x="340" y="1960" as="targetPoint" />
          </mxGeometry>
        </mxCell>
        <mxCell id="OeGlNz5TgmZ-BaxSbqV--26" value="&lt;span style=&quot;font-size: 17px&quot;&gt;异常访问&lt;br&gt;监控&lt;br&gt;&lt;/span&gt;" style="ellipse;whiteSpace=wrap;html=1;" parent="1" vertex="1">
          <mxGeometry x="560" y="1960" width="120" height="60" as="geometry" />
        </mxCell>
        <mxCell id="OeGlNz5TgmZ-BaxSbqV--44" style="edgeStyle=none;rounded=0;orthogonalLoop=1;jettySize=auto;html=1;exitX=0;exitY=0.5;exitDx=0;exitDy=0;endArrow=block;endFill=0;" parent="1" source="OeGlNz5TgmZ-BaxSbqV--29" edge="1">
          <mxGeometry relative="1" as="geometry">
            <mxPoint x="340" y="2180" as="targetPoint" />
          </mxGeometry>
        </mxCell>
        <mxCell id="OeGlNz5TgmZ-BaxSbqV--29" value="&lt;font style=&quot;font-size: 17px&quot;&gt;日志搜索&lt;/font&gt;" style="ellipse;whiteSpace=wrap;html=1;" parent="1" vertex="1">
          <mxGeometry x="560" y="2040" width="120" height="60" as="geometry" />
        </mxCell>
        <mxCell id="OeGlNz5TgmZ-BaxSbqV--45" style="edgeStyle=none;rounded=0;orthogonalLoop=1;jettySize=auto;html=1;exitX=0;exitY=0.5;exitDx=0;exitDy=0;endArrow=block;endFill=0;" parent="1" source="OeGlNz5TgmZ-BaxSbqV--30" edge="1">
          <mxGeometry relative="1" as="geometry">
            <mxPoint x="340" y="2200" as="targetPoint" />
          </mxGeometry>
        </mxCell>
        <mxCell id="OeGlNz5TgmZ-BaxSbqV--30" value="&lt;font style=&quot;font-size: 17px&quot;&gt;数据挖掘&lt;br&gt;结果展示&lt;/font&gt;" style="ellipse;whiteSpace=wrap;html=1;" parent="1" vertex="1">
          <mxGeometry x="560" y="2120" width="120" height="60" as="geometry" />
        </mxCell>
        <mxCell id="OeGlNz5TgmZ-BaxSbqV--46" style="edgeStyle=none;rounded=0;orthogonalLoop=1;jettySize=auto;html=1;exitX=0;exitY=0.5;exitDx=0;exitDy=0;endArrow=block;endFill=0;" parent="1" source="OeGlNz5TgmZ-BaxSbqV--31" edge="1">
          <mxGeometry relative="1" as="geometry">
            <mxPoint x="340" y="2210" as="targetPoint" />
          </mxGeometry>
        </mxCell>
        <mxCell id="OeGlNz5TgmZ-BaxSbqV--31" value="&lt;font style=&quot;font-size: 17px&quot;&gt;接口运行情况&lt;br&gt;结果展示&lt;/font&gt;" style="ellipse;whiteSpace=wrap;html=1;" parent="1" vertex="1">
          <mxGeometry x="560" y="2290" width="120" height="60" as="geometry" />
        </mxCell>
        <mxCell id="OeGlNz5TgmZ-BaxSbqV--47" style="edgeStyle=none;rounded=0;orthogonalLoop=1;jettySize=auto;html=1;exitX=0;exitY=0.5;exitDx=0;exitDy=0;endArrow=block;endFill=0;" parent="1" source="OeGlNz5TgmZ-BaxSbqV--32" edge="1">
          <mxGeometry relative="1" as="geometry">
            <mxPoint x="340" y="2220" as="targetPoint" />
          </mxGeometry>
        </mxCell>
        <mxCell id="OeGlNz5TgmZ-BaxSbqV--32" value="&lt;span style=&quot;font-size: 17px&quot;&gt;异常访问&lt;br&gt;&lt;/span&gt;&lt;font style=&quot;font-size: 17px&quot;&gt;报警通知&lt;/font&gt;" style="ellipse;whiteSpace=wrap;html=1;" parent="1" vertex="1">
          <mxGeometry x="570" y="2400" width="120" height="60" as="geometry" />
        </mxCell>
        <mxCell id="OeGlNz5TgmZ-BaxSbqV--58" style="edgeStyle=none;rounded=0;orthogonalLoop=1;jettySize=auto;html=1;exitX=0;exitY=0.5;exitDx=0;exitDy=0;endArrow=block;endFill=0;" parent="1" source="OeGlNz5TgmZ-BaxSbqV--51" edge="1">
          <mxGeometry relative="1" as="geometry">
            <mxPoint x="690" y="2310" as="targetPoint" />
          </mxGeometry>
        </mxCell>
        <mxCell id="OeGlNz5TgmZ-BaxSbqV--51" value="&lt;span style=&quot;font-size: 17px&quot;&gt;接口qps&lt;br&gt;&lt;/span&gt;&lt;font style=&quot;font-size: 17px&quot;&gt;展示&lt;/font&gt;" style="ellipse;whiteSpace=wrap;html=1;" parent="1" vertex="1">
          <mxGeometry x="850" y="2220" width="120" height="60" as="geometry" />
        </mxCell>
        <mxCell id="OeGlNz5TgmZ-BaxSbqV--59" style="edgeStyle=none;rounded=0;orthogonalLoop=1;jettySize=auto;html=1;exitX=0;exitY=0.5;exitDx=0;exitDy=0;endArrow=block;endFill=0;" parent="1" source="OeGlNz5TgmZ-BaxSbqV--52" edge="1">
          <mxGeometry relative="1" as="geometry">
            <mxPoint x="690" y="2320.4285714285716" as="targetPoint" />
          </mxGeometry>
        </mxCell>
        <mxCell id="OeGlNz5TgmZ-BaxSbqV--52" value="&lt;span style=&quot;font-size: 17px&quot;&gt;接口上游调用&lt;br&gt;&lt;/span&gt;&lt;font style=&quot;font-size: 17px&quot;&gt;失败率展示&lt;/font&gt;" style="ellipse;whiteSpace=wrap;html=1;" parent="1" vertex="1">
          <mxGeometry x="850" y="2290" width="120" height="60" as="geometry" />
        </mxCell>
        <mxCell id="OeGlNz5TgmZ-BaxSbqV--60" style="edgeStyle=none;rounded=0;orthogonalLoop=1;jettySize=auto;html=1;exitX=0;exitY=0.5;exitDx=0;exitDy=0;endArrow=block;endFill=0;" parent="1" source="OeGlNz5TgmZ-BaxSbqV--53" edge="1">
          <mxGeometry relative="1" as="geometry">
            <mxPoint x="690" y="2340" as="targetPoint" />
          </mxGeometry>
        </mxCell>
        <mxCell id="OeGlNz5TgmZ-BaxSbqV--53" value="&lt;span style=&quot;font-size: 17px&quot;&gt;接口下游调用&lt;br&gt;&lt;/span&gt;&lt;font style=&quot;font-size: 17px&quot;&gt;失败率展示&lt;/font&gt;" style="ellipse;whiteSpace=wrap;html=1;" parent="1" vertex="1">
          <mxGeometry x="850" y="2360" width="120" height="60" as="geometry" />
        </mxCell>
        <mxCell id="OeGlNz5TgmZ-BaxSbqV--56" style="edgeStyle=none;rounded=0;orthogonalLoop=1;jettySize=auto;html=1;exitX=0;exitY=0.5;exitDx=0;exitDy=0;endArrow=block;endFill=0;" parent="1" source="OeGlNz5TgmZ-BaxSbqV--54" edge="1">
          <mxGeometry relative="1" as="geometry">
            <mxPoint x="690" y="2140" as="targetPoint" />
          </mxGeometry>
        </mxCell>
        <mxCell id="OeGlNz5TgmZ-BaxSbqV--54" value="&lt;font style=&quot;font-size: 17px&quot;&gt;用户访问行为&lt;br&gt;分析结果展示&lt;/font&gt;" style="ellipse;whiteSpace=wrap;html=1;" parent="1" vertex="1">
          <mxGeometry x="850" y="2084.5" width="120" height="60" as="geometry" />
        </mxCell>
        <mxCell id="OeGlNz5TgmZ-BaxSbqV--57" style="edgeStyle=none;rounded=0;orthogonalLoop=1;jettySize=auto;html=1;exitX=0;exitY=0.5;exitDx=0;exitDy=0;endArrow=block;endFill=0;" parent="1" source="OeGlNz5TgmZ-BaxSbqV--55" edge="1">
          <mxGeometry relative="1" as="geometry">
            <mxPoint x="690" y="2160" as="targetPoint" />
          </mxGeometry>
        </mxCell>
        <mxCell id="OeGlNz5TgmZ-BaxSbqV--55" value="&lt;font style=&quot;font-size: 17px&quot;&gt;站点关联关系&lt;br&gt;分析结果展示&lt;/font&gt;" style="ellipse;whiteSpace=wrap;html=1;" parent="1" vertex="1">
          <mxGeometry x="850" y="2151.5" width="120" height="63.5" as="geometry" />
        </mxCell>
        <mxCell id="Q57_OqPY2b1l59b12ero-32" style="edgeStyle=none;rounded=0;orthogonalLoop=1;jettySize=auto;html=1;exitX=0.5;exitY=0;exitDx=0;exitDy=0;endArrow=block;endFill=0;entryX=0.462;entryY=0.962;entryDx=0;entryDy=0;entryPerimeter=0;" parent="1" source="Q57_OqPY2b1l59b12ero-1" edge="1" target="Q57_OqPY2b1l59b12ero-26">
          <mxGeometry relative="1" as="geometry">
            <mxPoint x="1174" y="237" as="targetPoint" />
          </mxGeometry>
        </mxCell>
        <mxCell id="Q57_OqPY2b1l59b12ero-1" value="RouterLog" style="swimlane;fontStyle=1;align=center;verticalAlign=top;childLayout=stackLayout;horizontal=1;startSize=26;horizontalStack=0;resizeParent=1;resizeParentMax=0;resizeLast=0;collapsible=1;marginBottom=0;fontSize=16;" parent="1" vertex="1">
          <mxGeometry x="1204" y="284" width="206" height="112" as="geometry" />
        </mxCell>
        <mxCell id="Q57_OqPY2b1l59b12ero-8" value="+ userId: string" style="text;strokeColor=none;fillColor=none;align=left;verticalAlign=top;spacingLeft=4;spacingRight=4;overflow=hidden;rotatable=0;points=[[0,0.5],[1,0.5]];portConstraint=eastwest;fontSize=16;" parent="Q57_OqPY2b1l59b12ero-1" vertex="1">
          <mxGeometry y="26" width="206" height="26" as="geometry" />
        </mxCell>
        <mxCell id="Q57_OqPY2b1l59b12ero-7" value="+ url: string" style="text;strokeColor=none;fillColor=none;align=left;verticalAlign=top;spacingLeft=4;spacingRight=4;overflow=hidden;rotatable=0;points=[[0,0.5],[1,0.5]];portConstraint=eastwest;fontSize=16;" parent="Q57_OqPY2b1l59b12ero-1" vertex="1">
          <mxGeometry y="52" width="206" height="26" as="geometry" />
        </mxCell>
        <mxCell id="Q57_OqPY2b1l59b12ero-3" value="" style="line;strokeWidth=1;fillColor=none;align=left;verticalAlign=middle;spacingTop=-1;spacingLeft=3;spacingRight=3;rotatable=0;labelPosition=right;points=[];portConstraint=eastwest;" parent="Q57_OqPY2b1l59b12ero-1" vertex="1">
          <mxGeometry y="78" width="206" height="8" as="geometry" />
        </mxCell>
        <mxCell id="Q57_OqPY2b1l59b12ero-4" value="+ Unmarshal(string): void" style="text;strokeColor=none;fillColor=none;align=left;verticalAlign=top;spacingLeft=4;spacingRight=4;overflow=hidden;rotatable=0;points=[[0,0.5],[1,0.5]];portConstraint=eastwest;fontSize=16;" parent="Q57_OqPY2b1l59b12ero-1" vertex="1">
          <mxGeometry y="86" width="206" height="26" as="geometry" />
        </mxCell>
        <mxCell id="Q57_OqPY2b1l59b12ero-31" style="rounded=0;orthogonalLoop=1;jettySize=auto;html=1;exitX=0.5;exitY=0;exitDx=0;exitDy=0;entryX=0.444;entryY=1.038;entryDx=0;entryDy=0;entryPerimeter=0;endArrow=block;endFill=0;" parent="1" source="Q57_OqPY2b1l59b12ero-11" target="Q57_OqPY2b1l59b12ero-26" edge="1">
          <mxGeometry relative="1" as="geometry" />
        </mxCell>
        <mxCell id="Q57_OqPY2b1l59b12ero-11" value="CommonLog" style="swimlane;fontStyle=1;align=center;verticalAlign=top;childLayout=stackLayout;horizontal=1;startSize=26;horizontalStack=0;resizeParent=1;resizeParentMax=0;resizeLast=0;collapsible=1;marginBottom=0;fontSize=16;" parent="1" vertex="1">
          <mxGeometry x="950" y="284" width="210" height="242" as="geometry" />
        </mxCell>
        <mxCell id="Q57_OqPY2b1l59b12ero-12" value="+ logId: string" style="text;strokeColor=none;fillColor=none;align=left;verticalAlign=top;spacingLeft=4;spacingRight=4;overflow=hidden;rotatable=0;points=[[0,0.5],[1,0.5]];portConstraint=eastwest;fontSize=16;" parent="Q57_OqPY2b1l59b12ero-11" vertex="1">
          <mxGeometry y="26" width="210" height="26" as="geometry" />
        </mxCell>
        <mxCell id="Q57_OqPY2b1l59b12ero-13" value="+ serviceName: string" style="text;strokeColor=none;fillColor=none;align=left;verticalAlign=top;spacingLeft=4;spacingRight=4;overflow=hidden;rotatable=0;points=[[0,0.5],[1,0.5]];portConstraint=eastwest;fontSize=16;" parent="Q57_OqPY2b1l59b12ero-11" vertex="1">
          <mxGeometry y="52" width="210" height="26" as="geometry" />
        </mxCell>
        <mxCell id="Q57_OqPY2b1l59b12ero-14" value="+ callerName: string" style="text;strokeColor=none;fillColor=none;align=left;verticalAlign=top;spacingLeft=4;spacingRight=4;overflow=hidden;rotatable=0;points=[[0,0.5],[1,0.5]];portConstraint=eastwest;fontSize=16;" parent="Q57_OqPY2b1l59b12ero-11" vertex="1">
          <mxGeometry y="78" width="210" height="26" as="geometry" />
        </mxCell>
        <mxCell id="Q57_OqPY2b1l59b12ero-15" value="+ logLevel: string" style="text;strokeColor=none;fillColor=none;align=left;verticalAlign=top;spacingLeft=4;spacingRight=4;overflow=hidden;rotatable=0;points=[[0,0.5],[1,0.5]];portConstraint=eastwest;fontSize=16;" parent="Q57_OqPY2b1l59b12ero-11" vertex="1">
          <mxGeometry y="104" width="210" height="26" as="geometry" />
        </mxCell>
        <mxCell id="Q57_OqPY2b1l59b12ero-16" value="+ statusCode: int" style="text;strokeColor=none;fillColor=none;align=left;verticalAlign=top;spacingLeft=4;spacingRight=4;overflow=hidden;rotatable=0;points=[[0,0.5],[1,0.5]];portConstraint=eastwest;fontSize=16;" parent="Q57_OqPY2b1l59b12ero-11" vertex="1">
          <mxGeometry y="130" width="210" height="26" as="geometry" />
        </mxCell>
        <mxCell id="Q57_OqPY2b1l59b12ero-27" value="+ functionName: string" style="text;strokeColor=none;fillColor=none;align=left;verticalAlign=top;spacingLeft=4;spacingRight=4;overflow=hidden;rotatable=0;points=[[0,0.5],[1,0.5]];portConstraint=eastwest;fontSize=16;" parent="Q57_OqPY2b1l59b12ero-11" vertex="1">
          <mxGeometry y="156" width="210" height="26" as="geometry" />
        </mxCell>
        <mxCell id="Q57_OqPY2b1l59b12ero-30" value="+ resp: string" style="text;strokeColor=none;fillColor=none;align=left;verticalAlign=top;spacingLeft=4;spacingRight=4;overflow=hidden;rotatable=0;points=[[0,0.5],[1,0.5]];portConstraint=eastwest;fontSize=16;" parent="Q57_OqPY2b1l59b12ero-11" vertex="1">
          <mxGeometry y="182" width="210" height="26" as="geometry" />
        </mxCell>
        <mxCell id="Q57_OqPY2b1l59b12ero-17" value="" style="line;strokeWidth=1;fillColor=none;align=left;verticalAlign=middle;spacingTop=-1;spacingLeft=3;spacingRight=3;rotatable=0;labelPosition=right;points=[];portConstraint=eastwest;" parent="Q57_OqPY2b1l59b12ero-11" vertex="1">
          <mxGeometry y="208" width="210" height="8" as="geometry" />
        </mxCell>
        <mxCell id="Q57_OqPY2b1l59b12ero-18" value="+ Unmarshal(string): void" style="text;strokeColor=none;fillColor=none;align=left;verticalAlign=top;spacingLeft=4;spacingRight=4;overflow=hidden;rotatable=0;points=[[0,0.5],[1,0.5]];portConstraint=eastwest;fontSize=16;" parent="Q57_OqPY2b1l59b12ero-11" vertex="1">
          <mxGeometry y="216" width="210" height="26" as="geometry" />
        </mxCell>
        <mxCell id="Q57_OqPY2b1l59b12ero-19" value="Log" style="swimlane;fontStyle=1;align=center;verticalAlign=top;childLayout=stackLayout;horizontal=1;startSize=26;horizontalStack=0;resizeParent=1;resizeParentMax=0;resizeLast=0;collapsible=1;marginBottom=0;fontSize=16;" parent="1" vertex="1">
          <mxGeometry x="1083" y="94" width="197" height="138" as="geometry" />
        </mxCell>
        <mxCell id="Q57_OqPY2b1l59b12ero-20" value="+ time: timestamp" style="text;strokeColor=none;fillColor=none;align=left;verticalAlign=top;spacingLeft=4;spacingRight=4;overflow=hidden;rotatable=0;points=[[0,0.5],[1,0.5]];portConstraint=eastwest;fontSize=16;" parent="Q57_OqPY2b1l59b12ero-19" vertex="1">
          <mxGeometry y="26" width="197" height="26" as="geometry" />
        </mxCell>
        <mxCell id="Q57_OqPY2b1l59b12ero-21" value="+ ip: string" style="text;strokeColor=none;fillColor=none;align=left;verticalAlign=top;spacingLeft=4;spacingRight=4;overflow=hidden;rotatable=0;points=[[0,0.5],[1,0.5]];portConstraint=eastwest;fontSize=16;" parent="Q57_OqPY2b1l59b12ero-19" vertex="1">
          <mxGeometry y="52" width="197" height="26" as="geometry" />
        </mxCell>
        <mxCell id="Q57_OqPY2b1l59b12ero-24" value="+ reqParm: string" style="text;strokeColor=none;fillColor=none;align=left;verticalAlign=top;spacingLeft=4;spacingRight=4;overflow=hidden;rotatable=0;points=[[0,0.5],[1,0.5]];portConstraint=eastwest;fontSize=16;" parent="Q57_OqPY2b1l59b12ero-19" vertex="1">
          <mxGeometry y="78" width="197" height="26" as="geometry" />
        </mxCell>
        <mxCell id="Q57_OqPY2b1l59b12ero-25" value="" style="line;strokeWidth=1;fillColor=none;align=left;verticalAlign=middle;spacingTop=-1;spacingLeft=3;spacingRight=3;rotatable=0;labelPosition=right;points=[];portConstraint=eastwest;" parent="Q57_OqPY2b1l59b12ero-19" vertex="1">
          <mxGeometry y="104" width="197" height="8" as="geometry" />
        </mxCell>
        <mxCell id="Q57_OqPY2b1l59b12ero-26" value="+ Unmarshal(string): void" style="text;strokeColor=none;fillColor=none;align=left;verticalAlign=top;spacingLeft=4;spacingRight=4;overflow=hidden;rotatable=0;points=[[0,0.5],[1,0.5]];portConstraint=eastwest;fontSize=16;" parent="Q57_OqPY2b1l59b12ero-19" vertex="1">
          <mxGeometry y="112" width="197" height="26" as="geometry" />
        </mxCell>
        <mxCell id="Q57_OqPY2b1l59b12ero-37" value="HiveReader" style="swimlane;fontStyle=1;align=center;verticalAlign=top;childLayout=stackLayout;horizontal=1;startSize=26;horizontalStack=0;resizeParent=1;resizeParentMax=0;resizeLast=0;collapsible=1;marginBottom=0;fontSize=16;" parent="1" vertex="1">
          <mxGeometry x="1423" y="94" width="160" height="138" as="geometry" />
        </mxCell>
        <mxCell id="Q57_OqPY2b1l59b12ero-38" value="+ host: string" style="text;strokeColor=none;fillColor=none;align=left;verticalAlign=top;spacingLeft=4;spacingRight=4;overflow=hidden;rotatable=0;points=[[0,0.5],[1,0.5]];portConstraint=eastwest;fontSize=16;" parent="Q57_OqPY2b1l59b12ero-37" vertex="1">
          <mxGeometry y="26" width="160" height="26" as="geometry" />
        </mxCell>
        <mxCell id="Q57_OqPY2b1l59b12ero-41" value="+ username: string" style="text;strokeColor=none;fillColor=none;align=left;verticalAlign=top;spacingLeft=4;spacingRight=4;overflow=hidden;rotatable=0;points=[[0,0.5],[1,0.5]];portConstraint=eastwest;fontSize=16;" parent="Q57_OqPY2b1l59b12ero-37" vertex="1">
          <mxGeometry y="52" width="160" height="26" as="geometry" />
        </mxCell>
        <mxCell id="Q57_OqPY2b1l59b12ero-42" value="+ password: string" style="text;strokeColor=none;fillColor=none;align=left;verticalAlign=top;spacingLeft=4;spacingRight=4;overflow=hidden;rotatable=0;points=[[0,0.5],[1,0.5]];portConstraint=eastwest;fontSize=16;" parent="Q57_OqPY2b1l59b12ero-37" vertex="1">
          <mxGeometry y="78" width="160" height="26" as="geometry" />
        </mxCell>
        <mxCell id="Q57_OqPY2b1l59b12ero-39" value="" style="line;strokeWidth=1;fillColor=none;align=left;verticalAlign=middle;spacingTop=-1;spacingLeft=3;spacingRight=3;rotatable=0;labelPosition=right;points=[];portConstraint=eastwest;" parent="Q57_OqPY2b1l59b12ero-37" vertex="1">
          <mxGeometry y="104" width="160" height="8" as="geometry" />
        </mxCell>
        <mxCell id="Q57_OqPY2b1l59b12ero-40" value="+ read(): list&lt;Log&gt;" style="text;strokeColor=none;fillColor=none;align=left;verticalAlign=top;spacingLeft=4;spacingRight=4;overflow=hidden;rotatable=0;points=[[0,0.5],[1,0.5]];portConstraint=eastwest;fontSize=16;" parent="Q57_OqPY2b1l59b12ero-37" vertex="1">
          <mxGeometry y="112" width="160" height="26" as="geometry" />
        </mxCell>
        <mxCell id="Q57_OqPY2b1l59b12ero-44" value="DataMIningEngine" style="swimlane;fontStyle=1;align=center;verticalAlign=top;childLayout=stackLayout;horizontal=1;startSize=26;horizontalStack=0;resizeParent=1;resizeParentMax=0;resizeLast=0;collapsible=1;marginBottom=0;fontSize=16;" parent="1" vertex="1">
          <mxGeometry x="1683" y="94" width="257" height="164" as="geometry" />
        </mxCell>
        <mxCell id="Q57_OqPY2b1l59b12ero-47" value="+ reader: HiveReader" style="text;strokeColor=none;fillColor=none;align=left;verticalAlign=top;spacingLeft=4;spacingRight=4;overflow=hidden;rotatable=0;points=[[0,0.5],[1,0.5]];portConstraint=eastwest;fontSize=16;" parent="Q57_OqPY2b1l59b12ero-44" vertex="1">
          <mxGeometry y="26" width="257" height="26" as="geometry" />
        </mxCell>
        <mxCell id="Q57_OqPY2b1l59b12ero-122" value="+ dao: MysqlUtil" style="text;strokeColor=none;fillColor=none;align=left;verticalAlign=top;spacingLeft=4;spacingRight=4;overflow=hidden;rotatable=0;points=[[0,0.5],[1,0.5]];portConstraint=eastwest;fontSize=16;" parent="Q57_OqPY2b1l59b12ero-44" vertex="1">
          <mxGeometry y="52" width="257" height="26" as="geometry" />
        </mxCell>
        <mxCell id="Q57_OqPY2b1l59b12ero-48" value="" style="line;strokeWidth=1;fillColor=none;align=left;verticalAlign=middle;spacingTop=-1;spacingLeft=3;spacingRight=3;rotatable=0;labelPosition=right;points=[];portConstraint=eastwest;" parent="Q57_OqPY2b1l59b12ero-44" vertex="1">
          <mxGeometry y="78" width="257" height="8" as="geometry" />
        </mxCell>
        <mxCell id="Q57_OqPY2b1l59b12ero-49" value="+ userBehaviorKMeans(): Result" style="text;strokeColor=none;fillColor=none;align=left;verticalAlign=top;spacingLeft=4;spacingRight=4;overflow=hidden;rotatable=0;points=[[0,0.5],[1,0.5]];portConstraint=eastwest;fontSize=16;" parent="Q57_OqPY2b1l59b12ero-44" vertex="1">
          <mxGeometry y="86" width="257" height="26" as="geometry" />
        </mxCell>
        <mxCell id="Q57_OqPY2b1l59b12ero-51" value="+ setsApriori(): Result" style="text;strokeColor=none;fillColor=none;align=left;verticalAlign=top;spacingLeft=4;spacingRight=4;overflow=hidden;rotatable=0;points=[[0,0.5],[1,0.5]];portConstraint=eastwest;fontSize=16;" parent="Q57_OqPY2b1l59b12ero-44" vertex="1">
          <mxGeometry y="112" width="257" height="26" as="geometry" />
        </mxCell>
        <mxCell id="Q57_OqPY2b1l59b12ero-52" value="+ handlerResult(Result): void" style="text;strokeColor=none;fillColor=none;align=left;verticalAlign=top;spacingLeft=4;spacingRight=4;overflow=hidden;rotatable=0;points=[[0,0.5],[1,0.5]];portConstraint=eastwest;fontSize=16;" parent="Q57_OqPY2b1l59b12ero-44" vertex="1">
          <mxGeometry y="138" width="257" height="26" as="geometry" />
        </mxCell>
        <mxCell id="Q57_OqPY2b1l59b12ero-50" style="edgeStyle=none;rounded=0;orthogonalLoop=1;jettySize=auto;html=1;exitX=1;exitY=0.5;exitDx=0;exitDy=0;entryX=0;entryY=0.5;entryDx=0;entryDy=0;endArrow=diamondThin;endFill=0;" parent="1" source="Q57_OqPY2b1l59b12ero-41" target="Q57_OqPY2b1l59b12ero-122" edge="1">
          <mxGeometry relative="1" as="geometry" />
        </mxCell>
        <mxCell id="Q57_OqPY2b1l59b12ero-53" value="Result" style="swimlane;fontStyle=1;align=center;verticalAlign=top;childLayout=stackLayout;horizontal=1;startSize=26;horizontalStack=0;resizeParent=1;resizeParentMax=0;resizeLast=0;collapsible=1;marginBottom=0;fontSize=16;" parent="1" vertex="1">
          <mxGeometry x="1960" y="233" width="220" height="138" as="geometry" />
        </mxCell>
        <mxCell id="Q57_OqPY2b1l59b12ero-54" value="+ id: int" style="text;strokeColor=none;fillColor=none;align=left;verticalAlign=top;spacingLeft=4;spacingRight=4;overflow=hidden;rotatable=0;points=[[0,0.5],[1,0.5]];portConstraint=eastwest;fontSize=16;" parent="Q57_OqPY2b1l59b12ero-53" vertex="1">
          <mxGeometry y="26" width="220" height="26" as="geometry" />
        </mxCell>
        <mxCell id="Q57_OqPY2b1l59b12ero-55" value="+ createTime: timestamp" style="text;strokeColor=none;fillColor=none;align=left;verticalAlign=top;spacingLeft=4;spacingRight=4;overflow=hidden;rotatable=0;points=[[0,0.5],[1,0.5]];portConstraint=eastwest;fontSize=16;" parent="Q57_OqPY2b1l59b12ero-53" vertex="1">
          <mxGeometry y="52" width="220" height="26" as="geometry" />
        </mxCell>
        <mxCell id="Q57_OqPY2b1l59b12ero-59" value="+ date: string" style="text;strokeColor=none;fillColor=none;align=left;verticalAlign=top;spacingLeft=4;spacingRight=4;overflow=hidden;rotatable=0;points=[[0,0.5],[1,0.5]];portConstraint=eastwest;fontSize=16;" parent="Q57_OqPY2b1l59b12ero-53" vertex="1">
          <mxGeometry y="78" width="220" height="26" as="geometry" />
        </mxCell>
        <mxCell id="Q57_OqPY2b1l59b12ero-56" value="+ tableName: string" style="text;strokeColor=none;fillColor=none;align=left;verticalAlign=top;spacingLeft=4;spacingRight=4;overflow=hidden;rotatable=0;points=[[0,0.5],[1,0.5]];portConstraint=eastwest;fontSize=16;" parent="Q57_OqPY2b1l59b12ero-53" vertex="1">
          <mxGeometry y="104" width="220" height="26" as="geometry" />
        </mxCell>
        <mxCell id="Q57_OqPY2b1l59b12ero-57" value="" style="line;strokeWidth=1;fillColor=none;align=left;verticalAlign=middle;spacingTop=-1;spacingLeft=3;spacingRight=3;rotatable=0;labelPosition=right;points=[];portConstraint=eastwest;" parent="Q57_OqPY2b1l59b12ero-53" vertex="1">
          <mxGeometry y="130" width="220" height="8" as="geometry" />
        </mxCell>
        <mxCell id="Q57_OqPY2b1l59b12ero-72" style="edgeStyle=none;rounded=0;orthogonalLoop=1;jettySize=auto;html=1;exitX=0.5;exitY=0;exitDx=0;exitDy=0;endArrow=block;endFill=0;" parent="1" source="Q57_OqPY2b1l59b12ero-60" edge="1">
          <mxGeometry relative="1" as="geometry">
            <mxPoint x="2030" y="372" as="targetPoint" />
          </mxGeometry>
        </mxCell>
        <mxCell id="Q57_OqPY2b1l59b12ero-60" value="AprioriResult" style="swimlane;fontStyle=1;align=center;verticalAlign=top;childLayout=stackLayout;horizontal=1;startSize=26;horizontalStack=0;resizeParent=1;resizeParentMax=0;resizeLast=0;collapsible=1;marginBottom=0;fontSize=16;" parent="1" vertex="1">
          <mxGeometry x="1840" y="468" width="160" height="86" as="geometry" />
        </mxCell>
        <mxCell id="Q57_OqPY2b1l59b12ero-61" value="+ sets: list&lt;string&gt;" style="text;strokeColor=none;fillColor=none;align=left;verticalAlign=top;spacingLeft=4;spacingRight=4;overflow=hidden;rotatable=0;points=[[0,0.5],[1,0.5]];portConstraint=eastwest;fontSize=16;" parent="Q57_OqPY2b1l59b12ero-60" vertex="1">
          <mxGeometry y="26" width="160" height="26" as="geometry" />
        </mxCell>
        <mxCell id="Q57_OqPY2b1l59b12ero-62" value="+ rate: float" style="text;strokeColor=none;fillColor=none;align=left;verticalAlign=top;spacingLeft=4;spacingRight=4;overflow=hidden;rotatable=0;points=[[0,0.5],[1,0.5]];portConstraint=eastwest;fontSize=16;" parent="Q57_OqPY2b1l59b12ero-60" vertex="1">
          <mxGeometry y="52" width="160" height="26" as="geometry" />
        </mxCell>
        <mxCell id="Q57_OqPY2b1l59b12ero-65" value="" style="line;strokeWidth=1;fillColor=none;align=left;verticalAlign=middle;spacingTop=-1;spacingLeft=3;spacingRight=3;rotatable=0;labelPosition=right;points=[];portConstraint=eastwest;" parent="Q57_OqPY2b1l59b12ero-60" vertex="1">
          <mxGeometry y="78" width="160" height="8" as="geometry" />
        </mxCell>
        <mxCell id="Q57_OqPY2b1l59b12ero-73" style="edgeStyle=none;rounded=0;orthogonalLoop=1;jettySize=auto;html=1;exitX=0.5;exitY=0;exitDx=0;exitDy=0;endArrow=block;endFill=0;" parent="1" source="Q57_OqPY2b1l59b12ero-66" edge="1">
          <mxGeometry relative="1" as="geometry">
            <mxPoint x="2030" y="372" as="targetPoint" />
          </mxGeometry>
        </mxCell>
        <mxCell id="Q57_OqPY2b1l59b12ero-66" value="KmeansResult" style="swimlane;fontStyle=1;align=center;verticalAlign=top;childLayout=stackLayout;horizontal=1;startSize=26;horizontalStack=0;resizeParent=1;resizeParentMax=0;resizeLast=0;collapsible=1;marginBottom=0;fontSize=16;" parent="1" vertex="1">
          <mxGeometry x="2080" y="468" width="180" height="138" as="geometry" />
        </mxCell>
        <mxCell id="Q57_OqPY2b1l59b12ero-67" value="+ visitedPeriod: int" style="text;strokeColor=none;fillColor=none;align=left;verticalAlign=top;spacingLeft=4;spacingRight=4;overflow=hidden;rotatable=0;points=[[0,0.5],[1,0.5]];portConstraint=eastwest;fontSize=16;" parent="Q57_OqPY2b1l59b12ero-66" vertex="1">
          <mxGeometry y="26" width="180" height="26" as="geometry" />
        </mxCell>
        <mxCell id="Q57_OqPY2b1l59b12ero-68" value="+ visitedIp: int" style="text;strokeColor=none;fillColor=none;align=left;verticalAlign=top;spacingLeft=4;spacingRight=4;overflow=hidden;rotatable=0;points=[[0,0.5],[1,0.5]];portConstraint=eastwest;fontSize=16;" parent="Q57_OqPY2b1l59b12ero-66" vertex="1">
          <mxGeometry y="52" width="180" height="26" as="geometry" />
        </mxCell>
        <mxCell id="Q57_OqPY2b1l59b12ero-70" value="+ sourceCount: int" style="text;strokeColor=none;fillColor=none;align=left;verticalAlign=top;spacingLeft=4;spacingRight=4;overflow=hidden;rotatable=0;points=[[0,0.5],[1,0.5]];portConstraint=eastwest;fontSize=16;" parent="Q57_OqPY2b1l59b12ero-66" vertex="1">
          <mxGeometry y="78" width="180" height="26" as="geometry" />
        </mxCell>
        <mxCell id="Q57_OqPY2b1l59b12ero-71" value="+ totalCount: int" style="text;strokeColor=none;fillColor=none;align=left;verticalAlign=top;spacingLeft=4;spacingRight=4;overflow=hidden;rotatable=0;points=[[0,0.5],[1,0.5]];portConstraint=eastwest;fontSize=16;" parent="Q57_OqPY2b1l59b12ero-66" vertex="1">
          <mxGeometry y="104" width="180" height="26" as="geometry" />
        </mxCell>
        <mxCell id="Q57_OqPY2b1l59b12ero-69" value="" style="line;strokeWidth=1;fillColor=none;align=left;verticalAlign=middle;spacingTop=-1;spacingLeft=3;spacingRight=3;rotatable=0;labelPosition=right;points=[];portConstraint=eastwest;" parent="Q57_OqPY2b1l59b12ero-66" vertex="1">
          <mxGeometry y="130" width="180" height="8" as="geometry" />
        </mxCell>
        <mxCell id="Q57_OqPY2b1l59b12ero-77" style="edgeStyle=none;rounded=0;orthogonalLoop=1;jettySize=auto;html=1;exitX=0.5;exitY=0;exitDx=0;exitDy=0;endArrow=block;endFill=0;" parent="1" source="Q57_OqPY2b1l59b12ero-78" edge="1">
          <mxGeometry relative="1" as="geometry">
            <mxPoint x="2065" y="1085" as="targetPoint" />
          </mxGeometry>
        </mxCell>
        <mxCell id="Q57_OqPY2b1l59b12ero-78" value="RouterLog" style="swimlane;fontStyle=1;align=center;verticalAlign=top;childLayout=stackLayout;horizontal=1;startSize=26;horizontalStack=0;resizeParent=1;resizeParentMax=0;resizeLast=0;collapsible=1;marginBottom=0;" parent="1" vertex="1">
          <mxGeometry x="2114" y="1135" width="206" height="112" as="geometry" />
        </mxCell>
        <mxCell id="Q57_OqPY2b1l59b12ero-79" value="+ userId: string" style="text;strokeColor=none;fillColor=none;align=left;verticalAlign=top;spacingLeft=4;spacingRight=4;overflow=hidden;rotatable=0;points=[[0,0.5],[1,0.5]];portConstraint=eastwest;fontSize=16;" parent="Q57_OqPY2b1l59b12ero-78" vertex="1">
          <mxGeometry y="26" width="206" height="26" as="geometry" />
        </mxCell>
        <mxCell id="Q57_OqPY2b1l59b12ero-80" value="+ url: string" style="text;strokeColor=none;fillColor=none;align=left;verticalAlign=top;spacingLeft=4;spacingRight=4;overflow=hidden;rotatable=0;points=[[0,0.5],[1,0.5]];portConstraint=eastwest;fontSize=16;" parent="Q57_OqPY2b1l59b12ero-78" vertex="1">
          <mxGeometry y="52" width="206" height="26" as="geometry" />
        </mxCell>
        <mxCell id="Q57_OqPY2b1l59b12ero-81" value="" style="line;strokeWidth=1;fillColor=none;align=left;verticalAlign=middle;spacingTop=-1;spacingLeft=3;spacingRight=3;rotatable=0;labelPosition=right;points=[];portConstraint=eastwest;" parent="Q57_OqPY2b1l59b12ero-78" vertex="1">
          <mxGeometry y="78" width="206" height="8" as="geometry" />
        </mxCell>
        <mxCell id="Q57_OqPY2b1l59b12ero-82" value="+ Unmarshal(string): void" style="text;strokeColor=none;fillColor=none;align=left;verticalAlign=top;spacingLeft=4;spacingRight=4;overflow=hidden;rotatable=0;points=[[0,0.5],[1,0.5]];portConstraint=eastwest;fontSize=16;" parent="Q57_OqPY2b1l59b12ero-78" vertex="1">
          <mxGeometry y="86" width="206" height="26" as="geometry" />
        </mxCell>
        <mxCell id="Q57_OqPY2b1l59b12ero-83" style="rounded=0;orthogonalLoop=1;jettySize=auto;html=1;exitX=0.5;exitY=0;exitDx=0;exitDy=0;entryX=0.444;entryY=1.038;entryDx=0;entryDy=0;entryPerimeter=0;endArrow=block;endFill=0;" parent="1" source="Q57_OqPY2b1l59b12ero-84" target="Q57_OqPY2b1l59b12ero-99" edge="1">
          <mxGeometry relative="1" as="geometry" />
        </mxCell>
        <mxCell id="Q57_OqPY2b1l59b12ero-84" value="CommonLog" style="swimlane;fontStyle=1;align=center;verticalAlign=top;childLayout=stackLayout;horizontal=1;startSize=26;horizontalStack=0;resizeParent=1;resizeParentMax=0;resizeLast=0;collapsible=1;marginBottom=0;" parent="1" vertex="1">
          <mxGeometry x="1860" y="1135" width="200" height="242" as="geometry" />
        </mxCell>
        <mxCell id="Q57_OqPY2b1l59b12ero-85" value="+ logId: string" style="text;strokeColor=none;fillColor=none;align=left;verticalAlign=top;spacingLeft=4;spacingRight=4;overflow=hidden;rotatable=0;points=[[0,0.5],[1,0.5]];portConstraint=eastwest;fontSize=16;" parent="Q57_OqPY2b1l59b12ero-84" vertex="1">
          <mxGeometry y="26" width="200" height="26" as="geometry" />
        </mxCell>
        <mxCell id="Q57_OqPY2b1l59b12ero-86" value="+ serviceName: string" style="text;strokeColor=none;fillColor=none;align=left;verticalAlign=top;spacingLeft=4;spacingRight=4;overflow=hidden;rotatable=0;points=[[0,0.5],[1,0.5]];portConstraint=eastwest;fontSize=16;" parent="Q57_OqPY2b1l59b12ero-84" vertex="1">
          <mxGeometry y="52" width="200" height="26" as="geometry" />
        </mxCell>
        <mxCell id="Q57_OqPY2b1l59b12ero-87" value="+ callerName: string" style="text;strokeColor=none;fillColor=none;align=left;verticalAlign=top;spacingLeft=4;spacingRight=4;overflow=hidden;rotatable=0;points=[[0,0.5],[1,0.5]];portConstraint=eastwest;fontSize=16;" parent="Q57_OqPY2b1l59b12ero-84" vertex="1">
          <mxGeometry y="78" width="200" height="26" as="geometry" />
        </mxCell>
        <mxCell id="Q57_OqPY2b1l59b12ero-88" value="+ logLevel: string" style="text;strokeColor=none;fillColor=none;align=left;verticalAlign=top;spacingLeft=4;spacingRight=4;overflow=hidden;rotatable=0;points=[[0,0.5],[1,0.5]];portConstraint=eastwest;fontSize=16;" parent="Q57_OqPY2b1l59b12ero-84" vertex="1">
          <mxGeometry y="104" width="200" height="26" as="geometry" />
        </mxCell>
        <mxCell id="Q57_OqPY2b1l59b12ero-89" value="+ statusCode: int" style="text;strokeColor=none;fillColor=none;align=left;verticalAlign=top;spacingLeft=4;spacingRight=4;overflow=hidden;rotatable=0;points=[[0,0.5],[1,0.5]];portConstraint=eastwest;fontSize=16;" parent="Q57_OqPY2b1l59b12ero-84" vertex="1">
          <mxGeometry y="130" width="200" height="26" as="geometry" />
        </mxCell>
        <mxCell id="Q57_OqPY2b1l59b12ero-90" value="+ functionName: string" style="text;strokeColor=none;fillColor=none;align=left;verticalAlign=top;spacingLeft=4;spacingRight=4;overflow=hidden;rotatable=0;points=[[0,0.5],[1,0.5]];portConstraint=eastwest;fontSize=16;" parent="Q57_OqPY2b1l59b12ero-84" vertex="1">
          <mxGeometry y="156" width="200" height="26" as="geometry" />
        </mxCell>
        <mxCell id="Q57_OqPY2b1l59b12ero-91" value="+ resp: string" style="text;strokeColor=none;fillColor=none;align=left;verticalAlign=top;spacingLeft=4;spacingRight=4;overflow=hidden;rotatable=0;points=[[0,0.5],[1,0.5]];portConstraint=eastwest;fontSize=16;" parent="Q57_OqPY2b1l59b12ero-84" vertex="1">
          <mxGeometry y="182" width="200" height="26" as="geometry" />
        </mxCell>
        <mxCell id="Q57_OqPY2b1l59b12ero-92" value="" style="line;strokeWidth=1;fillColor=none;align=left;verticalAlign=middle;spacingTop=-1;spacingLeft=3;spacingRight=3;rotatable=0;labelPosition=right;points=[];portConstraint=eastwest;" parent="Q57_OqPY2b1l59b12ero-84" vertex="1">
          <mxGeometry y="208" width="200" height="8" as="geometry" />
        </mxCell>
        <mxCell id="Q57_OqPY2b1l59b12ero-93" value="+ Unmarshal(string): void" style="text;strokeColor=none;fillColor=none;align=left;verticalAlign=top;spacingLeft=4;spacingRight=4;overflow=hidden;rotatable=0;points=[[0,0.5],[1,0.5]];portConstraint=eastwest;fontSize=16;" parent="Q57_OqPY2b1l59b12ero-84" vertex="1">
          <mxGeometry y="216" width="200" height="26" as="geometry" />
        </mxCell>
        <mxCell id="Q57_OqPY2b1l59b12ero-94" value="Log" style="swimlane;fontStyle=1;align=center;verticalAlign=top;childLayout=stackLayout;horizontal=1;startSize=26;horizontalStack=0;resizeParent=1;resizeParentMax=0;resizeLast=0;collapsible=1;marginBottom=0;" parent="1" vertex="1">
          <mxGeometry x="1950" y="945" width="203" height="138" as="geometry" />
        </mxCell>
        <mxCell id="Q57_OqPY2b1l59b12ero-95" value="+ time: timestamp" style="text;strokeColor=none;fillColor=none;align=left;verticalAlign=top;spacingLeft=4;spacingRight=4;overflow=hidden;rotatable=0;points=[[0,0.5],[1,0.5]];portConstraint=eastwest;fontSize=16;" parent="Q57_OqPY2b1l59b12ero-94" vertex="1">
          <mxGeometry y="26" width="203" height="26" as="geometry" />
        </mxCell>
        <mxCell id="Q57_OqPY2b1l59b12ero-96" value="+ ip: string" style="text;strokeColor=none;fillColor=none;align=left;verticalAlign=top;spacingLeft=4;spacingRight=4;overflow=hidden;rotatable=0;points=[[0,0.5],[1,0.5]];portConstraint=eastwest;fontSize=16;" parent="Q57_OqPY2b1l59b12ero-94" vertex="1">
          <mxGeometry y="52" width="203" height="26" as="geometry" />
        </mxCell>
        <mxCell id="Q57_OqPY2b1l59b12ero-97" value="+ reqParm: string" style="text;strokeColor=none;fillColor=none;align=left;verticalAlign=top;spacingLeft=4;spacingRight=4;overflow=hidden;rotatable=0;points=[[0,0.5],[1,0.5]];portConstraint=eastwest;fontSize=16;" parent="Q57_OqPY2b1l59b12ero-94" vertex="1">
          <mxGeometry y="78" width="203" height="26" as="geometry" />
        </mxCell>
        <mxCell id="Q57_OqPY2b1l59b12ero-98" value="" style="line;strokeWidth=1;fillColor=none;align=left;verticalAlign=middle;spacingTop=-1;spacingLeft=3;spacingRight=3;rotatable=0;labelPosition=right;points=[];portConstraint=eastwest;" parent="Q57_OqPY2b1l59b12ero-94" vertex="1">
          <mxGeometry y="104" width="203" height="8" as="geometry" />
        </mxCell>
        <mxCell id="Q57_OqPY2b1l59b12ero-99" value="+ Unmarshal(string): void" style="text;strokeColor=none;fillColor=none;align=left;verticalAlign=top;spacingLeft=4;spacingRight=4;overflow=hidden;rotatable=0;points=[[0,0.5],[1,0.5]];portConstraint=eastwest;fontSize=16;" parent="Q57_OqPY2b1l59b12ero-94" vertex="1">
          <mxGeometry y="112" width="203" height="26" as="geometry" />
        </mxCell>
        <mxCell id="Q57_OqPY2b1l59b12ero-100" value="KafkaConsumer" style="swimlane;fontStyle=1;align=center;verticalAlign=top;childLayout=stackLayout;horizontal=1;startSize=26;horizontalStack=0;resizeParent=1;resizeParentMax=0;resizeLast=0;collapsible=1;marginBottom=0;" parent="1" vertex="1">
          <mxGeometry x="2330" y="945" width="210" height="164" as="geometry" />
        </mxCell>
        <mxCell id="Q57_OqPY2b1l59b12ero-101" value="+ host: string" style="text;strokeColor=none;fillColor=none;align=left;verticalAlign=top;spacingLeft=4;spacingRight=4;overflow=hidden;rotatable=0;points=[[0,0.5],[1,0.5]];portConstraint=eastwest;fontSize=16;" parent="Q57_OqPY2b1l59b12ero-100" vertex="1">
          <mxGeometry y="26" width="210" height="26" as="geometry" />
        </mxCell>
        <mxCell id="Q57_OqPY2b1l59b12ero-102" value="+ topic: string" style="text;strokeColor=none;fillColor=none;align=left;verticalAlign=top;spacingLeft=4;spacingRight=4;overflow=hidden;rotatable=0;points=[[0,0.5],[1,0.5]];portConstraint=eastwest;fontSize=16;" parent="Q57_OqPY2b1l59b12ero-100" vertex="1">
          <mxGeometry y="52" width="210" height="26" as="geometry" />
        </mxCell>
        <mxCell id="Q57_OqPY2b1l59b12ero-103" value="+ consumerGroup: string" style="text;strokeColor=none;fillColor=none;align=left;verticalAlign=top;spacingLeft=4;spacingRight=4;overflow=hidden;rotatable=0;points=[[0,0.5],[1,0.5]];portConstraint=eastwest;fontSize=16;" parent="Q57_OqPY2b1l59b12ero-100" vertex="1">
          <mxGeometry y="78" width="210" height="26" as="geometry" />
        </mxCell>
        <mxCell id="Q57_OqPY2b1l59b12ero-104" value="" style="line;strokeWidth=1;fillColor=none;align=left;verticalAlign=middle;spacingTop=-1;spacingLeft=3;spacingRight=3;rotatable=0;labelPosition=right;points=[];portConstraint=eastwest;" parent="Q57_OqPY2b1l59b12ero-100" vertex="1">
          <mxGeometry y="104" width="210" height="8" as="geometry" />
        </mxCell>
        <mxCell id="Q57_OqPY2b1l59b12ero-105" value="+ readLine(offset:int): Log" style="text;strokeColor=none;fillColor=none;align=left;verticalAlign=top;spacingLeft=4;spacingRight=4;overflow=hidden;rotatable=0;points=[[0,0.5],[1,0.5]];portConstraint=eastwest;fontSize=16;" parent="Q57_OqPY2b1l59b12ero-100" vertex="1">
          <mxGeometry y="112" width="210" height="26" as="geometry" />
        </mxCell>
        <mxCell id="Q57_OqPY2b1l59b12ero-106" value="+ commit(): bool" style="text;strokeColor=none;fillColor=none;align=left;verticalAlign=top;spacingLeft=4;spacingRight=4;overflow=hidden;rotatable=0;points=[[0,0.5],[1,0.5]];portConstraint=eastwest;fontSize=16;" parent="Q57_OqPY2b1l59b12ero-100" vertex="1">
          <mxGeometry y="138" width="210" height="26" as="geometry" />
        </mxCell>
        <mxCell id="Q57_OqPY2b1l59b12ero-108" value="FlinkMonitor" style="swimlane;fontStyle=1;align=center;verticalAlign=top;childLayout=stackLayout;horizontal=1;startSize=26;horizontalStack=0;resizeParent=1;resizeParentMax=0;resizeLast=0;collapsible=1;marginBottom=0;" parent="1" vertex="1">
          <mxGeometry x="2620" y="945" width="240" height="242" as="geometry" />
        </mxCell>
        <mxCell id="Q57_OqPY2b1l59b12ero-109" value="+ consumer: KafkaConsumer" style="text;strokeColor=none;fillColor=none;align=left;verticalAlign=top;spacingLeft=4;spacingRight=4;overflow=hidden;rotatable=0;points=[[0,0.5],[1,0.5]];portConstraint=eastwest;fontSize=16;" parent="Q57_OqPY2b1l59b12ero-108" vertex="1">
          <mxGeometry y="26" width="240" height="26" as="geometry" />
        </mxCell>
        <mxCell id="Q57_OqPY2b1l59b12ero-124" value="+ redis: RedisClint" style="text;strokeColor=none;fillColor=none;align=left;verticalAlign=top;spacingLeft=4;spacingRight=4;overflow=hidden;rotatable=0;points=[[0,0.5],[1,0.5]];portConstraint=eastwest;fontSize=16;" parent="Q57_OqPY2b1l59b12ero-108" vertex="1">
          <mxGeometry y="52" width="240" height="26" as="geometry" />
        </mxCell>
        <mxCell id="Q57_OqPY2b1l59b12ero-125" value="+ dao: MysqlUtil" style="text;strokeColor=none;fillColor=none;align=left;verticalAlign=top;spacingLeft=4;spacingRight=4;overflow=hidden;rotatable=0;points=[[0,0.5],[1,0.5]];portConstraint=eastwest;fontSize=16;" parent="Q57_OqPY2b1l59b12ero-108" vertex="1">
          <mxGeometry y="78" width="240" height="26" as="geometry" />
        </mxCell>
        <mxCell id="Q57_OqPY2b1l59b12ero-126" value="+ httpUtil: HttpUtil" style="text;strokeColor=none;fillColor=none;align=left;verticalAlign=top;spacingLeft=4;spacingRight=4;overflow=hidden;rotatable=0;points=[[0,0.5],[1,0.5]];portConstraint=eastwest;fontSize=16;" parent="Q57_OqPY2b1l59b12ero-108" vertex="1">
          <mxGeometry y="104" width="240" height="26" as="geometry" />
        </mxCell>
        <mxCell id="Q57_OqPY2b1l59b12ero-112" value="" style="line;strokeWidth=1;fillColor=none;align=left;verticalAlign=middle;spacingTop=-1;spacingLeft=3;spacingRight=3;rotatable=0;labelPosition=right;points=[];portConstraint=eastwest;" parent="Q57_OqPY2b1l59b12ero-108" vertex="1">
          <mxGeometry y="130" width="240" height="8" as="geometry" />
        </mxCell>
        <mxCell id="Q57_OqPY2b1l59b12ero-113" value="+ monitorInterface():metrics " style="text;strokeColor=none;fillColor=none;align=left;verticalAlign=top;spacingLeft=4;spacingRight=4;overflow=hidden;rotatable=0;points=[[0,0.5],[1,0.5]];portConstraint=eastwest;fontSize=16;" parent="Q57_OqPY2b1l59b12ero-108" vertex="1">
          <mxGeometry y="138" width="240" height="26" as="geometry" />
        </mxCell>
        <mxCell id="Q57_OqPY2b1l59b12ero-160" value="+ monitorRouter: panic" style="text;strokeColor=none;fillColor=none;align=left;verticalAlign=top;spacingLeft=4;spacingRight=4;overflow=hidden;rotatable=0;points=[[0,0.5],[1,0.5]];portConstraint=eastwest;fontSize=16;" parent="Q57_OqPY2b1l59b12ero-108" vertex="1">
          <mxGeometry y="164" width="240" height="26" as="geometry" />
        </mxCell>
        <mxCell id="Q57_OqPY2b1l59b12ero-161" value="+ sendMetrics(metrics): void" style="text;strokeColor=none;fillColor=none;align=left;verticalAlign=top;spacingLeft=4;spacingRight=4;overflow=hidden;rotatable=0;points=[[0,0.5],[1,0.5]];portConstraint=eastwest;fontSize=16;" parent="Q57_OqPY2b1l59b12ero-108" vertex="1">
          <mxGeometry y="190" width="240" height="26" as="geometry" />
        </mxCell>
        <mxCell id="Q57_OqPY2b1l59b12ero-114" value="+ alarm(panic): void" style="text;strokeColor=none;fillColor=none;align=left;verticalAlign=top;spacingLeft=4;spacingRight=4;overflow=hidden;rotatable=0;points=[[0,0.5],[1,0.5]];portConstraint=eastwest;fontSize=16;" parent="Q57_OqPY2b1l59b12ero-108" vertex="1">
          <mxGeometry y="216" width="240" height="26" as="geometry" />
        </mxCell>
        <mxCell id="Q57_OqPY2b1l59b12ero-123" style="edgeStyle=none;rounded=0;orthogonalLoop=1;jettySize=auto;html=1;exitX=0.5;exitY=0;exitDx=0;exitDy=0;endArrow=diamondThin;endFill=0;" parent="1" source="Q57_OqPY2b1l59b12ero-115" edge="1">
          <mxGeometry relative="1" as="geometry">
            <mxPoint x="1750" y="260" as="targetPoint" />
          </mxGeometry>
        </mxCell>
        <mxCell id="Q57_OqPY2b1l59b12ero-115" value="MysqlUtil" style="swimlane;fontStyle=1;align=center;verticalAlign=top;childLayout=stackLayout;horizontal=1;startSize=26;horizontalStack=0;resizeParent=1;resizeParentMax=0;resizeLast=0;collapsible=1;marginBottom=0;fontSize=16;" parent="1" vertex="1">
          <mxGeometry x="1510" y="312" width="210" height="138" as="geometry" />
        </mxCell>
        <mxCell id="Q57_OqPY2b1l59b12ero-116" value="+ host: string" style="text;strokeColor=none;fillColor=none;align=left;verticalAlign=top;spacingLeft=4;spacingRight=4;overflow=hidden;rotatable=0;points=[[0,0.5],[1,0.5]];portConstraint=eastwest;fontSize=16;" parent="Q57_OqPY2b1l59b12ero-115" vertex="1">
          <mxGeometry y="26" width="210" height="26" as="geometry" />
        </mxCell>
        <mxCell id="Q57_OqPY2b1l59b12ero-117" value="+ username: string" style="text;strokeColor=none;fillColor=none;align=left;verticalAlign=top;spacingLeft=4;spacingRight=4;overflow=hidden;rotatable=0;points=[[0,0.5],[1,0.5]];portConstraint=eastwest;fontSize=16;" parent="Q57_OqPY2b1l59b12ero-115" vertex="1">
          <mxGeometry y="52" width="210" height="26" as="geometry" />
        </mxCell>
        <mxCell id="Q57_OqPY2b1l59b12ero-118" value="+ password: string" style="text;strokeColor=none;fillColor=none;align=left;verticalAlign=top;spacingLeft=4;spacingRight=4;overflow=hidden;rotatable=0;points=[[0,0.5],[1,0.5]];portConstraint=eastwest;fontSize=16;" parent="Q57_OqPY2b1l59b12ero-115" vertex="1">
          <mxGeometry y="78" width="210" height="26" as="geometry" />
        </mxCell>
        <mxCell id="Q57_OqPY2b1l59b12ero-119" value="" style="line;strokeWidth=1;fillColor=none;align=left;verticalAlign=middle;spacingTop=-1;spacingLeft=3;spacingRight=3;rotatable=0;labelPosition=right;points=[];portConstraint=eastwest;" parent="Q57_OqPY2b1l59b12ero-115" vertex="1">
          <mxGeometry y="104" width="210" height="8" as="geometry" />
        </mxCell>
        <mxCell id="Q57_OqPY2b1l59b12ero-120" value="+ saveResult(Result):void " style="text;strokeColor=none;fillColor=none;align=left;verticalAlign=top;spacingLeft=4;spacingRight=4;overflow=hidden;rotatable=0;points=[[0,0.5],[1,0.5]];portConstraint=eastwest;fontSize=16;" parent="Q57_OqPY2b1l59b12ero-115" vertex="1">
          <mxGeometry y="112" width="210" height="26" as="geometry" />
        </mxCell>
        <mxCell id="Q57_OqPY2b1l59b12ero-150" style="edgeStyle=none;rounded=0;orthogonalLoop=1;jettySize=auto;html=1;exitX=0.5;exitY=0;exitDx=0;exitDy=0;entryX=0.394;entryY=0.962;entryDx=0;entryDy=0;entryPerimeter=0;endArrow=diamondThin;endFill=0;" parent="1" source="Q57_OqPY2b1l59b12ero-127" target="Q57_OqPY2b1l59b12ero-114" edge="1">
          <mxGeometry relative="1" as="geometry" />
        </mxCell>
        <mxCell id="Q57_OqPY2b1l59b12ero-127" value="MysqlUtil" style="swimlane;fontStyle=1;align=center;verticalAlign=top;childLayout=stackLayout;horizontal=1;startSize=26;horizontalStack=0;resizeParent=1;resizeParentMax=0;resizeLast=0;collapsible=1;marginBottom=0;" parent="1" vertex="1">
          <mxGeometry x="2430" y="1210" width="200" height="138" as="geometry" />
        </mxCell>
        <mxCell id="Q57_OqPY2b1l59b12ero-128" value="+ host: string" style="text;strokeColor=none;fillColor=none;align=left;verticalAlign=top;spacingLeft=4;spacingRight=4;overflow=hidden;rotatable=0;points=[[0,0.5],[1,0.5]];portConstraint=eastwest;fontSize=16;" parent="Q57_OqPY2b1l59b12ero-127" vertex="1">
          <mxGeometry y="26" width="200" height="26" as="geometry" />
        </mxCell>
        <mxCell id="Q57_OqPY2b1l59b12ero-129" value="+ username: string" style="text;strokeColor=none;fillColor=none;align=left;verticalAlign=top;spacingLeft=4;spacingRight=4;overflow=hidden;rotatable=0;points=[[0,0.5],[1,0.5]];portConstraint=eastwest;fontSize=16;" parent="Q57_OqPY2b1l59b12ero-127" vertex="1">
          <mxGeometry y="52" width="200" height="26" as="geometry" />
        </mxCell>
        <mxCell id="Q57_OqPY2b1l59b12ero-130" value="+ password: string" style="text;strokeColor=none;fillColor=none;align=left;verticalAlign=top;spacingLeft=4;spacingRight=4;overflow=hidden;rotatable=0;points=[[0,0.5],[1,0.5]];portConstraint=eastwest;fontSize=16;" parent="Q57_OqPY2b1l59b12ero-127" vertex="1">
          <mxGeometry y="78" width="200" height="26" as="geometry" />
        </mxCell>
        <mxCell id="Q57_OqPY2b1l59b12ero-131" value="" style="line;strokeWidth=1;fillColor=none;align=left;verticalAlign=middle;spacingTop=-1;spacingLeft=3;spacingRight=3;rotatable=0;labelPosition=right;points=[];portConstraint=eastwest;" parent="Q57_OqPY2b1l59b12ero-127" vertex="1">
          <mxGeometry y="104" width="200" height="8" as="geometry" />
        </mxCell>
        <mxCell id="Q57_OqPY2b1l59b12ero-132" value="+ saveResult(Result):void " style="text;strokeColor=none;fillColor=none;align=left;verticalAlign=top;spacingLeft=4;spacingRight=4;overflow=hidden;rotatable=0;points=[[0,0.5],[1,0.5]];portConstraint=eastwest;fontSize=16;" parent="Q57_OqPY2b1l59b12ero-127" vertex="1">
          <mxGeometry y="112" width="200" height="26" as="geometry" />
        </mxCell>
        <mxCell id="Q57_OqPY2b1l59b12ero-133" style="edgeStyle=none;rounded=0;orthogonalLoop=1;jettySize=auto;html=1;exitX=1;exitY=0.5;exitDx=0;exitDy=0;entryX=0;entryY=0.5;entryDx=0;entryDy=0;endArrow=diamondThin;endFill=0;" parent="1" source="Q57_OqPY2b1l59b12ero-101" target="Q57_OqPY2b1l59b12ero-109" edge="1">
          <mxGeometry relative="1" as="geometry" />
        </mxCell>
        <mxCell id="Q57_OqPY2b1l59b12ero-134" value="RedisClint" style="swimlane;fontStyle=1;align=center;verticalAlign=top;childLayout=stackLayout;horizontal=1;startSize=26;horizontalStack=0;resizeParent=1;resizeParentMax=0;resizeLast=0;collapsible=1;marginBottom=0;" parent="1" vertex="1">
          <mxGeometry x="2890" y="945" width="250" height="138" as="geometry" />
        </mxCell>
        <mxCell id="Q57_OqPY2b1l59b12ero-135" value="+ cluster: string" style="text;strokeColor=none;fillColor=none;align=left;verticalAlign=top;spacingLeft=4;spacingRight=4;overflow=hidden;rotatable=0;points=[[0,0.5],[1,0.5]];portConstraint=eastwest;fontSize=16;" parent="Q57_OqPY2b1l59b12ero-134" vertex="1">
          <mxGeometry y="26" width="250" height="26" as="geometry" />
        </mxCell>
        <mxCell id="Q57_OqPY2b1l59b12ero-136" value="+ username: string" style="text;strokeColor=none;fillColor=none;align=left;verticalAlign=top;spacingLeft=4;spacingRight=4;overflow=hidden;rotatable=0;points=[[0,0.5],[1,0.5]];portConstraint=eastwest;fontSize=16;" parent="Q57_OqPY2b1l59b12ero-134" vertex="1">
          <mxGeometry y="52" width="250" height="26" as="geometry" />
        </mxCell>
        <mxCell id="Q57_OqPY2b1l59b12ero-137" value="+ password: string" style="text;strokeColor=none;fillColor=none;align=left;verticalAlign=top;spacingLeft=4;spacingRight=4;overflow=hidden;rotatable=0;points=[[0,0.5],[1,0.5]];portConstraint=eastwest;fontSize=16;" parent="Q57_OqPY2b1l59b12ero-134" vertex="1">
          <mxGeometry y="78" width="250" height="26" as="geometry" />
        </mxCell>
        <mxCell id="Q57_OqPY2b1l59b12ero-138" value="" style="line;strokeWidth=1;fillColor=none;align=left;verticalAlign=middle;spacingTop=-1;spacingLeft=3;spacingRight=3;rotatable=0;labelPosition=right;points=[];portConstraint=eastwest;" parent="Q57_OqPY2b1l59b12ero-134" vertex="1">
          <mxGeometry y="104" width="250" height="8" as="geometry" />
        </mxCell>
        <mxCell id="Q57_OqPY2b1l59b12ero-139" value="+ setMetrics(string,mertics):void " style="text;strokeColor=none;fillColor=none;align=left;verticalAlign=top;spacingLeft=4;spacingRight=4;overflow=hidden;rotatable=0;points=[[0,0.5],[1,0.5]];portConstraint=eastwest;fontSize=16;" parent="Q57_OqPY2b1l59b12ero-134" vertex="1">
          <mxGeometry y="112" width="250" height="26" as="geometry" />
        </mxCell>
        <mxCell id="Q57_OqPY2b1l59b12ero-140" value="panic" style="swimlane;fontStyle=1;align=center;verticalAlign=top;childLayout=stackLayout;horizontal=1;startSize=26;horizontalStack=0;resizeParent=1;resizeParentMax=0;resizeLast=0;collapsible=1;marginBottom=0;" parent="1" vertex="1">
          <mxGeometry x="2200" y="1296" width="160" height="190" as="geometry" />
        </mxCell>
        <mxCell id="Q57_OqPY2b1l59b12ero-141" value="+ date: string" style="text;strokeColor=none;fillColor=none;align=left;verticalAlign=top;spacingLeft=4;spacingRight=4;overflow=hidden;rotatable=0;points=[[0,0.5],[1,0.5]];portConstraint=eastwest;fontSize=16;" parent="Q57_OqPY2b1l59b12ero-140" vertex="1">
          <mxGeometry y="26" width="160" height="26" as="geometry" />
        </mxCell>
        <mxCell id="Q57_OqPY2b1l59b12ero-142" value="+ userId: string" style="text;strokeColor=none;fillColor=none;align=left;verticalAlign=top;spacingLeft=4;spacingRight=4;overflow=hidden;rotatable=0;points=[[0,0.5],[1,0.5]];portConstraint=eastwest;fontSize=16;" parent="Q57_OqPY2b1l59b12ero-140" vertex="1">
          <mxGeometry y="52" width="160" height="26" as="geometry" />
        </mxCell>
        <mxCell id="Q57_OqPY2b1l59b12ero-145" value="+ timeBegin: int" style="text;strokeColor=none;fillColor=none;align=left;verticalAlign=top;spacingLeft=4;spacingRight=4;overflow=hidden;rotatable=0;points=[[0,0.5],[1,0.5]];portConstraint=eastwest;fontSize=16;" parent="Q57_OqPY2b1l59b12ero-140" vertex="1">
          <mxGeometry y="78" width="160" height="26" as="geometry" />
        </mxCell>
        <mxCell id="Q57_OqPY2b1l59b12ero-147" value="+ timeEnd: int" style="text;strokeColor=none;fillColor=none;align=left;verticalAlign=top;spacingLeft=4;spacingRight=4;overflow=hidden;rotatable=0;points=[[0,0.5],[1,0.5]];portConstraint=eastwest;fontSize=16;" parent="Q57_OqPY2b1l59b12ero-140" vertex="1">
          <mxGeometry y="104" width="160" height="26" as="geometry" />
        </mxCell>
        <mxCell id="Q57_OqPY2b1l59b12ero-148" value="+ type: int" style="text;strokeColor=none;fillColor=none;align=left;verticalAlign=top;spacingLeft=4;spacingRight=4;overflow=hidden;rotatable=0;points=[[0,0.5],[1,0.5]];portConstraint=eastwest;fontSize=16;" parent="Q57_OqPY2b1l59b12ero-140" vertex="1">
          <mxGeometry y="130" width="160" height="26" as="geometry" />
        </mxCell>
        <mxCell id="Q57_OqPY2b1l59b12ero-146" value="+ count: int" style="text;strokeColor=none;fillColor=none;align=left;verticalAlign=top;spacingLeft=4;spacingRight=4;overflow=hidden;rotatable=0;points=[[0,0.5],[1,0.5]];portConstraint=eastwest;fontSize=16;" parent="Q57_OqPY2b1l59b12ero-140" vertex="1">
          <mxGeometry y="156" width="160" height="26" as="geometry" />
        </mxCell>
        <mxCell id="Q57_OqPY2b1l59b12ero-143" value="" style="line;strokeWidth=1;fillColor=none;align=left;verticalAlign=middle;spacingTop=-1;spacingLeft=3;spacingRight=3;rotatable=0;labelPosition=right;points=[];portConstraint=eastwest;" parent="Q57_OqPY2b1l59b12ero-140" vertex="1">
          <mxGeometry y="182" width="160" height="8" as="geometry" />
        </mxCell>
        <mxCell id="Q57_OqPY2b1l59b12ero-149" style="edgeStyle=none;rounded=0;orthogonalLoop=1;jettySize=auto;html=1;exitX=0;exitY=0.5;exitDx=0;exitDy=0;entryX=1;entryY=0.5;entryDx=0;entryDy=0;endArrow=diamondThin;endFill=0;" parent="1" source="Q57_OqPY2b1l59b12ero-135" target="Q57_OqPY2b1l59b12ero-109" edge="1">
          <mxGeometry relative="1" as="geometry" />
        </mxCell>
        <mxCell id="Q57_OqPY2b1l59b12ero-159" style="edgeStyle=none;rounded=0;orthogonalLoop=1;jettySize=auto;html=1;exitX=0.5;exitY=0;exitDx=0;exitDy=0;entryX=0.411;entryY=1.077;entryDx=0;entryDy=0;entryPerimeter=0;endArrow=diamondThin;endFill=0;" parent="1" source="Q57_OqPY2b1l59b12ero-151" target="Q57_OqPY2b1l59b12ero-114" edge="1">
          <mxGeometry relative="1" as="geometry" />
        </mxCell>
        <mxCell id="Q57_OqPY2b1l59b12ero-151" value="HttpUtil" style="swimlane;fontStyle=1;align=center;verticalAlign=top;childLayout=stackLayout;horizontal=1;startSize=26;horizontalStack=0;resizeParent=1;resizeParentMax=0;resizeLast=0;collapsible=1;marginBottom=0;" parent="1" vertex="1">
          <mxGeometry x="2574" y="1383" width="286" height="60" as="geometry" />
        </mxCell>
        <mxCell id="Q57_OqPY2b1l59b12ero-155" value="" style="line;strokeWidth=1;fillColor=none;align=left;verticalAlign=middle;spacingTop=-1;spacingLeft=3;spacingRight=3;rotatable=0;labelPosition=right;points=[];portConstraint=eastwest;" parent="Q57_OqPY2b1l59b12ero-151" vertex="1">
          <mxGeometry y="26" width="286" height="8" as="geometry" />
        </mxCell>
        <mxCell id="Q57_OqPY2b1l59b12ero-156" value="+ sendAlaemNotic(Result,IP):void " style="text;strokeColor=none;fillColor=none;align=left;verticalAlign=top;spacingLeft=4;spacingRight=4;overflow=hidden;rotatable=0;points=[[0,0.5],[1,0.5]];portConstraint=eastwest;fontSize=16;" parent="Q57_OqPY2b1l59b12ero-151" vertex="1">
          <mxGeometry y="34" width="286" height="26" as="geometry" />
        </mxCell>
        <mxCell id="Q57_OqPY2b1l59b12ero-171" value="metrics" style="swimlane;fontStyle=1;align=center;verticalAlign=top;childLayout=stackLayout;horizontal=1;startSize=26;horizontalStack=0;resizeParent=1;resizeParentMax=0;resizeLast=0;collapsible=1;marginBottom=0;" parent="1" vertex="1">
          <mxGeometry x="2920" y="1187" width="190" height="190" as="geometry" />
        </mxCell>
        <mxCell id="Q57_OqPY2b1l59b12ero-172" value="+ time: timestamp" style="text;strokeColor=none;fillColor=none;align=left;verticalAlign=top;spacingLeft=4;spacingRight=4;overflow=hidden;rotatable=0;points=[[0,0.5],[1,0.5]];portConstraint=eastwest;fontSize=16;" parent="Q57_OqPY2b1l59b12ero-171" vertex="1">
          <mxGeometry y="26" width="190" height="26" as="geometry" />
        </mxCell>
        <mxCell id="Q57_OqPY2b1l59b12ero-173" value="+ callerName: string" style="text;strokeColor=none;fillColor=none;align=left;verticalAlign=top;spacingLeft=4;spacingRight=4;overflow=hidden;rotatable=0;points=[[0,0.5],[1,0.5]];portConstraint=eastwest;fontSize=16;" parent="Q57_OqPY2b1l59b12ero-171" vertex="1">
          <mxGeometry y="52" width="190" height="26" as="geometry" />
        </mxCell>
        <mxCell id="Q57_OqPY2b1l59b12ero-174" value="+ functionName: string" style="text;strokeColor=none;fillColor=none;align=left;verticalAlign=top;spacingLeft=4;spacingRight=4;overflow=hidden;rotatable=0;points=[[0,0.5],[1,0.5]];portConstraint=eastwest;fontSize=16;" parent="Q57_OqPY2b1l59b12ero-171" vertex="1">
          <mxGeometry y="78" width="190" height="26" as="geometry" />
        </mxCell>
        <mxCell id="Q57_OqPY2b1l59b12ero-175" value="+ qps: int" style="text;strokeColor=none;fillColor=none;align=left;verticalAlign=top;spacingLeft=4;spacingRight=4;overflow=hidden;rotatable=0;points=[[0,0.5],[1,0.5]];portConstraint=eastwest;fontSize=16;" parent="Q57_OqPY2b1l59b12ero-171" vertex="1">
          <mxGeometry y="104" width="190" height="26" as="geometry" />
        </mxCell>
        <mxCell id="Q57_OqPY2b1l59b12ero-176" value="+ callFailRate: int" style="text;strokeColor=none;fillColor=none;align=left;verticalAlign=top;spacingLeft=4;spacingRight=4;overflow=hidden;rotatable=0;points=[[0,0.5],[1,0.5]];portConstraint=eastwest;fontSize=16;" parent="Q57_OqPY2b1l59b12ero-171" vertex="1">
          <mxGeometry y="130" width="190" height="26" as="geometry" />
        </mxCell>
        <mxCell id="Q57_OqPY2b1l59b12ero-177" value="+ calledFailRate:int" style="text;strokeColor=none;fillColor=none;align=left;verticalAlign=top;spacingLeft=4;spacingRight=4;overflow=hidden;rotatable=0;points=[[0,0.5],[1,0.5]];portConstraint=eastwest;fontSize=16;" parent="Q57_OqPY2b1l59b12ero-171" vertex="1">
          <mxGeometry y="156" width="190" height="26" as="geometry" />
        </mxCell>
        <mxCell id="Q57_OqPY2b1l59b12ero-178" value="" style="line;strokeWidth=1;fillColor=none;align=left;verticalAlign=middle;spacingTop=-1;spacingLeft=3;spacingRight=3;rotatable=0;labelPosition=right;points=[];portConstraint=eastwest;" parent="Q57_OqPY2b1l59b12ero-171" vertex="1">
          <mxGeometry y="182" width="190" height="8" as="geometry" />
        </mxCell>
        <mxCell id="Q57_OqPY2b1l59b12ero-180" value="metrics" style="swimlane;fontStyle=1;align=center;verticalAlign=top;childLayout=stackLayout;horizontal=1;startSize=26;horizontalStack=0;resizeParent=1;resizeParentMax=0;resizeLast=0;collapsible=1;marginBottom=0;" parent="1" vertex="1">
          <mxGeometry x="1610" y="2260" width="190" height="190" as="geometry" />
        </mxCell>
        <mxCell id="Q57_OqPY2b1l59b12ero-181" value="+ time: timestamp" style="text;strokeColor=none;fillColor=none;align=left;verticalAlign=top;spacingLeft=4;spacingRight=4;overflow=hidden;rotatable=0;points=[[0,0.5],[1,0.5]];portConstraint=eastwest;fontSize=16;" parent="Q57_OqPY2b1l59b12ero-180" vertex="1">
          <mxGeometry y="26" width="190" height="26" as="geometry" />
        </mxCell>
        <mxCell id="Q57_OqPY2b1l59b12ero-182" value="+ callerName: string" style="text;strokeColor=none;fillColor=none;align=left;verticalAlign=top;spacingLeft=4;spacingRight=4;overflow=hidden;rotatable=0;points=[[0,0.5],[1,0.5]];portConstraint=eastwest;fontSize=16;" parent="Q57_OqPY2b1l59b12ero-180" vertex="1">
          <mxGeometry y="52" width="190" height="26" as="geometry" />
        </mxCell>
        <mxCell id="Q57_OqPY2b1l59b12ero-183" value="+ functionName: string" style="text;strokeColor=none;fillColor=none;align=left;verticalAlign=top;spacingLeft=4;spacingRight=4;overflow=hidden;rotatable=0;points=[[0,0.5],[1,0.5]];portConstraint=eastwest;fontSize=16;" parent="Q57_OqPY2b1l59b12ero-180" vertex="1">
          <mxGeometry y="78" width="190" height="26" as="geometry" />
        </mxCell>
        <mxCell id="Q57_OqPY2b1l59b12ero-184" value="+ qps: int" style="text;strokeColor=none;fillColor=none;align=left;verticalAlign=top;spacingLeft=4;spacingRight=4;overflow=hidden;rotatable=0;points=[[0,0.5],[1,0.5]];portConstraint=eastwest;fontSize=16;" parent="Q57_OqPY2b1l59b12ero-180" vertex="1">
          <mxGeometry y="104" width="190" height="26" as="geometry" />
        </mxCell>
        <mxCell id="Q57_OqPY2b1l59b12ero-185" value="+ callFailRate: int" style="text;strokeColor=none;fillColor=none;align=left;verticalAlign=top;spacingLeft=4;spacingRight=4;overflow=hidden;rotatable=0;points=[[0,0.5],[1,0.5]];portConstraint=eastwest;fontSize=16;" parent="Q57_OqPY2b1l59b12ero-180" vertex="1">
          <mxGeometry y="130" width="190" height="26" as="geometry" />
        </mxCell>
        <mxCell id="Q57_OqPY2b1l59b12ero-186" value="+ calledFailRate:int" style="text;strokeColor=none;fillColor=none;align=left;verticalAlign=top;spacingLeft=4;spacingRight=4;overflow=hidden;rotatable=0;points=[[0,0.5],[1,0.5]];portConstraint=eastwest;fontSize=16;" parent="Q57_OqPY2b1l59b12ero-180" vertex="1">
          <mxGeometry y="156" width="190" height="26" as="geometry" />
        </mxCell>
        <mxCell id="Q57_OqPY2b1l59b12ero-187" value="" style="line;strokeWidth=1;fillColor=none;align=left;verticalAlign=middle;spacingTop=-1;spacingLeft=3;spacingRight=3;rotatable=0;labelPosition=right;points=[];portConstraint=eastwest;" parent="Q57_OqPY2b1l59b12ero-180" vertex="1">
          <mxGeometry y="182" width="190" height="8" as="geometry" />
        </mxCell>
        <mxCell id="Q57_OqPY2b1l59b12ero-188" value="panic" style="swimlane;fontStyle=1;align=center;verticalAlign=top;childLayout=stackLayout;horizontal=1;startSize=26;horizontalStack=0;resizeParent=1;resizeParentMax=0;resizeLast=0;collapsible=1;marginBottom=0;" parent="1" vertex="1">
          <mxGeometry x="1945" y="2260" width="160" height="190" as="geometry" />
        </mxCell>
        <mxCell id="Q57_OqPY2b1l59b12ero-189" value="+ date: string" style="text;strokeColor=none;fillColor=none;align=left;verticalAlign=top;spacingLeft=4;spacingRight=4;overflow=hidden;rotatable=0;points=[[0,0.5],[1,0.5]];portConstraint=eastwest;fontSize=16;" parent="Q57_OqPY2b1l59b12ero-188" vertex="1">
          <mxGeometry y="26" width="160" height="26" as="geometry" />
        </mxCell>
        <mxCell id="Q57_OqPY2b1l59b12ero-190" value="+ userId: string" style="text;strokeColor=none;fillColor=none;align=left;verticalAlign=top;spacingLeft=4;spacingRight=4;overflow=hidden;rotatable=0;points=[[0,0.5],[1,0.5]];portConstraint=eastwest;fontSize=16;" parent="Q57_OqPY2b1l59b12ero-188" vertex="1">
          <mxGeometry y="52" width="160" height="26" as="geometry" />
        </mxCell>
        <mxCell id="Q57_OqPY2b1l59b12ero-191" value="+ timeBegin: int" style="text;strokeColor=none;fillColor=none;align=left;verticalAlign=top;spacingLeft=4;spacingRight=4;overflow=hidden;rotatable=0;points=[[0,0.5],[1,0.5]];portConstraint=eastwest;fontSize=16;" parent="Q57_OqPY2b1l59b12ero-188" vertex="1">
          <mxGeometry y="78" width="160" height="26" as="geometry" />
        </mxCell>
        <mxCell id="Q57_OqPY2b1l59b12ero-192" value="+ timeEnd: int" style="text;strokeColor=none;fillColor=none;align=left;verticalAlign=top;spacingLeft=4;spacingRight=4;overflow=hidden;rotatable=0;points=[[0,0.5],[1,0.5]];portConstraint=eastwest;fontSize=16;" parent="Q57_OqPY2b1l59b12ero-188" vertex="1">
          <mxGeometry y="104" width="160" height="26" as="geometry" />
        </mxCell>
        <mxCell id="Q57_OqPY2b1l59b12ero-193" value="+ type: int" style="text;strokeColor=none;fillColor=none;align=left;verticalAlign=top;spacingLeft=4;spacingRight=4;overflow=hidden;rotatable=0;points=[[0,0.5],[1,0.5]];portConstraint=eastwest;fontSize=16;" parent="Q57_OqPY2b1l59b12ero-188" vertex="1">
          <mxGeometry y="130" width="160" height="26" as="geometry" />
        </mxCell>
        <mxCell id="Q57_OqPY2b1l59b12ero-194" value="+ count: int" style="text;strokeColor=none;fillColor=none;align=left;verticalAlign=top;spacingLeft=4;spacingRight=4;overflow=hidden;rotatable=0;points=[[0,0.5],[1,0.5]];portConstraint=eastwest;fontSize=16;" parent="Q57_OqPY2b1l59b12ero-188" vertex="1">
          <mxGeometry y="156" width="160" height="26" as="geometry" />
        </mxCell>
        <mxCell id="Q57_OqPY2b1l59b12ero-195" value="" style="line;strokeWidth=1;fillColor=none;align=left;verticalAlign=middle;spacingTop=-1;spacingLeft=3;spacingRight=3;rotatable=0;labelPosition=right;points=[];portConstraint=eastwest;" parent="Q57_OqPY2b1l59b12ero-188" vertex="1">
          <mxGeometry y="182" width="160" height="8" as="geometry" />
        </mxCell>
        <mxCell id="Q57_OqPY2b1l59b12ero-219" value="Result" style="swimlane;fontStyle=1;align=center;verticalAlign=top;childLayout=stackLayout;horizontal=1;startSize=26;horizontalStack=0;resizeParent=1;resizeParentMax=0;resizeLast=0;collapsible=1;marginBottom=0;" parent="1" vertex="1">
          <mxGeometry x="1530" y="1680" width="200" height="138" as="geometry" />
        </mxCell>
        <mxCell id="Q57_OqPY2b1l59b12ero-220" value="+ id: int" style="text;strokeColor=none;fillColor=none;align=left;verticalAlign=top;spacingLeft=4;spacingRight=4;overflow=hidden;rotatable=0;points=[[0,0.5],[1,0.5]];portConstraint=eastwest;fontSize=16;" parent="Q57_OqPY2b1l59b12ero-219" vertex="1">
          <mxGeometry y="26" width="200" height="26" as="geometry" />
        </mxCell>
        <mxCell id="Q57_OqPY2b1l59b12ero-221" value="+ createTime: timestamp" style="text;strokeColor=none;fillColor=none;align=left;verticalAlign=top;spacingLeft=4;spacingRight=4;overflow=hidden;rotatable=0;points=[[0,0.5],[1,0.5]];portConstraint=eastwest;fontSize=16;" parent="Q57_OqPY2b1l59b12ero-219" vertex="1">
          <mxGeometry y="52" width="200" height="26" as="geometry" />
        </mxCell>
        <mxCell id="Q57_OqPY2b1l59b12ero-222" value="+ date: string" style="text;strokeColor=none;fillColor=none;align=left;verticalAlign=top;spacingLeft=4;spacingRight=4;overflow=hidden;rotatable=0;points=[[0,0.5],[1,0.5]];portConstraint=eastwest;fontSize=16;" parent="Q57_OqPY2b1l59b12ero-219" vertex="1">
          <mxGeometry y="78" width="200" height="26" as="geometry" />
        </mxCell>
        <mxCell id="Q57_OqPY2b1l59b12ero-223" value="+ tableName: string" style="text;strokeColor=none;fillColor=none;align=left;verticalAlign=top;spacingLeft=4;spacingRight=4;overflow=hidden;rotatable=0;points=[[0,0.5],[1,0.5]];portConstraint=eastwest;fontSize=16;" parent="Q57_OqPY2b1l59b12ero-219" vertex="1">
          <mxGeometry y="104" width="200" height="26" as="geometry" />
        </mxCell>
        <mxCell id="Q57_OqPY2b1l59b12ero-224" value="" style="line;strokeWidth=1;fillColor=none;align=left;verticalAlign=middle;spacingTop=-1;spacingLeft=3;spacingRight=3;rotatable=0;labelPosition=right;points=[];portConstraint=eastwest;" parent="Q57_OqPY2b1l59b12ero-219" vertex="1">
          <mxGeometry y="130" width="200" height="8" as="geometry" />
        </mxCell>
        <mxCell id="Q57_OqPY2b1l59b12ero-225" style="edgeStyle=none;rounded=0;orthogonalLoop=1;jettySize=auto;html=1;exitX=0.5;exitY=0;exitDx=0;exitDy=0;endArrow=block;endFill=0;" parent="1" source="Q57_OqPY2b1l59b12ero-226" edge="1">
          <mxGeometry relative="1" as="geometry">
            <mxPoint x="1600" y="1820" as="targetPoint" />
          </mxGeometry>
        </mxCell>
        <mxCell id="Q57_OqPY2b1l59b12ero-226" value="AprioriResult" style="swimlane;fontStyle=1;align=center;verticalAlign=top;childLayout=stackLayout;horizontal=1;startSize=26;horizontalStack=0;resizeParent=1;resizeParentMax=0;resizeLast=0;collapsible=1;marginBottom=0;" parent="1" vertex="1">
          <mxGeometry x="1410" y="1896" width="160" height="86" as="geometry" />
        </mxCell>
        <mxCell id="Q57_OqPY2b1l59b12ero-227" value="+ sets: list&lt;string&gt;" style="text;strokeColor=none;fillColor=none;align=left;verticalAlign=top;spacingLeft=4;spacingRight=4;overflow=hidden;rotatable=0;points=[[0,0.5],[1,0.5]];portConstraint=eastwest;fontSize=16;" parent="Q57_OqPY2b1l59b12ero-226" vertex="1">
          <mxGeometry y="26" width="160" height="26" as="geometry" />
        </mxCell>
        <mxCell id="Q57_OqPY2b1l59b12ero-228" value="+ rate: float" style="text;strokeColor=none;fillColor=none;align=left;verticalAlign=top;spacingLeft=4;spacingRight=4;overflow=hidden;rotatable=0;points=[[0,0.5],[1,0.5]];portConstraint=eastwest;fontSize=16;" parent="Q57_OqPY2b1l59b12ero-226" vertex="1">
          <mxGeometry y="52" width="160" height="26" as="geometry" />
        </mxCell>
        <mxCell id="Q57_OqPY2b1l59b12ero-229" value="" style="line;strokeWidth=1;fillColor=none;align=left;verticalAlign=middle;spacingTop=-1;spacingLeft=3;spacingRight=3;rotatable=0;labelPosition=right;points=[];portConstraint=eastwest;" parent="Q57_OqPY2b1l59b12ero-226" vertex="1">
          <mxGeometry y="78" width="160" height="8" as="geometry" />
        </mxCell>
        <mxCell id="Q57_OqPY2b1l59b12ero-230" style="edgeStyle=none;rounded=0;orthogonalLoop=1;jettySize=auto;html=1;exitX=0.5;exitY=0;exitDx=0;exitDy=0;endArrow=block;endFill=0;" parent="1" source="Q57_OqPY2b1l59b12ero-231" edge="1">
          <mxGeometry relative="1" as="geometry">
            <mxPoint x="1610" y="1820" as="targetPoint" />
          </mxGeometry>
        </mxCell>
        <mxCell id="Q57_OqPY2b1l59b12ero-231" value="KmeansResult" style="swimlane;fontStyle=1;align=center;verticalAlign=top;childLayout=stackLayout;horizontal=1;startSize=26;horizontalStack=0;resizeParent=1;resizeParentMax=0;resizeLast=0;collapsible=1;marginBottom=0;" parent="1" vertex="1">
          <mxGeometry x="1650" y="1896" width="180" height="138" as="geometry" />
        </mxCell>
        <mxCell id="Q57_OqPY2b1l59b12ero-232" value="+ visitedPeriod: int" style="text;strokeColor=none;fillColor=none;align=left;verticalAlign=top;spacingLeft=4;spacingRight=4;overflow=hidden;rotatable=0;points=[[0,0.5],[1,0.5]];portConstraint=eastwest;fontSize=16;" parent="Q57_OqPY2b1l59b12ero-231" vertex="1">
          <mxGeometry y="26" width="180" height="26" as="geometry" />
        </mxCell>
        <mxCell id="Q57_OqPY2b1l59b12ero-233" value="+ visitedIp: int" style="text;strokeColor=none;fillColor=none;align=left;verticalAlign=top;spacingLeft=4;spacingRight=4;overflow=hidden;rotatable=0;points=[[0,0.5],[1,0.5]];portConstraint=eastwest;fontSize=16;" parent="Q57_OqPY2b1l59b12ero-231" vertex="1">
          <mxGeometry y="52" width="180" height="26" as="geometry" />
        </mxCell>
        <mxCell id="Q57_OqPY2b1l59b12ero-234" value="+ sourceCount: int" style="text;strokeColor=none;fillColor=none;align=left;verticalAlign=top;spacingLeft=4;spacingRight=4;overflow=hidden;rotatable=0;points=[[0,0.5],[1,0.5]];portConstraint=eastwest;fontSize=16;" parent="Q57_OqPY2b1l59b12ero-231" vertex="1">
          <mxGeometry y="78" width="180" height="26" as="geometry" />
        </mxCell>
        <mxCell id="Q57_OqPY2b1l59b12ero-235" value="+ totalCount: int" style="text;strokeColor=none;fillColor=none;align=left;verticalAlign=top;spacingLeft=4;spacingRight=4;overflow=hidden;rotatable=0;points=[[0,0.5],[1,0.5]];portConstraint=eastwest;fontSize=16;" parent="Q57_OqPY2b1l59b12ero-231" vertex="1">
          <mxGeometry y="104" width="180" height="26" as="geometry" />
        </mxCell>
        <mxCell id="Q57_OqPY2b1l59b12ero-236" value="" style="line;strokeWidth=1;fillColor=none;align=left;verticalAlign=middle;spacingTop=-1;spacingLeft=3;spacingRight=3;rotatable=0;labelPosition=right;points=[];portConstraint=eastwest;" parent="Q57_OqPY2b1l59b12ero-231" vertex="1">
          <mxGeometry y="130" width="180" height="8" as="geometry" />
        </mxCell>
        <mxCell id="Q57_OqPY2b1l59b12ero-241" value="MainController" style="swimlane;fontStyle=1;align=center;verticalAlign=top;childLayout=stackLayout;horizontal=1;startSize=26;horizontalStack=0;resizeParent=1;resizeParentMax=0;resizeLast=0;collapsible=1;marginBottom=0;" parent="1" vertex="1">
          <mxGeometry x="2220" y="1680" width="390" height="216" as="geometry" />
        </mxCell>
        <mxCell id="Q57_OqPY2b1l59b12ero-242" value="+ monitorService:MonitorService" style="text;strokeColor=none;fillColor=none;align=left;verticalAlign=top;spacingLeft=4;spacingRight=4;overflow=hidden;rotatable=0;points=[[0,0.5],[1,0.5]];portConstraint=eastwest;fontSize=16;" parent="Q57_OqPY2b1l59b12ero-241" vertex="1">
          <mxGeometry y="26" width="390" height="26" as="geometry" />
        </mxCell>
        <mxCell id="Q57_OqPY2b1l59b12ero-250" value="+ mysqlUtil: MysqlUtil" style="text;strokeColor=none;fillColor=none;align=left;verticalAlign=top;spacingLeft=4;spacingRight=4;overflow=hidden;rotatable=0;points=[[0,0.5],[1,0.5]];portConstraint=eastwest;fontSize=16;" parent="Q57_OqPY2b1l59b12ero-241" vertex="1">
          <mxGeometry y="52" width="390" height="26" as="geometry" />
        </mxCell>
        <mxCell id="Q57_OqPY2b1l59b12ero-249" value="+ esClient: ElasticSearchClient" style="text;strokeColor=none;fillColor=none;align=left;verticalAlign=top;spacingLeft=4;spacingRight=4;overflow=hidden;rotatable=0;points=[[0,0.5],[1,0.5]];portConstraint=eastwest;fontSize=16;" parent="Q57_OqPY2b1l59b12ero-241" vertex="1">
          <mxGeometry y="78" width="390" height="26" as="geometry" />
        </mxCell>
        <mxCell id="Q57_OqPY2b1l59b12ero-243" value="" style="line;strokeWidth=1;fillColor=none;align=left;verticalAlign=middle;spacingTop=-1;spacingLeft=3;spacingRight=3;rotatable=0;labelPosition=right;points=[];portConstraint=eastwest;" parent="Q57_OqPY2b1l59b12ero-241" vertex="1">
          <mxGeometry y="104" width="390" height="8" as="geometry" />
        </mxCell>
        <mxCell id="Q57_OqPY2b1l59b12ero-244" value="+ searchLog(searchRequest): Log" style="text;strokeColor=none;fillColor=none;align=left;verticalAlign=top;spacingLeft=4;spacingRight=4;overflow=hidden;rotatable=0;points=[[0,0.5],[1,0.5]];portConstraint=eastwest;fontSize=16;" parent="Q57_OqPY2b1l59b12ero-241" vertex="1">
          <mxGeometry y="112" width="390" height="26" as="geometry" />
        </mxCell>
        <mxCell id="Q57_OqPY2b1l59b12ero-251" value="+ getInterfaceMetrics(metricsRequest): list&lt;metrics&gt;" style="text;strokeColor=none;fillColor=none;align=left;verticalAlign=top;spacingLeft=4;spacingRight=4;overflow=hidden;rotatable=0;points=[[0,0.5],[1,0.5]];portConstraint=eastwest;fontSize=16;" parent="Q57_OqPY2b1l59b12ero-241" vertex="1">
          <mxGeometry y="138" width="390" height="26" as="geometry" />
        </mxCell>
        <mxCell id="Q57_OqPY2b1l59b12ero-252" value="+ sendPaincCard(painc): void" style="text;strokeColor=none;fillColor=none;align=left;verticalAlign=top;spacingLeft=4;spacingRight=4;overflow=hidden;rotatable=0;points=[[0,0.5],[1,0.5]];portConstraint=eastwest;fontSize=16;" parent="Q57_OqPY2b1l59b12ero-241" vertex="1">
          <mxGeometry y="164" width="390" height="26" as="geometry" />
        </mxCell>
        <mxCell id="Q57_OqPY2b1l59b12ero-253" value="+ getMiningResult(date:date,type:int): list&lt;Result&gt;" style="text;strokeColor=none;fillColor=none;align=left;verticalAlign=top;spacingLeft=4;spacingRight=4;overflow=hidden;rotatable=0;points=[[0,0.5],[1,0.5]];portConstraint=eastwest;fontSize=16;" parent="Q57_OqPY2b1l59b12ero-241" vertex="1">
          <mxGeometry y="190" width="390" height="26" as="geometry" />
        </mxCell>
        <mxCell id="Q57_OqPY2b1l59b12ero-254" value="MysqlUtil" style="swimlane;fontStyle=1;align=center;verticalAlign=top;childLayout=stackLayout;horizontal=1;startSize=26;horizontalStack=0;resizeParent=1;resizeParentMax=0;resizeLast=0;collapsible=1;marginBottom=0;" parent="1" vertex="1">
          <mxGeometry x="1830" y="1680" width="330" height="138" as="geometry" />
        </mxCell>
        <mxCell id="Q57_OqPY2b1l59b12ero-255" value="+ host: string" style="text;strokeColor=none;fillColor=none;align=left;verticalAlign=top;spacingLeft=4;spacingRight=4;overflow=hidden;rotatable=0;points=[[0,0.5],[1,0.5]];portConstraint=eastwest;fontSize=16;" parent="Q57_OqPY2b1l59b12ero-254" vertex="1">
          <mxGeometry y="26" width="330" height="26" as="geometry" />
        </mxCell>
        <mxCell id="Q57_OqPY2b1l59b12ero-256" value="+ username: string" style="text;strokeColor=none;fillColor=none;align=left;verticalAlign=top;spacingLeft=4;spacingRight=4;overflow=hidden;rotatable=0;points=[[0,0.5],[1,0.5]];portConstraint=eastwest;fontSize=16;" parent="Q57_OqPY2b1l59b12ero-254" vertex="1">
          <mxGeometry y="52" width="330" height="26" as="geometry" />
        </mxCell>
        <mxCell id="Q57_OqPY2b1l59b12ero-257" value="+ password: string" style="text;strokeColor=none;fillColor=none;align=left;verticalAlign=top;spacingLeft=4;spacingRight=4;overflow=hidden;rotatable=0;points=[[0,0.5],[1,0.5]];portConstraint=eastwest;fontSize=16;" parent="Q57_OqPY2b1l59b12ero-254" vertex="1">
          <mxGeometry y="78" width="330" height="26" as="geometry" />
        </mxCell>
        <mxCell id="Q57_OqPY2b1l59b12ero-258" value="" style="line;strokeWidth=1;fillColor=none;align=left;verticalAlign=middle;spacingTop=-1;spacingLeft=3;spacingRight=3;rotatable=0;labelPosition=right;points=[];portConstraint=eastwest;" parent="Q57_OqPY2b1l59b12ero-254" vertex="1">
          <mxGeometry y="104" width="330" height="8" as="geometry" />
        </mxCell>
        <mxCell id="Q57_OqPY2b1l59b12ero-259" value="+ searchResult(searchRequest):list&lt;Result&gt; " style="text;strokeColor=none;fillColor=none;align=left;verticalAlign=top;spacingLeft=4;spacingRight=4;overflow=hidden;rotatable=0;points=[[0,0.5],[1,0.5]];portConstraint=eastwest;fontSize=16;" parent="Q57_OqPY2b1l59b12ero-254" vertex="1">
          <mxGeometry y="112" width="330" height="26" as="geometry" />
        </mxCell>
        <mxCell id="Q57_OqPY2b1l59b12ero-260" style="edgeStyle=none;rounded=0;orthogonalLoop=1;jettySize=auto;html=1;exitX=1;exitY=0.5;exitDx=0;exitDy=0;entryX=0;entryY=0.5;entryDx=0;entryDy=0;endArrow=diamondThin;endFill=0;" parent="1" source="Q57_OqPY2b1l59b12ero-255" target="Q57_OqPY2b1l59b12ero-242" edge="1">
          <mxGeometry relative="1" as="geometry" />
        </mxCell>
        <mxCell id="Q57_OqPY2b1l59b12ero-279" style="edgeStyle=none;rounded=0;orthogonalLoop=1;jettySize=auto;html=1;exitX=0.5;exitY=0;exitDx=0;exitDy=0;entryX=0.48;entryY=1.077;entryDx=0;entryDy=0;entryPerimeter=0;endArrow=diamondThin;endFill=0;" parent="1" source="Q57_OqPY2b1l59b12ero-263" target="Q57_OqPY2b1l59b12ero-253" edge="1">
          <mxGeometry relative="1" as="geometry" />
        </mxCell>
        <mxCell id="Q57_OqPY2b1l59b12ero-263" value="MonitorService" style="swimlane;fontStyle=1;align=center;verticalAlign=top;childLayout=stackLayout;horizontal=1;startSize=26;horizontalStack=0;resizeParent=1;resizeParentMax=0;resizeLast=0;collapsible=1;marginBottom=0;" parent="1" vertex="1">
          <mxGeometry x="1890" y="2058.5" width="270" height="164" as="geometry" />
        </mxCell>
        <mxCell id="Q57_OqPY2b1l59b12ero-264" value="+ redisClint : RedisClint" style="text;strokeColor=none;fillColor=none;align=left;verticalAlign=top;spacingLeft=4;spacingRight=4;overflow=hidden;rotatable=0;points=[[0,0.5],[1,0.5]];portConstraint=eastwest;fontSize=16;" parent="Q57_OqPY2b1l59b12ero-263" vertex="1">
          <mxGeometry y="26" width="270" height="26" as="geometry" />
        </mxCell>
        <mxCell id="Q57_OqPY2b1l59b12ero-265" value="" style="line;strokeWidth=1;fillColor=none;align=left;verticalAlign=middle;spacingTop=-1;spacingLeft=3;spacingRight=3;rotatable=0;labelPosition=right;points=[];portConstraint=eastwest;" parent="Q57_OqPY2b1l59b12ero-263" vertex="1">
          <mxGeometry y="52" width="270" height="8" as="geometry" />
        </mxCell>
        <mxCell id="Q57_OqPY2b1l59b12ero-266" value="+ getQps(metrics): int" style="text;strokeColor=none;fillColor=none;align=left;verticalAlign=top;spacingLeft=4;spacingRight=4;overflow=hidden;rotatable=0;points=[[0,0.5],[1,0.5]];portConstraint=eastwest;fontSize=16;" parent="Q57_OqPY2b1l59b12ero-263" vertex="1">
          <mxGeometry y="60" width="270" height="26" as="geometry" />
        </mxCell>
        <mxCell id="Q57_OqPY2b1l59b12ero-277" value="+ getCallFailRate(metrics): int" style="text;strokeColor=none;fillColor=none;align=left;verticalAlign=top;spacingLeft=4;spacingRight=4;overflow=hidden;rotatable=0;points=[[0,0.5],[1,0.5]];portConstraint=eastwest;fontSize=16;" parent="Q57_OqPY2b1l59b12ero-263" vertex="1">
          <mxGeometry y="86" width="270" height="26" as="geometry" />
        </mxCell>
        <mxCell id="Q57_OqPY2b1l59b12ero-276" value="+ getCalledFailRate(metrics): int" style="text;strokeColor=none;fillColor=none;align=left;verticalAlign=top;spacingLeft=4;spacingRight=4;overflow=hidden;rotatable=0;points=[[0,0.5],[1,0.5]];portConstraint=eastwest;fontSize=16;" parent="Q57_OqPY2b1l59b12ero-263" vertex="1">
          <mxGeometry y="112" width="270" height="26" as="geometry" />
        </mxCell>
        <mxCell id="Q57_OqPY2b1l59b12ero-278" style="edgeStyle=none;rounded=0;orthogonalLoop=1;jettySize=auto;html=1;exitX=1;exitY=0.5;exitDx=0;exitDy=0;endArrow=open;endFill=0;" parent="Q57_OqPY2b1l59b12ero-263" source="Q57_OqPY2b1l59b12ero-264" target="Q57_OqPY2b1l59b12ero-264" edge="1">
          <mxGeometry relative="1" as="geometry" />
        </mxCell>
        <mxCell id="Q57_OqPY2b1l59b12ero-303" value="+ sendPanic(httpRequest): panic" style="text;strokeColor=none;fillColor=none;align=left;verticalAlign=top;spacingLeft=4;spacingRight=4;overflow=hidden;rotatable=0;points=[[0,0.5],[1,0.5]];portConstraint=eastwest;fontSize=16;" parent="Q57_OqPY2b1l59b12ero-263" vertex="1">
          <mxGeometry y="138" width="270" height="26" as="geometry" />
        </mxCell>
        <mxCell id="Q57_OqPY2b1l59b12ero-267" value="RedisClint" style="swimlane;fontStyle=1;align=center;verticalAlign=top;childLayout=stackLayout;horizontal=1;startSize=26;horizontalStack=0;resizeParent=1;resizeParentMax=0;resizeLast=0;collapsible=1;marginBottom=0;" parent="1" vertex="1">
          <mxGeometry x="1580" y="2058.5" width="250" height="138" as="geometry" />
        </mxCell>
        <mxCell id="Q57_OqPY2b1l59b12ero-268" value="+ cluster: string" style="text;strokeColor=none;fillColor=none;align=left;verticalAlign=top;spacingLeft=4;spacingRight=4;overflow=hidden;rotatable=0;points=[[0,0.5],[1,0.5]];portConstraint=eastwest;fontSize=16;" parent="Q57_OqPY2b1l59b12ero-267" vertex="1">
          <mxGeometry y="26" width="250" height="26" as="geometry" />
        </mxCell>
        <mxCell id="Q57_OqPY2b1l59b12ero-269" value="+ username: string" style="text;strokeColor=none;fillColor=none;align=left;verticalAlign=top;spacingLeft=4;spacingRight=4;overflow=hidden;rotatable=0;points=[[0,0.5],[1,0.5]];portConstraint=eastwest;fontSize=16;" parent="Q57_OqPY2b1l59b12ero-267" vertex="1">
          <mxGeometry y="52" width="250" height="26" as="geometry" />
        </mxCell>
        <mxCell id="Q57_OqPY2b1l59b12ero-270" value="+ password: string" style="text;strokeColor=none;fillColor=none;align=left;verticalAlign=top;spacingLeft=4;spacingRight=4;overflow=hidden;rotatable=0;points=[[0,0.5],[1,0.5]];portConstraint=eastwest;fontSize=16;" parent="Q57_OqPY2b1l59b12ero-267" vertex="1">
          <mxGeometry y="78" width="250" height="26" as="geometry" />
        </mxCell>
        <mxCell id="Q57_OqPY2b1l59b12ero-271" value="" style="line;strokeWidth=1;fillColor=none;align=left;verticalAlign=middle;spacingTop=-1;spacingLeft=3;spacingRight=3;rotatable=0;labelPosition=right;points=[];portConstraint=eastwest;" parent="Q57_OqPY2b1l59b12ero-267" vertex="1">
          <mxGeometry y="104" width="250" height="8" as="geometry" />
        </mxCell>
        <mxCell id="Q57_OqPY2b1l59b12ero-272" value="+ setMetrics(string,mertics):void " style="text;strokeColor=none;fillColor=none;align=left;verticalAlign=top;spacingLeft=4;spacingRight=4;overflow=hidden;rotatable=0;points=[[0,0.5],[1,0.5]];portConstraint=eastwest;fontSize=16;" parent="Q57_OqPY2b1l59b12ero-267" vertex="1">
          <mxGeometry y="112" width="250" height="26" as="geometry" />
        </mxCell>
        <mxCell id="Q57_OqPY2b1l59b12ero-273" style="edgeStyle=none;rounded=0;orthogonalLoop=1;jettySize=auto;html=1;exitX=1;exitY=0.5;exitDx=0;exitDy=0;entryX=0;entryY=0.5;entryDx=0;entryDy=0;endArrow=open;endFill=0;" parent="1" source="Q57_OqPY2b1l59b12ero-268" target="Q57_OqPY2b1l59b12ero-264" edge="1">
          <mxGeometry relative="1" as="geometry" />
        </mxCell>
        <mxCell id="Q57_OqPY2b1l59b12ero-280" style="edgeStyle=none;rounded=0;orthogonalLoop=1;jettySize=auto;html=1;exitX=0.5;exitY=0;exitDx=0;exitDy=0;endArrow=block;endFill=0;entryX=0.514;entryY=1;entryDx=0;entryDy=0;entryPerimeter=0;" parent="1" source="Q57_OqPY2b1l59b12ero-281" target="Q57_OqPY2b1l59b12ero-302" edge="1">
          <mxGeometry relative="1" as="geometry">
            <mxPoint x="2748" y="2080" as="targetPoint" />
          </mxGeometry>
        </mxCell>
        <mxCell id="Q57_OqPY2b1l59b12ero-281" value="RouterLog" style="swimlane;fontStyle=1;align=center;verticalAlign=top;childLayout=stackLayout;horizontal=1;startSize=26;horizontalStack=0;resizeParent=1;resizeParentMax=0;resizeLast=0;collapsible=1;marginBottom=0;" parent="1" vertex="1">
          <mxGeometry x="2850" y="2170" width="203" height="112" as="geometry" />
        </mxCell>
        <mxCell id="Q57_OqPY2b1l59b12ero-282" value="+ userId: string" style="text;strokeColor=none;fillColor=none;align=left;verticalAlign=top;spacingLeft=4;spacingRight=4;overflow=hidden;rotatable=0;points=[[0,0.5],[1,0.5]];portConstraint=eastwest;fontSize=16;" parent="Q57_OqPY2b1l59b12ero-281" vertex="1">
          <mxGeometry y="26" width="203" height="26" as="geometry" />
        </mxCell>
        <mxCell id="Q57_OqPY2b1l59b12ero-283" value="+ url: string" style="text;strokeColor=none;fillColor=none;align=left;verticalAlign=top;spacingLeft=4;spacingRight=4;overflow=hidden;rotatable=0;points=[[0,0.5],[1,0.5]];portConstraint=eastwest;fontSize=16;" parent="Q57_OqPY2b1l59b12ero-281" vertex="1">
          <mxGeometry y="52" width="203" height="26" as="geometry" />
        </mxCell>
        <mxCell id="Q57_OqPY2b1l59b12ero-284" value="" style="line;strokeWidth=1;fillColor=none;align=left;verticalAlign=middle;spacingTop=-1;spacingLeft=3;spacingRight=3;rotatable=0;labelPosition=right;points=[];portConstraint=eastwest;" parent="Q57_OqPY2b1l59b12ero-281" vertex="1">
          <mxGeometry y="78" width="203" height="8" as="geometry" />
        </mxCell>
        <mxCell id="Q57_OqPY2b1l59b12ero-285" value="+ Unmarshal(string): void" style="text;strokeColor=none;fillColor=none;align=left;verticalAlign=top;spacingLeft=4;spacingRight=4;overflow=hidden;rotatable=0;points=[[0,0.5],[1,0.5]];portConstraint=eastwest;fontSize=16;" parent="Q57_OqPY2b1l59b12ero-281" vertex="1">
          <mxGeometry y="86" width="203" height="26" as="geometry" />
        </mxCell>
        <mxCell id="Q57_OqPY2b1l59b12ero-286" style="rounded=0;orthogonalLoop=1;jettySize=auto;html=1;exitX=0.5;exitY=0;exitDx=0;exitDy=0;endArrow=block;endFill=0;" parent="1" source="Q57_OqPY2b1l59b12ero-287" edge="1">
          <mxGeometry relative="1" as="geometry">
            <mxPoint x="2800" y="2079" as="targetPoint" />
          </mxGeometry>
        </mxCell>
        <mxCell id="Q57_OqPY2b1l59b12ero-287" value="CommonLog" style="swimlane;fontStyle=1;align=center;verticalAlign=top;childLayout=stackLayout;horizontal=1;startSize=26;horizontalStack=0;resizeParent=1;resizeParentMax=0;resizeLast=0;collapsible=1;marginBottom=0;" parent="1" vertex="1">
          <mxGeometry x="2520" y="2170" width="193" height="242" as="geometry" />
        </mxCell>
        <mxCell id="Q57_OqPY2b1l59b12ero-288" value="+ logId: string" style="text;strokeColor=none;fillColor=none;align=left;verticalAlign=top;spacingLeft=4;spacingRight=4;overflow=hidden;rotatable=0;points=[[0,0.5],[1,0.5]];portConstraint=eastwest;fontSize=16;" parent="Q57_OqPY2b1l59b12ero-287" vertex="1">
          <mxGeometry y="26" width="193" height="26" as="geometry" />
        </mxCell>
        <mxCell id="Q57_OqPY2b1l59b12ero-289" value="+ serviceName: string" style="text;strokeColor=none;fillColor=none;align=left;verticalAlign=top;spacingLeft=4;spacingRight=4;overflow=hidden;rotatable=0;points=[[0,0.5],[1,0.5]];portConstraint=eastwest;fontSize=16;" parent="Q57_OqPY2b1l59b12ero-287" vertex="1">
          <mxGeometry y="52" width="193" height="26" as="geometry" />
        </mxCell>
        <mxCell id="Q57_OqPY2b1l59b12ero-290" value="+ callerName: string" style="text;strokeColor=none;fillColor=none;align=left;verticalAlign=top;spacingLeft=4;spacingRight=4;overflow=hidden;rotatable=0;points=[[0,0.5],[1,0.5]];portConstraint=eastwest;fontSize=16;" parent="Q57_OqPY2b1l59b12ero-287" vertex="1">
          <mxGeometry y="78" width="193" height="26" as="geometry" />
        </mxCell>
        <mxCell id="Q57_OqPY2b1l59b12ero-291" value="+ logLevel: string" style="text;strokeColor=none;fillColor=none;align=left;verticalAlign=top;spacingLeft=4;spacingRight=4;overflow=hidden;rotatable=0;points=[[0,0.5],[1,0.5]];portConstraint=eastwest;fontSize=16;" parent="Q57_OqPY2b1l59b12ero-287" vertex="1">
          <mxGeometry y="104" width="193" height="26" as="geometry" />
        </mxCell>
        <mxCell id="Q57_OqPY2b1l59b12ero-292" value="+ statusCode: int" style="text;strokeColor=none;fillColor=none;align=left;verticalAlign=top;spacingLeft=4;spacingRight=4;overflow=hidden;rotatable=0;points=[[0,0.5],[1,0.5]];portConstraint=eastwest;fontSize=16;" parent="Q57_OqPY2b1l59b12ero-287" vertex="1">
          <mxGeometry y="130" width="193" height="26" as="geometry" />
        </mxCell>
        <mxCell id="Q57_OqPY2b1l59b12ero-293" value="+ functionName: string" style="text;strokeColor=none;fillColor=none;align=left;verticalAlign=top;spacingLeft=4;spacingRight=4;overflow=hidden;rotatable=0;points=[[0,0.5],[1,0.5]];portConstraint=eastwest;fontSize=16;" parent="Q57_OqPY2b1l59b12ero-287" vertex="1">
          <mxGeometry y="156" width="193" height="26" as="geometry" />
        </mxCell>
        <mxCell id="Q57_OqPY2b1l59b12ero-294" value="+ resp: string" style="text;strokeColor=none;fillColor=none;align=left;verticalAlign=top;spacingLeft=4;spacingRight=4;overflow=hidden;rotatable=0;points=[[0,0.5],[1,0.5]];portConstraint=eastwest;fontSize=16;" parent="Q57_OqPY2b1l59b12ero-287" vertex="1">
          <mxGeometry y="182" width="193" height="26" as="geometry" />
        </mxCell>
        <mxCell id="Q57_OqPY2b1l59b12ero-295" value="" style="line;strokeWidth=1;fillColor=none;align=left;verticalAlign=middle;spacingTop=-1;spacingLeft=3;spacingRight=3;rotatable=0;labelPosition=right;points=[];portConstraint=eastwest;" parent="Q57_OqPY2b1l59b12ero-287" vertex="1">
          <mxGeometry y="208" width="193" height="8" as="geometry" />
        </mxCell>
        <mxCell id="Q57_OqPY2b1l59b12ero-296" value="+ Unmarshal(string): void" style="text;strokeColor=none;fillColor=none;align=left;verticalAlign=top;spacingLeft=4;spacingRight=4;overflow=hidden;rotatable=0;points=[[0,0.5],[1,0.5]];portConstraint=eastwest;fontSize=16;" parent="Q57_OqPY2b1l59b12ero-287" vertex="1">
          <mxGeometry y="216" width="193" height="26" as="geometry" />
        </mxCell>
        <mxCell id="Q57_OqPY2b1l59b12ero-297" value="Log" style="swimlane;fontStyle=1;align=center;verticalAlign=top;childLayout=stackLayout;horizontal=1;startSize=26;horizontalStack=0;resizeParent=1;resizeParentMax=0;resizeLast=0;collapsible=1;marginBottom=0;" parent="1" vertex="1">
          <mxGeometry x="2695" y="1940" width="210" height="138" as="geometry" />
        </mxCell>
        <mxCell id="Q57_OqPY2b1l59b12ero-298" value="+ time: timestamp" style="text;strokeColor=none;fillColor=none;align=left;verticalAlign=top;spacingLeft=4;spacingRight=4;overflow=hidden;rotatable=0;points=[[0,0.5],[1,0.5]];portConstraint=eastwest;fontSize=16;" parent="Q57_OqPY2b1l59b12ero-297" vertex="1">
          <mxGeometry y="26" width="210" height="26" as="geometry" />
        </mxCell>
        <mxCell id="Q57_OqPY2b1l59b12ero-299" value="+ ip: string" style="text;strokeColor=none;fillColor=none;align=left;verticalAlign=top;spacingLeft=4;spacingRight=4;overflow=hidden;rotatable=0;points=[[0,0.5],[1,0.5]];portConstraint=eastwest;fontSize=16;" parent="Q57_OqPY2b1l59b12ero-297" vertex="1">
          <mxGeometry y="52" width="210" height="26" as="geometry" />
        </mxCell>
        <mxCell id="Q57_OqPY2b1l59b12ero-300" value="+ reqParm: string" style="text;strokeColor=none;fillColor=none;align=left;verticalAlign=top;spacingLeft=4;spacingRight=4;overflow=hidden;rotatable=0;points=[[0,0.5],[1,0.5]];portConstraint=eastwest;fontSize=16;" parent="Q57_OqPY2b1l59b12ero-297" vertex="1">
          <mxGeometry y="78" width="210" height="26" as="geometry" />
        </mxCell>
        <mxCell id="Q57_OqPY2b1l59b12ero-301" value="" style="line;strokeWidth=1;fillColor=none;align=left;verticalAlign=middle;spacingTop=-1;spacingLeft=3;spacingRight=3;rotatable=0;labelPosition=right;points=[];portConstraint=eastwest;" parent="Q57_OqPY2b1l59b12ero-297" vertex="1">
          <mxGeometry y="104" width="210" height="8" as="geometry" />
        </mxCell>
        <mxCell id="Q57_OqPY2b1l59b12ero-302" value="+ Unmarshal(string): void" style="text;strokeColor=none;fillColor=none;align=left;verticalAlign=top;spacingLeft=4;spacingRight=4;overflow=hidden;rotatable=0;points=[[0,0.5],[1,0.5]];portConstraint=eastwest;fontSize=16;" parent="Q57_OqPY2b1l59b12ero-297" vertex="1">
          <mxGeometry y="112" width="210" height="26" as="geometry" />
        </mxCell>
        <mxCell id="Q57_OqPY2b1l59b12ero-305" value="ElasticSearchClint" style="swimlane;fontStyle=1;align=center;verticalAlign=top;childLayout=stackLayout;horizontal=1;startSize=26;horizontalStack=0;resizeParent=1;resizeParentMax=0;resizeLast=0;collapsible=1;marginBottom=0;" parent="1" vertex="1">
          <mxGeometry x="2660" y="1680" width="280" height="164" as="geometry" />
        </mxCell>
        <mxCell id="Q57_OqPY2b1l59b12ero-306" value="+ cluster: string" style="text;strokeColor=none;fillColor=none;align=left;verticalAlign=top;spacingLeft=4;spacingRight=4;overflow=hidden;rotatable=0;points=[[0,0.5],[1,0.5]];portConstraint=eastwest;fontSize=16;" parent="Q57_OqPY2b1l59b12ero-305" vertex="1">
          <mxGeometry y="26" width="280" height="26" as="geometry" />
        </mxCell>
        <mxCell id="Q57_OqPY2b1l59b12ero-307" value="+ username: string" style="text;strokeColor=none;fillColor=none;align=left;verticalAlign=top;spacingLeft=4;spacingRight=4;overflow=hidden;rotatable=0;points=[[0,0.5],[1,0.5]];portConstraint=eastwest;fontSize=16;" parent="Q57_OqPY2b1l59b12ero-305" vertex="1">
          <mxGeometry y="52" width="280" height="26" as="geometry" />
        </mxCell>
        <mxCell id="Q57_OqPY2b1l59b12ero-308" value="+ password: string" style="text;strokeColor=none;fillColor=none;align=left;verticalAlign=top;spacingLeft=4;spacingRight=4;overflow=hidden;rotatable=0;points=[[0,0.5],[1,0.5]];portConstraint=eastwest;fontSize=16;" parent="Q57_OqPY2b1l59b12ero-305" vertex="1">
          <mxGeometry y="78" width="280" height="26" as="geometry" />
        </mxCell>
        <mxCell id="Q57_OqPY2b1l59b12ero-311" value="+ index: string" style="text;strokeColor=none;fillColor=none;align=left;verticalAlign=top;spacingLeft=4;spacingRight=4;overflow=hidden;rotatable=0;points=[[0,0.5],[1,0.5]];portConstraint=eastwest;fontSize=16;" parent="Q57_OqPY2b1l59b12ero-305" vertex="1">
          <mxGeometry y="104" width="280" height="26" as="geometry" />
        </mxCell>
        <mxCell id="Q57_OqPY2b1l59b12ero-309" value="" style="line;strokeWidth=1;fillColor=none;align=left;verticalAlign=middle;spacingTop=-1;spacingLeft=3;spacingRight=3;rotatable=0;labelPosition=right;points=[];portConstraint=eastwest;" parent="Q57_OqPY2b1l59b12ero-305" vertex="1">
          <mxGeometry y="130" width="280" height="8" as="geometry" />
        </mxCell>
        <mxCell id="Q57_OqPY2b1l59b12ero-310" value="+ searchLog(esRequest):list&lt;log&gt; " style="text;strokeColor=none;fillColor=none;align=left;verticalAlign=top;spacingLeft=4;spacingRight=4;overflow=hidden;rotatable=0;points=[[0,0.5],[1,0.5]];portConstraint=eastwest;fontSize=16;" parent="Q57_OqPY2b1l59b12ero-305" vertex="1">
          <mxGeometry y="138" width="280" height="26" as="geometry" />
        </mxCell>
        <mxCell id="Q57_OqPY2b1l59b12ero-313" style="edgeStyle=none;rounded=0;orthogonalLoop=1;jettySize=auto;html=1;exitX=0;exitY=0.5;exitDx=0;exitDy=0;entryX=1;entryY=0.5;entryDx=0;entryDy=0;endArrow=diamondThin;endFill=0;" parent="1" source="Q57_OqPY2b1l59b12ero-306" target="Q57_OqPY2b1l59b12ero-242" edge="1">
          <mxGeometry relative="1" as="geometry" />
        </mxCell>
        <mxCell id="Q57_OqPY2b1l59b12ero-316" value="" style="shape=umlLifeline;participant=umlActor;perimeter=lifelinePerimeter;whiteSpace=wrap;html=1;container=1;collapsible=0;recursiveResize=0;verticalAlign=top;spacingTop=36;outlineConnect=0;" parent="1" vertex="1">
          <mxGeometry x="-1380" y="70" width="20" height="930" as="geometry" />
        </mxCell>
        <mxCell id="Q57_OqPY2b1l59b12ero-317" value="" style="html=1;points=[];perimeter=orthogonalPerimeter;" parent="Q57_OqPY2b1l59b12ero-316" vertex="1">
          <mxGeometry x="5" y="70" width="10" height="830" as="geometry" />
        </mxCell>
        <mxCell id="Q57_OqPY2b1l59b12ero-318" value="平台管理员" style="text;html=1;align=center;verticalAlign=middle;resizable=0;points=[];autosize=1;strokeColor=none;" parent="1" vertex="1">
          <mxGeometry x="-1410" y="40" width="80" height="20" as="geometry" />
        </mxCell>
        <mxCell id="Q57_OqPY2b1l59b12ero-319" value="MainController" style="shape=umlLifeline;perimeter=lifelinePerimeter;whiteSpace=wrap;html=1;container=1;collapsible=0;recursiveResize=0;outlineConnect=0;" parent="1" vertex="1">
          <mxGeometry x="-1280" y="60" width="100" height="930" as="geometry" />
        </mxCell>
        <mxCell id="Q57_OqPY2b1l59b12ero-321" value="MonitorService" style="shape=umlLifeline;perimeter=lifelinePerimeter;whiteSpace=wrap;html=1;container=1;collapsible=0;recursiveResize=0;outlineConnect=0;" parent="1" vertex="1">
          <mxGeometry x="-1125" y="60" width="110" height="930" as="geometry" />
        </mxCell>
        <mxCell id="Q57_OqPY2b1l59b12ero-370" value="Loop" style="shape=umlFrame;whiteSpace=wrap;html=1;" parent="Q57_OqPY2b1l59b12ero-321" vertex="1">
          <mxGeometry x="-35" y="640" width="690" height="70" as="geometry" />
        </mxCell>
        <mxCell id="Q57_OqPY2b1l59b12ero-322" value="MysqlUtil" style="shape=umlLifeline;perimeter=lifelinePerimeter;whiteSpace=wrap;html=1;container=1;collapsible=0;recursiveResize=0;outlineConnect=0;" parent="1" vertex="1">
          <mxGeometry x="-940" y="60" width="100" height="930" as="geometry" />
        </mxCell>
        <mxCell id="Q57_OqPY2b1l59b12ero-323" value="ElasticsearchClient" style="shape=umlLifeline;perimeter=lifelinePerimeter;whiteSpace=wrap;html=1;container=1;collapsible=0;recursiveResize=0;outlineConnect=0;" parent="1" vertex="1">
          <mxGeometry x="-740" y="60" width="110" height="930" as="geometry" />
        </mxCell>
        <mxCell id="Q57_OqPY2b1l59b12ero-324" value="" style="endArrow=block;html=1;endFill=1;" parent="1" target="Q57_OqPY2b1l59b12ero-319" edge="1">
          <mxGeometry width="50" height="50" relative="1" as="geometry">
            <mxPoint x="-1364" y="160" as="sourcePoint" />
            <mxPoint x="-1314" y="110" as="targetPoint" />
          </mxGeometry>
        </mxCell>
        <mxCell id="Q57_OqPY2b1l59b12ero-325" value="日志搜索请求" style="text;html=1;align=center;verticalAlign=middle;resizable=0;points=[];autosize=1;strokeColor=none;" parent="1" vertex="1">
          <mxGeometry x="-1355" y="140" width="90" height="20" as="geometry" />
        </mxCell>
        <mxCell id="Q57_OqPY2b1l59b12ero-327" value="传递参数" style="text;html=1;align=center;verticalAlign=middle;resizable=0;points=[];autosize=1;strokeColor=none;" parent="1" vertex="1">
          <mxGeometry x="-1090" y="170" width="60" height="20" as="geometry" />
        </mxCell>
        <mxCell id="Q57_OqPY2b1l59b12ero-328" value="RedisClient" style="shape=umlLifeline;perimeter=lifelinePerimeter;whiteSpace=wrap;html=1;container=1;collapsible=0;recursiveResize=0;outlineConnect=0;" parent="1" vertex="1">
          <mxGeometry x="-560" y="60" width="110" height="930" as="geometry" />
        </mxCell>
        <mxCell id="Q57_OqPY2b1l59b12ero-329" value="解析参数并转换成&lt;br&gt;esRequest" style="edgeStyle=orthogonalEdgeStyle;html=1;align=left;spacingLeft=2;endArrow=block;rounded=0;" parent="1" edge="1">
          <mxGeometry relative="1" as="geometry">
            <mxPoint x="-1225" y="179.94" as="sourcePoint" />
            <Array as="points">
              <mxPoint x="-1180" y="179.94" />
              <mxPoint x="-1180" y="209.94" />
              <mxPoint x="-1224" y="209.94" />
            </Array>
            <mxPoint x="-1224" y="209.94" as="targetPoint" />
          </mxGeometry>
        </mxCell>
        <mxCell id="Q57_OqPY2b1l59b12ero-331" value="" style="endArrow=block;html=1;endFill=1;entryX=-0.088;entryY=0.274;entryDx=0;entryDy=0;entryPerimeter=0;" parent="1" target="Q57_OqPY2b1l59b12ero-359" edge="1">
          <mxGeometry width="50" height="50" relative="1" as="geometry">
            <mxPoint x="-1225" y="232" as="sourcePoint" />
            <mxPoint x="-1096.5" y="232" as="targetPoint" />
          </mxGeometry>
        </mxCell>
        <mxCell id="Q57_OqPY2b1l59b12ero-333" value="查询ElasticSearch" style="text;html=1;align=center;verticalAlign=middle;resizable=0;points=[];autosize=1;strokeColor=none;" parent="1" vertex="1">
          <mxGeometry x="-1015" y="210" width="110" height="20" as="geometry" />
        </mxCell>
        <mxCell id="Q57_OqPY2b1l59b12ero-334" value="" style="endArrow=block;html=1;endFill=1;" parent="1" edge="1">
          <mxGeometry width="50" height="50" relative="1" as="geometry">
            <mxPoint x="-685" y="265" as="sourcePoint" />
            <mxPoint x="-1224" y="265" as="targetPoint" />
          </mxGeometry>
        </mxCell>
        <mxCell id="Q57_OqPY2b1l59b12ero-335" value="返回日志结果" style="text;html=1;align=center;verticalAlign=middle;resizable=0;points=[];autosize=1;strokeColor=none;" parent="1" vertex="1">
          <mxGeometry x="-1005" y="240" width="90" height="20" as="geometry" />
        </mxCell>
        <mxCell id="Q57_OqPY2b1l59b12ero-336" value="" style="endArrow=block;html=1;endFill=1;" parent="1" edge="1">
          <mxGeometry width="50" height="50" relative="1" as="geometry">
            <mxPoint x="-1230" y="285" as="sourcePoint" />
            <mxPoint x="-1365" y="285" as="targetPoint" />
          </mxGeometry>
        </mxCell>
        <mxCell id="Q57_OqPY2b1l59b12ero-337" value="展示给用户搜索结果" style="text;html=1;align=center;verticalAlign=middle;resizable=0;points=[];autosize=1;strokeColor=none;" parent="1" vertex="1">
          <mxGeometry x="-1355" y="260" width="120" height="20" as="geometry" />
        </mxCell>
        <mxCell id="Q57_OqPY2b1l59b12ero-339" value="" style="endArrow=block;html=1;endFill=1;" parent="1" edge="1">
          <mxGeometry width="50" height="50" relative="1" as="geometry">
            <mxPoint x="-1365" y="330" as="sourcePoint" />
            <mxPoint x="-1235" y="330" as="targetPoint" />
          </mxGeometry>
        </mxCell>
        <mxCell id="Q57_OqPY2b1l59b12ero-340" value="查看数据挖掘结果" style="text;html=1;align=center;verticalAlign=middle;resizable=0;points=[];autosize=1;strokeColor=none;" parent="1" vertex="1">
          <mxGeometry x="-1355" y="300" width="110" height="20" as="geometry" />
        </mxCell>
        <mxCell id="Q57_OqPY2b1l59b12ero-341" value="解析参数并转换成&lt;br&gt;searchRequest" style="edgeStyle=orthogonalEdgeStyle;html=1;align=left;spacingLeft=2;endArrow=block;rounded=0;" parent="1" edge="1">
          <mxGeometry relative="1" as="geometry">
            <mxPoint x="-1225" y="350" as="sourcePoint" />
            <Array as="points">
              <mxPoint x="-1180" y="350" />
              <mxPoint x="-1180" y="380" />
              <mxPoint x="-1224" y="380" />
            </Array>
            <mxPoint x="-1224" y="380" as="targetPoint" />
          </mxGeometry>
        </mxCell>
        <mxCell id="Q57_OqPY2b1l59b12ero-342" value="" style="html=1;points=[];perimeter=orthogonalPerimeter;" parent="1" vertex="1">
          <mxGeometry x="-1235" y="140" width="10" height="840" as="geometry" />
        </mxCell>
        <mxCell id="Q57_OqPY2b1l59b12ero-343" value="" style="endArrow=block;html=1;endFill=1;" parent="1" edge="1">
          <mxGeometry width="50" height="50" relative="1" as="geometry">
            <mxPoint x="-1225" y="410" as="sourcePoint" />
            <mxPoint x="-895" y="410" as="targetPoint" />
          </mxGeometry>
        </mxCell>
        <mxCell id="Q57_OqPY2b1l59b12ero-344" value="查询Mysql" style="text;html=1;align=center;verticalAlign=middle;resizable=0;points=[];autosize=1;strokeColor=none;" parent="1" vertex="1">
          <mxGeometry x="-1095" y="390" width="70" height="20" as="geometry" />
        </mxCell>
        <mxCell id="Q57_OqPY2b1l59b12ero-345" value="" style="endArrow=block;html=1;endFill=1;" parent="1" edge="1">
          <mxGeometry width="50" height="50" relative="1" as="geometry">
            <mxPoint x="-891.1800000000001" y="450" as="sourcePoint" />
            <mxPoint x="-1225" y="448" as="targetPoint" />
          </mxGeometry>
        </mxCell>
        <mxCell id="Q57_OqPY2b1l59b12ero-346" value="返回数据挖掘结果" style="text;html=1;align=center;verticalAlign=middle;resizable=0;points=[];autosize=1;strokeColor=none;" parent="1" vertex="1">
          <mxGeometry x="-1065" y="430" width="110" height="20" as="geometry" />
        </mxCell>
        <mxCell id="Q57_OqPY2b1l59b12ero-347" value="根据数据挖掘类型&lt;br&gt;封装相应结果类型" style="edgeStyle=orthogonalEdgeStyle;html=1;align=left;spacingLeft=2;endArrow=block;rounded=0;" parent="1" edge="1">
          <mxGeometry relative="1" as="geometry">
            <mxPoint x="-1225.06" y="469.94" as="sourcePoint" />
            <Array as="points">
              <mxPoint x="-1180.06" y="469.94" />
              <mxPoint x="-1180.06" y="499.94" />
              <mxPoint x="-1224.06" y="499.94" />
            </Array>
            <mxPoint x="-1224.06" y="499.94" as="targetPoint" />
          </mxGeometry>
        </mxCell>
        <mxCell id="Q57_OqPY2b1l59b12ero-348" value="" style="endArrow=block;html=1;endFill=1;" parent="1" edge="1">
          <mxGeometry width="50" height="50" relative="1" as="geometry">
            <mxPoint x="-1235" y="526" as="sourcePoint" />
            <mxPoint x="-1365" y="526" as="targetPoint" />
          </mxGeometry>
        </mxCell>
        <mxCell id="Q57_OqPY2b1l59b12ero-349" value="展示给用户搜索结果" style="text;html=1;align=center;verticalAlign=middle;resizable=0;points=[];autosize=1;strokeColor=none;" parent="1" vertex="1">
          <mxGeometry x="-1355" y="506" width="120" height="20" as="geometry" />
        </mxCell>
        <mxCell id="Q57_OqPY2b1l59b12ero-350" value="" style="endArrow=block;html=1;endFill=1;" parent="1" edge="1">
          <mxGeometry width="50" height="50" relative="1" as="geometry">
            <mxPoint x="-1365" y="580" as="sourcePoint" />
            <mxPoint x="-1235" y="580" as="targetPoint" />
          </mxGeometry>
        </mxCell>
        <mxCell id="Q57_OqPY2b1l59b12ero-351" value="查看接口运行情况" style="text;html=1;align=center;verticalAlign=middle;resizable=0;points=[];autosize=1;strokeColor=none;" parent="1" vertex="1">
          <mxGeometry x="-1365" y="560" width="110" height="20" as="geometry" />
        </mxCell>
        <mxCell id="Q57_OqPY2b1l59b12ero-353" value="" style="html=1;points=[];perimeter=orthogonalPerimeter;" parent="1" vertex="1">
          <mxGeometry x="-1075" y="520" width="10" height="450" as="geometry" />
        </mxCell>
        <mxCell id="Q57_OqPY2b1l59b12ero-355" value="" style="endArrow=block;html=1;endFill=1;" parent="1" edge="1">
          <mxGeometry width="50" height="50" relative="1" as="geometry">
            <mxPoint x="-1225" y="606" as="sourcePoint" />
            <mxPoint x="-1075" y="606" as="targetPoint" />
          </mxGeometry>
        </mxCell>
        <mxCell id="Q57_OqPY2b1l59b12ero-357" value="请求转发" style="text;html=1;align=center;verticalAlign=middle;resizable=0;points=[];autosize=1;strokeColor=none;" parent="1" vertex="1">
          <mxGeometry x="-1180" y="580" width="60" height="20" as="geometry" />
        </mxCell>
        <mxCell id="Q57_OqPY2b1l59b12ero-358" value="" style="html=1;points=[];perimeter=orthogonalPerimeter;" parent="1" vertex="1">
          <mxGeometry x="-895" y="380" width="10" height="100" as="geometry" />
        </mxCell>
        <mxCell id="Q57_OqPY2b1l59b12ero-359" value="" style="html=1;points=[];perimeter=orthogonalPerimeter;" parent="1" vertex="1">
          <mxGeometry x="-690" y="210" width="10" height="80" as="geometry" />
        </mxCell>
        <mxCell id="Q57_OqPY2b1l59b12ero-360" value="" style="html=1;points=[];perimeter=orthogonalPerimeter;" parent="1" vertex="1">
          <mxGeometry x="-510" y="560" width="10" height="310" as="geometry" />
        </mxCell>
        <mxCell id="Q57_OqPY2b1l59b12ero-361" value="" style="endArrow=block;html=1;endFill=1;" parent="1" edge="1">
          <mxGeometry width="50" height="50" relative="1" as="geometry">
            <mxPoint x="-1065" y="630.0799999999999" as="sourcePoint" />
            <mxPoint x="-516" y="630" as="targetPoint" />
          </mxGeometry>
        </mxCell>
        <mxCell id="Q57_OqPY2b1l59b12ero-362" value="获取对应的metrics信息" style="text;html=1;align=center;verticalAlign=middle;resizable=0;points=[];autosize=1;strokeColor=none;" parent="1" vertex="1">
          <mxGeometry x="-880" y="610" width="140" height="20" as="geometry" />
        </mxCell>
        <mxCell id="Q57_OqPY2b1l59b12ero-363" value="" style="endArrow=block;html=1;endFill=1;" parent="1" edge="1">
          <mxGeometry width="50" height="50" relative="1" as="geometry">
            <mxPoint x="-510" y="669.9999999999999" as="sourcePoint" />
            <mxPoint x="-1065" y="671" as="targetPoint" />
          </mxGeometry>
        </mxCell>
        <mxCell id="Q57_OqPY2b1l59b12ero-364" value="返回对应metrics" style="text;html=1;align=center;verticalAlign=middle;resizable=0;points=[];autosize=1;strokeColor=none;" parent="1" vertex="1">
          <mxGeometry x="-870" y="650" width="100" height="20" as="geometry" />
        </mxCell>
        <mxCell id="Q57_OqPY2b1l59b12ero-365" value="" style="endArrow=block;html=1;endFill=1;entryX=0.029;entryY=0.393;entryDx=0;entryDy=0;entryPerimeter=0;" parent="1" edge="1">
          <mxGeometry width="50" height="50" relative="1" as="geometry">
            <mxPoint x="-1065" y="718.8199999999999" as="sourcePoint" />
            <mxPoint x="-510" y="718.8199999999999" as="targetPoint" />
          </mxGeometry>
        </mxCell>
        <mxCell id="Q57_OqPY2b1l59b12ero-366" value="拉取最新的metrics信息" style="text;html=1;align=center;verticalAlign=middle;resizable=0;points=[];autosize=1;strokeColor=none;" parent="1" vertex="1">
          <mxGeometry x="-880" y="700" width="140" height="20" as="geometry" />
        </mxCell>
        <mxCell id="Q57_OqPY2b1l59b12ero-367" value="" style="endArrow=block;html=1;endFill=1;" parent="1" edge="1">
          <mxGeometry width="50" height="50" relative="1" as="geometry">
            <mxPoint x="-510" y="750" as="sourcePoint" />
            <mxPoint x="-1065" y="751" as="targetPoint" />
          </mxGeometry>
        </mxCell>
        <mxCell id="Q57_OqPY2b1l59b12ero-368" value="返回对应metrics" style="text;html=1;align=center;verticalAlign=middle;resizable=0;points=[];autosize=1;strokeColor=none;" parent="1" vertex="1">
          <mxGeometry x="-870" y="730" width="100" height="20" as="geometry" />
        </mxCell>
        <mxCell id="Q57_OqPY2b1l59b12ero-371" value="" style="endArrow=block;html=1;endFill=1;" parent="1" edge="1">
          <mxGeometry width="50" height="50" relative="1" as="geometry">
            <mxPoint x="-1075" y="800" as="sourcePoint" />
            <mxPoint x="-1225" y="801" as="targetPoint" />
          </mxGeometry>
        </mxCell>
        <mxCell id="Q57_OqPY2b1l59b12ero-372" value="返回接口运行情况指标" style="text;html=1;align=center;verticalAlign=middle;resizable=0;points=[];autosize=1;strokeColor=none;" parent="1" vertex="1">
          <mxGeometry x="-1230" y="780" width="140" height="20" as="geometry" />
        </mxCell>
        <mxCell id="Q57_OqPY2b1l59b12ero-373" value="" style="endArrow=block;html=1;endFill=1;" parent="1" edge="1">
          <mxGeometry width="50" height="50" relative="1" as="geometry">
            <mxPoint x="-1235" y="820" as="sourcePoint" />
            <mxPoint x="-1365" y="820" as="targetPoint" />
          </mxGeometry>
        </mxCell>
        <mxCell id="Q57_OqPY2b1l59b12ero-375" value="绘制图标进行展示" style="text;html=1;align=center;verticalAlign=middle;resizable=0;points=[];autosize=1;strokeColor=none;" parent="1" vertex="1">
          <mxGeometry x="-1355" y="800" width="110" height="20" as="geometry" />
        </mxCell>
        <mxCell id="Q57_OqPY2b1l59b12ero-376" value="实时监控预警" style="shape=umlLifeline;perimeter=lifelinePerimeter;whiteSpace=wrap;html=1;container=1;collapsible=0;recursiveResize=0;outlineConnect=0;" parent="1" vertex="1">
          <mxGeometry x="-380" y="60" width="100" height="930" as="geometry" />
        </mxCell>
        <mxCell id="Q57_OqPY2b1l59b12ero-377" value="" style="html=1;points=[];perimeter=orthogonalPerimeter;" parent="1" vertex="1">
          <mxGeometry x="-335" y="840" width="10" height="20" as="geometry" />
        </mxCell>
        <mxCell id="Q57_OqPY2b1l59b12ero-378" value="" style="endArrow=block;html=1;endFill=1;" parent="1" edge="1">
          <mxGeometry width="50" height="50" relative="1" as="geometry">
            <mxPoint x="-336" y="847" as="sourcePoint" />
            <mxPoint x="-1064" y="847" as="targetPoint" />
          </mxGeometry>
        </mxCell>
        <mxCell id="Q57_OqPY2b1l59b12ero-379" value="检测到异常访问" style="text;html=1;align=center;verticalAlign=middle;resizable=0;points=[];autosize=1;strokeColor=none;" parent="1" vertex="1">
          <mxGeometry x="-810" y="830" width="100" height="20" as="geometry" />
        </mxCell>
        <mxCell id="Q57_OqPY2b1l59b12ero-380" value="将请求解析成panic结构体" style="edgeStyle=orthogonalEdgeStyle;html=1;align=left;spacingLeft=2;endArrow=block;rounded=0;" parent="1" edge="1">
          <mxGeometry relative="1" as="geometry">
            <mxPoint x="-1065" y="855" as="sourcePoint" />
            <Array as="points">
              <mxPoint x="-1020" y="855" />
              <mxPoint x="-1020" y="885" />
              <mxPoint x="-1064" y="885" />
            </Array>
            <mxPoint x="-1064" y="885" as="targetPoint" />
          </mxGeometry>
        </mxCell>
        <mxCell id="Q57_OqPY2b1l59b12ero-382" value="" style="endArrow=block;html=1;endFill=1;" parent="1" edge="1">
          <mxGeometry width="50" height="50" relative="1" as="geometry">
            <mxPoint x="-1075" y="900" as="sourcePoint" />
            <mxPoint x="-1225" y="901" as="targetPoint" />
          </mxGeometry>
        </mxCell>
        <mxCell id="Q57_OqPY2b1l59b12ero-384" value="发送Socket请求" style="text;html=1;align=center;verticalAlign=middle;resizable=0;points=[];autosize=1;strokeColor=none;" parent="1" vertex="1">
          <mxGeometry x="-1200" y="880" width="100" height="20" as="geometry" />
        </mxCell>
        <mxCell id="Q57_OqPY2b1l59b12ero-386" value="" style="endArrow=block;html=1;endFill=1;" parent="1" edge="1">
          <mxGeometry width="50" height="50" relative="1" as="geometry">
            <mxPoint x="-1235" y="920" as="sourcePoint" />
            <mxPoint x="-1365" y="920" as="targetPoint" />
          </mxGeometry>
        </mxCell>
        <mxCell id="Q57_OqPY2b1l59b12ero-388" value="触发弹窗通知用户" style="text;html=1;align=center;verticalAlign=middle;resizable=0;points=[];autosize=1;strokeColor=none;" parent="1" vertex="1">
          <mxGeometry x="-1355" y="900" width="110" height="20" as="geometry" />
        </mxCell>
        <mxCell id="gg8FVpKPNv8x14Igiipq-1" style="edgeStyle=orthogonalEdgeStyle;rounded=0;orthogonalLoop=1;jettySize=auto;html=1;exitX=0;exitY=0.5;exitDx=0;exitDy=0;entryX=1;entryY=0.5;entryDx=0;entryDy=0;dashed=1;" edge="1" parent="1" source="Q57_OqPY2b1l59b12ero-41" target="Q57_OqPY2b1l59b12ero-21">
          <mxGeometry relative="1" as="geometry" />
        </mxCell>
        <mxCell id="gg8FVpKPNv8x14Igiipq-2" style="edgeStyle=orthogonalEdgeStyle;rounded=0;orthogonalLoop=1;jettySize=auto;html=1;exitX=1;exitY=0.5;exitDx=0;exitDy=0;entryX=0;entryY=0.5;entryDx=0;entryDy=0;dashed=1;" edge="1" parent="1" source="Q57_OqPY2b1l59b12ero-116" target="Q57_OqPY2b1l59b12ero-56">
          <mxGeometry relative="1" as="geometry" />
        </mxCell>
        <mxCell id="gg8FVpKPNv8x14Igiipq-3" style="edgeStyle=orthogonalEdgeStyle;rounded=0;orthogonalLoop=1;jettySize=auto;html=1;exitX=0;exitY=0.5;exitDx=0;exitDy=0;entryX=1;entryY=0.5;entryDx=0;entryDy=0;dashed=1;" edge="1" parent="1" source="Q57_OqPY2b1l59b12ero-101" target="Q57_OqPY2b1l59b12ero-95">
          <mxGeometry relative="1" as="geometry" />
        </mxCell>
        <mxCell id="gg8FVpKPNv8x14Igiipq-4" style="edgeStyle=orthogonalEdgeStyle;rounded=0;orthogonalLoop=1;jettySize=auto;html=1;exitX=0;exitY=0.5;exitDx=0;exitDy=0;dashed=1;" edge="1" parent="1" source="Q57_OqPY2b1l59b12ero-132" target="Q57_OqPY2b1l59b12ero-141">
          <mxGeometry relative="1" as="geometry" />
        </mxCell>
        <mxCell id="gg8FVpKPNv8x14Igiipq-5" style="edgeStyle=orthogonalEdgeStyle;rounded=0;orthogonalLoop=1;jettySize=auto;html=1;exitX=0;exitY=0.5;exitDx=0;exitDy=0;dashed=1;" edge="1" parent="1" source="Q57_OqPY2b1l59b12ero-139" target="Q57_OqPY2b1l59b12ero-171">
          <mxGeometry relative="1" as="geometry" />
        </mxCell>
        <mxCell id="gg8FVpKPNv8x14Igiipq-6" style="edgeStyle=orthogonalEdgeStyle;rounded=0;orthogonalLoop=1;jettySize=auto;html=1;exitX=0;exitY=0.5;exitDx=0;exitDy=0;entryX=1;entryY=0.154;entryDx=0;entryDy=0;entryPerimeter=0;dashed=1;" edge="1" parent="1" source="Q57_OqPY2b1l59b12ero-156" target="Q57_OqPY2b1l59b12ero-148">
          <mxGeometry relative="1" as="geometry" />
        </mxCell>
        <mxCell id="gg8FVpKPNv8x14Igiipq-7" style="edgeStyle=orthogonalEdgeStyle;rounded=0;orthogonalLoop=1;jettySize=auto;html=1;exitX=0;exitY=0.5;exitDx=0;exitDy=0;entryX=1;entryY=0.5;entryDx=0;entryDy=0;dashed=1;" edge="1" parent="1" source="Q57_OqPY2b1l59b12ero-256" target="Q57_OqPY2b1l59b12ero-221">
          <mxGeometry relative="1" as="geometry" />
        </mxCell>
        <mxCell id="gg8FVpKPNv8x14Igiipq-8" style="edgeStyle=orthogonalEdgeStyle;rounded=0;orthogonalLoop=1;jettySize=auto;html=1;exitX=0;exitY=0.5;exitDx=0;exitDy=0;entryX=0;entryY=0.1;entryDx=0;entryDy=0;entryPerimeter=0;dashed=1;" edge="1" parent="1" source="Q57_OqPY2b1l59b12ero-272" target="Q57_OqPY2b1l59b12ero-180">
          <mxGeometry relative="1" as="geometry" />
        </mxCell>
        <mxCell id="gg8FVpKPNv8x14Igiipq-9" style="edgeStyle=orthogonalEdgeStyle;rounded=0;orthogonalLoop=1;jettySize=auto;html=1;exitX=1;exitY=0.5;exitDx=0;exitDy=0;entryX=1;entryY=0.074;entryDx=0;entryDy=0;entryPerimeter=0;dashed=1;" edge="1" parent="1" source="Q57_OqPY2b1l59b12ero-303" target="Q57_OqPY2b1l59b12ero-188">
          <mxGeometry relative="1" as="geometry" />
        </mxCell>
        <mxCell id="gg8FVpKPNv8x14Igiipq-10" style="edgeStyle=orthogonalEdgeStyle;rounded=0;orthogonalLoop=1;jettySize=auto;html=1;exitX=1;exitY=0.5;exitDx=0;exitDy=0;dashed=1;" edge="1" parent="1" source="Q57_OqPY2b1l59b12ero-310" target="Q57_OqPY2b1l59b12ero-297">
          <mxGeometry relative="1" as="geometry" />
        </mxCell>
      </root>
    </mxGraphModel>
  </diagram>
  <diagram id="GkOoM5hEGslWJ_KlVzg8" name="Page-2">
    <mxGraphModel dx="1538" dy="2003" grid="1" gridSize="10" guides="1" tooltips="1" connect="1" arrows="1" fold="1" page="1" pageScale="1" pageWidth="827" pageHeight="1169" math="0" shadow="0">
      <root>
        <mxCell id="-BnxETSJDraIW2WkJ2EH-0" />
        <mxCell id="-BnxETSJDraIW2WkJ2EH-1" parent="-BnxETSJDraIW2WkJ2EH-0" />
        <mxCell id="-BnxETSJDraIW2WkJ2EH-75" value="" style="rounded=0;whiteSpace=wrap;html=1;fontSize=16;strokeWidth=2;" vertex="1" parent="-BnxETSJDraIW2WkJ2EH-1">
          <mxGeometry x="110" width="1490" height="730" as="geometry" />
        </mxCell>
        <mxCell id="-BnxETSJDraIW2WkJ2EH-66" value="1" style="edgeStyle=none;rounded=0;orthogonalLoop=1;jettySize=auto;html=1;exitX=0.5;exitY=1;exitDx=0;exitDy=0;entryX=0.5;entryY=0;entryDx=0;entryDy=0;fontSize=16;" edge="1" parent="-BnxETSJDraIW2WkJ2EH-1" source="-BnxETSJDraIW2WkJ2EH-2" target="-BnxETSJDraIW2WkJ2EH-65">
          <mxGeometry relative="1" as="geometry" />
        </mxCell>
        <mxCell id="-BnxETSJDraIW2WkJ2EH-2" value="站点间关联关系" style="rounded=0;whiteSpace=wrap;html=1;fontSize=16;strokeWidth=2;" vertex="1" parent="-BnxETSJDraIW2WkJ2EH-1">
          <mxGeometry x="265" y="170" width="120" height="60" as="geometry" />
        </mxCell>
        <mxCell id="-BnxETSJDraIW2WkJ2EH-70" value="1" style="edgeStyle=none;rounded=0;orthogonalLoop=1;jettySize=auto;html=1;exitX=0.5;exitY=1;exitDx=0;exitDy=0;entryX=0.5;entryY=0;entryDx=0;entryDy=0;fontSize=16;" edge="1" parent="-BnxETSJDraIW2WkJ2EH-1" source="-BnxETSJDraIW2WkJ2EH-3" target="-BnxETSJDraIW2WkJ2EH-68">
          <mxGeometry relative="1" as="geometry" />
        </mxCell>
        <mxCell id="-BnxETSJDraIW2WkJ2EH-3" value="&lt;span style=&quot;font-size: 10.5pt&quot;&gt;用户访问行为&lt;/span&gt;&lt;span style=&quot;font-size: medium&quot;&gt;&lt;/span&gt;" style="rounded=0;whiteSpace=wrap;html=1;fontSize=16;strokeWidth=2;" vertex="1" parent="-BnxETSJDraIW2WkJ2EH-1">
          <mxGeometry x="775" y="170" width="120" height="60" as="geometry" />
        </mxCell>
        <mxCell id="-BnxETSJDraIW2WkJ2EH-73" value="n" style="edgeStyle=none;rounded=0;orthogonalLoop=1;jettySize=auto;html=1;exitX=0.5;exitY=1;exitDx=0;exitDy=0;entryX=0.5;entryY=0;entryDx=0;entryDy=0;fontSize=16;" edge="1" parent="-BnxETSJDraIW2WkJ2EH-1" source="-BnxETSJDraIW2WkJ2EH-4" target="-BnxETSJDraIW2WkJ2EH-72">
          <mxGeometry relative="1" as="geometry" />
        </mxCell>
        <mxCell id="-BnxETSJDraIW2WkJ2EH-4" value="&lt;span style=&quot;font-size: 10.5pt&quot;&gt;异常访问行文&lt;/span&gt;&lt;span style=&quot;font-size: medium&quot;&gt;&lt;/span&gt;" style="rounded=0;whiteSpace=wrap;html=1;fontSize=16;strokeWidth=2;" vertex="1" parent="-BnxETSJDraIW2WkJ2EH-1">
          <mxGeometry x="1280" y="170" width="120" height="60" as="geometry" />
        </mxCell>
        <mxCell id="-BnxETSJDraIW2WkJ2EH-5" value="&lt;span lang=&quot;EN-US&quot; style=&quot;font-size: 10.5pt&quot;&gt;Router&lt;/span&gt;&lt;span style=&quot;font-size: 10.5pt&quot;&gt;层日志&lt;/span&gt;&lt;span style=&quot;font-size: medium&quot;&gt;&lt;/span&gt;" style="rounded=0;whiteSpace=wrap;html=1;fontSize=16;strokeWidth=2;" vertex="1" parent="-BnxETSJDraIW2WkJ2EH-1">
          <mxGeometry x="510" y="490" width="120" height="60" as="geometry" />
        </mxCell>
        <mxCell id="-BnxETSJDraIW2WkJ2EH-6" value="&lt;span style=&quot;font-size: 10.5pt&quot;&gt;代码内部日志&lt;/span&gt;&lt;span style=&quot;font-size: medium&quot;&gt;&lt;/span&gt;" style="rounded=0;whiteSpace=wrap;html=1;fontSize=16;strokeWidth=2;" vertex="1" parent="-BnxETSJDraIW2WkJ2EH-1">
          <mxGeometry x="1140" y="490" width="120" height="60" as="geometry" />
        </mxCell>
        <mxCell id="-BnxETSJDraIW2WkJ2EH-32" style="rounded=0;orthogonalLoop=1;jettySize=auto;html=1;exitX=0.5;exitY=1;exitDx=0;exitDy=0;entryX=0.5;entryY=0;entryDx=0;entryDy=0;fontSize=16;" edge="1" parent="-BnxETSJDraIW2WkJ2EH-1" source="-BnxETSJDraIW2WkJ2EH-7" target="-BnxETSJDraIW2WkJ2EH-2">
          <mxGeometry relative="1" as="geometry" />
        </mxCell>
        <mxCell id="-BnxETSJDraIW2WkJ2EH-7" value="日期" style="ellipse;whiteSpace=wrap;html=1;fontSize=16;strokeWidth=2;" vertex="1" parent="-BnxETSJDraIW2WkJ2EH-1">
          <mxGeometry x="130" y="40" width="90" height="50" as="geometry" />
        </mxCell>
        <mxCell id="-BnxETSJDraIW2WkJ2EH-33" style="edgeStyle=none;rounded=0;orthogonalLoop=1;jettySize=auto;html=1;exitX=0.5;exitY=1;exitDx=0;exitDy=0;entryX=0.5;entryY=0;entryDx=0;entryDy=0;fontSize=16;" edge="1" parent="-BnxETSJDraIW2WkJ2EH-1" source="-BnxETSJDraIW2WkJ2EH-8" target="-BnxETSJDraIW2WkJ2EH-2">
          <mxGeometry relative="1" as="geometry" />
        </mxCell>
        <mxCell id="-BnxETSJDraIW2WkJ2EH-8" value="站点的集合" style="ellipse;whiteSpace=wrap;html=1;fontSize=16;strokeWidth=2;" vertex="1" parent="-BnxETSJDraIW2WkJ2EH-1">
          <mxGeometry x="280" y="40" width="90" height="50" as="geometry" />
        </mxCell>
        <mxCell id="-BnxETSJDraIW2WkJ2EH-34" style="edgeStyle=none;rounded=0;orthogonalLoop=1;jettySize=auto;html=1;exitX=0.5;exitY=1;exitDx=0;exitDy=0;fontSize=16;" edge="1" parent="-BnxETSJDraIW2WkJ2EH-1" source="-BnxETSJDraIW2WkJ2EH-9">
          <mxGeometry relative="1" as="geometry">
            <mxPoint x="320" y="170" as="targetPoint" />
          </mxGeometry>
        </mxCell>
        <mxCell id="-BnxETSJDraIW2WkJ2EH-9" value="关联度" style="ellipse;whiteSpace=wrap;html=1;fontSize=16;strokeWidth=2;" vertex="1" parent="-BnxETSJDraIW2WkJ2EH-1">
          <mxGeometry x="430" y="40" width="90" height="50" as="geometry" />
        </mxCell>
        <mxCell id="-BnxETSJDraIW2WkJ2EH-35" style="edgeStyle=none;rounded=0;orthogonalLoop=1;jettySize=auto;html=1;exitX=0.5;exitY=1;exitDx=0;exitDy=0;entryX=0.5;entryY=0;entryDx=0;entryDy=0;fontSize=16;" edge="1" parent="-BnxETSJDraIW2WkJ2EH-1" source="-BnxETSJDraIW2WkJ2EH-10" target="-BnxETSJDraIW2WkJ2EH-3">
          <mxGeometry relative="1" as="geometry" />
        </mxCell>
        <mxCell id="-BnxETSJDraIW2WkJ2EH-10" value="日期" style="ellipse;whiteSpace=wrap;html=1;fontSize=16;strokeWidth=2;" vertex="1" parent="-BnxETSJDraIW2WkJ2EH-1">
          <mxGeometry x="570" y="40" width="90" height="50" as="geometry" />
        </mxCell>
        <mxCell id="-BnxETSJDraIW2WkJ2EH-36" style="edgeStyle=none;rounded=0;orthogonalLoop=1;jettySize=auto;html=1;exitX=0.5;exitY=1;exitDx=0;exitDy=0;entryX=0.5;entryY=0;entryDx=0;entryDy=0;fontSize=16;" edge="1" parent="-BnxETSJDraIW2WkJ2EH-1" source="-BnxETSJDraIW2WkJ2EH-11" target="-BnxETSJDraIW2WkJ2EH-3">
          <mxGeometry relative="1" as="geometry" />
        </mxCell>
        <mxCell id="-BnxETSJDraIW2WkJ2EH-11" value="访问过的&lt;br&gt;时段数量" style="ellipse;whiteSpace=wrap;html=1;fontSize=16;strokeWidth=2;" vertex="1" parent="-BnxETSJDraIW2WkJ2EH-1">
          <mxGeometry x="680" y="40" width="90" height="50" as="geometry" />
        </mxCell>
        <mxCell id="-BnxETSJDraIW2WkJ2EH-37" style="edgeStyle=none;rounded=0;orthogonalLoop=1;jettySize=auto;html=1;exitX=0.5;exitY=1;exitDx=0;exitDy=0;entryX=0.5;entryY=0;entryDx=0;entryDy=0;fontSize=16;" edge="1" parent="-BnxETSJDraIW2WkJ2EH-1" source="-BnxETSJDraIW2WkJ2EH-12" target="-BnxETSJDraIW2WkJ2EH-3">
          <mxGeometry relative="1" as="geometry" />
        </mxCell>
        <mxCell id="-BnxETSJDraIW2WkJ2EH-12" value="登陆过的&lt;br&gt;IP数量" style="ellipse;whiteSpace=wrap;html=1;fontSize=16;strokeWidth=2;" vertex="1" parent="-BnxETSJDraIW2WkJ2EH-1">
          <mxGeometry x="790" y="40" width="90" height="50" as="geometry" />
        </mxCell>
        <mxCell id="-BnxETSJDraIW2WkJ2EH-38" style="edgeStyle=none;rounded=0;orthogonalLoop=1;jettySize=auto;html=1;exitX=0.5;exitY=1;exitDx=0;exitDy=0;entryX=0.5;entryY=0;entryDx=0;entryDy=0;fontSize=16;" edge="1" parent="-BnxETSJDraIW2WkJ2EH-1" source="-BnxETSJDraIW2WkJ2EH-13" target="-BnxETSJDraIW2WkJ2EH-3">
          <mxGeometry relative="1" as="geometry" />
        </mxCell>
        <mxCell id="-BnxETSJDraIW2WkJ2EH-13" value="访问的&lt;br&gt;站点数量" style="ellipse;whiteSpace=wrap;html=1;fontSize=16;strokeWidth=2;" vertex="1" parent="-BnxETSJDraIW2WkJ2EH-1">
          <mxGeometry x="900" y="40" width="90" height="50" as="geometry" />
        </mxCell>
        <mxCell id="-BnxETSJDraIW2WkJ2EH-39" style="edgeStyle=none;rounded=0;orthogonalLoop=1;jettySize=auto;html=1;exitX=0.5;exitY=1;exitDx=0;exitDy=0;entryX=0.5;entryY=0;entryDx=0;entryDy=0;fontSize=16;" edge="1" parent="-BnxETSJDraIW2WkJ2EH-1" source="-BnxETSJDraIW2WkJ2EH-14" target="-BnxETSJDraIW2WkJ2EH-3">
          <mxGeometry relative="1" as="geometry" />
        </mxCell>
        <mxCell id="-BnxETSJDraIW2WkJ2EH-14" value="访问总次数" style="ellipse;whiteSpace=wrap;html=1;fontSize=16;strokeWidth=2;" vertex="1" parent="-BnxETSJDraIW2WkJ2EH-1">
          <mxGeometry x="1010" y="40" width="90" height="50" as="geometry" />
        </mxCell>
        <mxCell id="-BnxETSJDraIW2WkJ2EH-40" style="edgeStyle=none;rounded=0;orthogonalLoop=1;jettySize=auto;html=1;exitX=0.5;exitY=1;exitDx=0;exitDy=0;entryX=0.5;entryY=0;entryDx=0;entryDy=0;fontSize=16;" edge="1" parent="-BnxETSJDraIW2WkJ2EH-1" source="-BnxETSJDraIW2WkJ2EH-15" target="-BnxETSJDraIW2WkJ2EH-4">
          <mxGeometry relative="1" as="geometry" />
        </mxCell>
        <mxCell id="-BnxETSJDraIW2WkJ2EH-15" value="日期" style="ellipse;whiteSpace=wrap;html=1;fontSize=16;strokeWidth=2;" vertex="1" parent="-BnxETSJDraIW2WkJ2EH-1">
          <mxGeometry x="1185" y="40" width="90" height="50" as="geometry" />
        </mxCell>
        <mxCell id="-BnxETSJDraIW2WkJ2EH-41" style="edgeStyle=none;rounded=0;orthogonalLoop=1;jettySize=auto;html=1;exitX=0.5;exitY=1;exitDx=0;exitDy=0;entryX=0.5;entryY=0;entryDx=0;entryDy=0;fontSize=16;" edge="1" parent="-BnxETSJDraIW2WkJ2EH-1" source="-BnxETSJDraIW2WkJ2EH-16" target="-BnxETSJDraIW2WkJ2EH-4">
          <mxGeometry relative="1" as="geometry" />
        </mxCell>
        <mxCell id="-BnxETSJDraIW2WkJ2EH-16" value="用户ID" style="ellipse;whiteSpace=wrap;html=1;fontSize=16;strokeWidth=2;" vertex="1" parent="-BnxETSJDraIW2WkJ2EH-1">
          <mxGeometry x="1295" y="40" width="90" height="50" as="geometry" />
        </mxCell>
        <mxCell id="-BnxETSJDraIW2WkJ2EH-42" style="edgeStyle=none;rounded=0;orthogonalLoop=1;jettySize=auto;html=1;exitX=0.5;exitY=1;exitDx=0;exitDy=0;entryX=0.5;entryY=0;entryDx=0;entryDy=0;fontSize=16;" edge="1" parent="-BnxETSJDraIW2WkJ2EH-1" source="-BnxETSJDraIW2WkJ2EH-17" target="-BnxETSJDraIW2WkJ2EH-4">
          <mxGeometry relative="1" as="geometry" />
        </mxCell>
        <mxCell id="-BnxETSJDraIW2WkJ2EH-17" value="异常访问&lt;br&gt;开始时间" style="ellipse;whiteSpace=wrap;html=1;fontSize=16;strokeWidth=2;" vertex="1" parent="-BnxETSJDraIW2WkJ2EH-1">
          <mxGeometry x="1405" y="40" width="90" height="50" as="geometry" />
        </mxCell>
        <mxCell id="-BnxETSJDraIW2WkJ2EH-43" style="edgeStyle=none;rounded=0;orthogonalLoop=1;jettySize=auto;html=1;exitX=0;exitY=0.5;exitDx=0;exitDy=0;entryX=1;entryY=0.5;entryDx=0;entryDy=0;fontSize=16;" edge="1" parent="-BnxETSJDraIW2WkJ2EH-1" source="-BnxETSJDraIW2WkJ2EH-18" target="-BnxETSJDraIW2WkJ2EH-4">
          <mxGeometry relative="1" as="geometry" />
        </mxCell>
        <mxCell id="-BnxETSJDraIW2WkJ2EH-18" value="异常访问&lt;br&gt;结束时间" style="ellipse;whiteSpace=wrap;html=1;fontSize=16;strokeWidth=2;" vertex="1" parent="-BnxETSJDraIW2WkJ2EH-1">
          <mxGeometry x="1480" y="90" width="90" height="50" as="geometry" />
        </mxCell>
        <mxCell id="-BnxETSJDraIW2WkJ2EH-44" style="edgeStyle=none;rounded=0;orthogonalLoop=1;jettySize=auto;html=1;exitX=0;exitY=0.5;exitDx=0;exitDy=0;fontSize=16;" edge="1" parent="-BnxETSJDraIW2WkJ2EH-1" source="-BnxETSJDraIW2WkJ2EH-19">
          <mxGeometry relative="1" as="geometry">
            <mxPoint x="1400" y="200" as="targetPoint" />
          </mxGeometry>
        </mxCell>
        <mxCell id="-BnxETSJDraIW2WkJ2EH-19" value="异常访问&lt;br&gt;类型" style="ellipse;whiteSpace=wrap;html=1;fontSize=16;strokeWidth=2;" vertex="1" parent="-BnxETSJDraIW2WkJ2EH-1">
          <mxGeometry x="1480" y="175" width="90" height="50" as="geometry" />
        </mxCell>
        <mxCell id="-BnxETSJDraIW2WkJ2EH-45" style="edgeStyle=none;rounded=0;orthogonalLoop=1;jettySize=auto;html=1;exitX=0;exitY=0.5;exitDx=0;exitDy=0;entryX=1;entryY=0.5;entryDx=0;entryDy=0;fontSize=16;" edge="1" parent="-BnxETSJDraIW2WkJ2EH-1" source="-BnxETSJDraIW2WkJ2EH-20" target="-BnxETSJDraIW2WkJ2EH-4">
          <mxGeometry relative="1" as="geometry" />
        </mxCell>
        <mxCell id="-BnxETSJDraIW2WkJ2EH-20" value="异常访问&lt;br&gt;次数" style="ellipse;whiteSpace=wrap;html=1;fontSize=16;strokeWidth=2;" vertex="1" parent="-BnxETSJDraIW2WkJ2EH-1">
          <mxGeometry x="1480" y="260" width="90" height="50" as="geometry" />
        </mxCell>
        <mxCell id="-BnxETSJDraIW2WkJ2EH-46" style="edgeStyle=none;rounded=0;orthogonalLoop=1;jettySize=auto;html=1;exitX=0.5;exitY=0;exitDx=0;exitDy=0;entryX=0.5;entryY=1;entryDx=0;entryDy=0;fontSize=16;" edge="1" parent="-BnxETSJDraIW2WkJ2EH-1" source="-BnxETSJDraIW2WkJ2EH-21" target="-BnxETSJDraIW2WkJ2EH-5">
          <mxGeometry relative="1" as="geometry" />
        </mxCell>
        <mxCell id="-BnxETSJDraIW2WkJ2EH-21" value="&lt;font style=&quot;font-size: 16px&quot;&gt;日志产生&lt;br&gt;时间&lt;/font&gt;&lt;span style=&quot;font-size: medium&quot;&gt;&lt;/span&gt;" style="ellipse;whiteSpace=wrap;html=1;fontSize=16;strokeWidth=2;" vertex="1" parent="-BnxETSJDraIW2WkJ2EH-1">
          <mxGeometry x="305" y="610" width="90" height="50" as="geometry" />
        </mxCell>
        <mxCell id="-BnxETSJDraIW2WkJ2EH-47" style="edgeStyle=none;rounded=0;orthogonalLoop=1;jettySize=auto;html=1;exitX=0.5;exitY=0;exitDx=0;exitDy=0;fontSize=16;" edge="1" parent="-BnxETSJDraIW2WkJ2EH-1" source="-BnxETSJDraIW2WkJ2EH-22">
          <mxGeometry relative="1" as="geometry">
            <mxPoint x="570" y="550" as="targetPoint" />
          </mxGeometry>
        </mxCell>
        <mxCell id="-BnxETSJDraIW2WkJ2EH-22" value="访问IP&lt;br&gt;地址" style="ellipse;whiteSpace=wrap;html=1;fontSize=16;strokeWidth=2;" vertex="1" parent="-BnxETSJDraIW2WkJ2EH-1">
          <mxGeometry x="415" y="610" width="90" height="50" as="geometry" />
        </mxCell>
        <mxCell id="-BnxETSJDraIW2WkJ2EH-48" style="edgeStyle=none;rounded=0;orthogonalLoop=1;jettySize=auto;html=1;exitX=0.5;exitY=0;exitDx=0;exitDy=0;fontSize=16;" edge="1" parent="-BnxETSJDraIW2WkJ2EH-1" source="-BnxETSJDraIW2WkJ2EH-23">
          <mxGeometry relative="1" as="geometry">
            <mxPoint x="570" y="550" as="targetPoint" />
          </mxGeometry>
        </mxCell>
        <mxCell id="-BnxETSJDraIW2WkJ2EH-23" value="用户ID" style="ellipse;whiteSpace=wrap;html=1;fontSize=16;strokeWidth=2;" vertex="1" parent="-BnxETSJDraIW2WkJ2EH-1">
          <mxGeometry x="525" y="610" width="90" height="50" as="geometry" />
        </mxCell>
        <mxCell id="-BnxETSJDraIW2WkJ2EH-49" style="edgeStyle=none;rounded=0;orthogonalLoop=1;jettySize=auto;html=1;exitX=0.5;exitY=0;exitDx=0;exitDy=0;fontSize=16;" edge="1" parent="-BnxETSJDraIW2WkJ2EH-1" source="-BnxETSJDraIW2WkJ2EH-24">
          <mxGeometry relative="1" as="geometry">
            <mxPoint x="570" y="550" as="targetPoint" />
          </mxGeometry>
        </mxCell>
        <mxCell id="-BnxETSJDraIW2WkJ2EH-24" value="请求地址" style="ellipse;whiteSpace=wrap;html=1;fontSize=16;strokeWidth=2;" vertex="1" parent="-BnxETSJDraIW2WkJ2EH-1">
          <mxGeometry x="635" y="610" width="90" height="50" as="geometry" />
        </mxCell>
        <mxCell id="-BnxETSJDraIW2WkJ2EH-50" style="edgeStyle=none;rounded=0;orthogonalLoop=1;jettySize=auto;html=1;exitX=0.5;exitY=0;exitDx=0;exitDy=0;entryX=0.5;entryY=1;entryDx=0;entryDy=0;fontSize=16;" edge="1" parent="-BnxETSJDraIW2WkJ2EH-1" source="-BnxETSJDraIW2WkJ2EH-25" target="-BnxETSJDraIW2WkJ2EH-5">
          <mxGeometry relative="1" as="geometry" />
        </mxCell>
        <mxCell id="-BnxETSJDraIW2WkJ2EH-25" value="请求参数" style="ellipse;whiteSpace=wrap;html=1;fontSize=16;strokeWidth=2;" vertex="1" parent="-BnxETSJDraIW2WkJ2EH-1">
          <mxGeometry x="745" y="610" width="90" height="50" as="geometry" />
        </mxCell>
        <mxCell id="-BnxETSJDraIW2WkJ2EH-57" style="edgeStyle=none;rounded=0;orthogonalLoop=1;jettySize=auto;html=1;exitX=0.5;exitY=0;exitDx=0;exitDy=0;entryX=0.5;entryY=1;entryDx=0;entryDy=0;fontSize=16;" edge="1" parent="-BnxETSJDraIW2WkJ2EH-1" source="-BnxETSJDraIW2WkJ2EH-26" target="-BnxETSJDraIW2WkJ2EH-6">
          <mxGeometry relative="1" as="geometry" />
        </mxCell>
        <mxCell id="-BnxETSJDraIW2WkJ2EH-26" value="&lt;font style=&quot;font-size: 16px&quot;&gt;日志产生&lt;br&gt;时间&lt;/font&gt;&lt;span style=&quot;font-size: medium&quot;&gt;&lt;/span&gt;" style="ellipse;whiteSpace=wrap;html=1;fontSize=16;strokeWidth=2;" vertex="1" parent="-BnxETSJDraIW2WkJ2EH-1">
          <mxGeometry x="875" y="610" width="90" height="50" as="geometry" />
        </mxCell>
        <mxCell id="-BnxETSJDraIW2WkJ2EH-58" style="edgeStyle=none;rounded=0;orthogonalLoop=1;jettySize=auto;html=1;exitX=0.5;exitY=0;exitDx=0;exitDy=0;entryX=0.5;entryY=1;entryDx=0;entryDy=0;fontSize=16;" edge="1" parent="-BnxETSJDraIW2WkJ2EH-1" source="-BnxETSJDraIW2WkJ2EH-27" target="-BnxETSJDraIW2WkJ2EH-6">
          <mxGeometry relative="1" as="geometry" />
        </mxCell>
        <mxCell id="-BnxETSJDraIW2WkJ2EH-27" value="访问IP&lt;br&gt;地址" style="ellipse;whiteSpace=wrap;html=1;fontSize=16;strokeWidth=2;" vertex="1" parent="-BnxETSJDraIW2WkJ2EH-1">
          <mxGeometry x="985" y="610" width="90" height="50" as="geometry" />
        </mxCell>
        <mxCell id="-BnxETSJDraIW2WkJ2EH-59" style="edgeStyle=none;rounded=0;orthogonalLoop=1;jettySize=auto;html=1;exitX=0.5;exitY=0;exitDx=0;exitDy=0;fontSize=16;" edge="1" parent="-BnxETSJDraIW2WkJ2EH-1" source="-BnxETSJDraIW2WkJ2EH-28">
          <mxGeometry relative="1" as="geometry">
            <mxPoint x="1200" y="550" as="targetPoint" />
          </mxGeometry>
        </mxCell>
        <mxCell id="-BnxETSJDraIW2WkJ2EH-28" value="日志ID" style="ellipse;whiteSpace=wrap;html=1;fontSize=16;strokeWidth=2;" vertex="1" parent="-BnxETSJDraIW2WkJ2EH-1">
          <mxGeometry x="1095" y="610" width="90" height="50" as="geometry" />
        </mxCell>
        <mxCell id="-BnxETSJDraIW2WkJ2EH-60" style="edgeStyle=none;rounded=0;orthogonalLoop=1;jettySize=auto;html=1;exitX=0.5;exitY=0;exitDx=0;exitDy=0;fontSize=16;" edge="1" parent="-BnxETSJDraIW2WkJ2EH-1" source="-BnxETSJDraIW2WkJ2EH-29">
          <mxGeometry relative="1" as="geometry">
            <mxPoint x="1190" y="550" as="targetPoint" />
          </mxGeometry>
        </mxCell>
        <mxCell id="-BnxETSJDraIW2WkJ2EH-29" value="服务名称" style="ellipse;whiteSpace=wrap;html=1;fontSize=16;strokeWidth=2;" vertex="1" parent="-BnxETSJDraIW2WkJ2EH-1">
          <mxGeometry x="1205" y="610" width="90" height="50" as="geometry" />
        </mxCell>
        <mxCell id="-BnxETSJDraIW2WkJ2EH-61" style="edgeStyle=none;rounded=0;orthogonalLoop=1;jettySize=auto;html=1;exitX=0.5;exitY=0;exitDx=0;exitDy=0;entryX=0.5;entryY=1;entryDx=0;entryDy=0;fontSize=16;" edge="1" parent="-BnxETSJDraIW2WkJ2EH-1" source="-BnxETSJDraIW2WkJ2EH-30" target="-BnxETSJDraIW2WkJ2EH-6">
          <mxGeometry relative="1" as="geometry" />
        </mxCell>
        <mxCell id="-BnxETSJDraIW2WkJ2EH-30" value="调用者名称" style="ellipse;whiteSpace=wrap;html=1;fontSize=16;strokeWidth=2;" vertex="1" parent="-BnxETSJDraIW2WkJ2EH-1">
          <mxGeometry x="1315" y="610" width="90" height="50" as="geometry" />
        </mxCell>
        <mxCell id="-BnxETSJDraIW2WkJ2EH-62" style="edgeStyle=none;rounded=0;orthogonalLoop=1;jettySize=auto;html=1;exitX=0.5;exitY=0;exitDx=0;exitDy=0;entryX=0.5;entryY=1;entryDx=0;entryDy=0;fontSize=16;" edge="1" parent="-BnxETSJDraIW2WkJ2EH-1" source="-BnxETSJDraIW2WkJ2EH-31" target="-BnxETSJDraIW2WkJ2EH-6">
          <mxGeometry relative="1" as="geometry" />
        </mxCell>
        <mxCell id="-BnxETSJDraIW2WkJ2EH-31" value="日志等级" style="ellipse;whiteSpace=wrap;html=1;fontSize=16;strokeWidth=2;" vertex="1" parent="-BnxETSJDraIW2WkJ2EH-1">
          <mxGeometry x="1430" y="610" width="90" height="50" as="geometry" />
        </mxCell>
        <mxCell id="-BnxETSJDraIW2WkJ2EH-56" style="edgeStyle=none;rounded=0;orthogonalLoop=1;jettySize=auto;html=1;exitX=1;exitY=0.5;exitDx=0;exitDy=0;fontSize=16;" edge="1" parent="-BnxETSJDraIW2WkJ2EH-1" source="-BnxETSJDraIW2WkJ2EH-51">
          <mxGeometry relative="1" as="geometry">
            <mxPoint x="1140" y="520" as="targetPoint" />
          </mxGeometry>
        </mxCell>
        <mxCell id="-BnxETSJDraIW2WkJ2EH-51" value="返回状态码" style="ellipse;whiteSpace=wrap;html=1;fontSize=16;strokeWidth=2;" vertex="1" parent="-BnxETSJDraIW2WkJ2EH-1">
          <mxGeometry x="875" y="535" width="90" height="50" as="geometry" />
        </mxCell>
        <mxCell id="-BnxETSJDraIW2WkJ2EH-55" style="edgeStyle=none;rounded=0;orthogonalLoop=1;jettySize=auto;html=1;exitX=1;exitY=0.5;exitDx=0;exitDy=0;entryX=0;entryY=0.5;entryDx=0;entryDy=0;fontSize=16;" edge="1" parent="-BnxETSJDraIW2WkJ2EH-1" source="-BnxETSJDraIW2WkJ2EH-52" target="-BnxETSJDraIW2WkJ2EH-6">
          <mxGeometry relative="1" as="geometry" />
        </mxCell>
        <mxCell id="-BnxETSJDraIW2WkJ2EH-52" value="&lt;font style=&quot;font-size: 16px&quot;&gt;调用方法名&lt;/font&gt;&lt;span style=&quot;font-size: medium&quot;&gt;&lt;/span&gt;" style="ellipse;whiteSpace=wrap;html=1;fontSize=16;strokeWidth=2;" vertex="1" parent="-BnxETSJDraIW2WkJ2EH-1">
          <mxGeometry x="875" y="460" width="90" height="50" as="geometry" />
        </mxCell>
        <mxCell id="-BnxETSJDraIW2WkJ2EH-63" style="edgeStyle=none;rounded=0;orthogonalLoop=1;jettySize=auto;html=1;exitX=0;exitY=0.5;exitDx=0;exitDy=0;entryX=1;entryY=0.5;entryDx=0;entryDy=0;fontSize=16;" edge="1" parent="-BnxETSJDraIW2WkJ2EH-1" source="-BnxETSJDraIW2WkJ2EH-53" target="-BnxETSJDraIW2WkJ2EH-6">
          <mxGeometry relative="1" as="geometry" />
        </mxCell>
        <mxCell id="-BnxETSJDraIW2WkJ2EH-53" value="&lt;font style=&quot;font-size: 16px&quot;&gt;请求参数&lt;/font&gt;&lt;span style=&quot;font-size: medium&quot;&gt;&lt;/span&gt;" style="ellipse;whiteSpace=wrap;html=1;fontSize=16;strokeWidth=2;" vertex="1" parent="-BnxETSJDraIW2WkJ2EH-1">
          <mxGeometry x="1430" y="535" width="90" height="50" as="geometry" />
        </mxCell>
        <mxCell id="-BnxETSJDraIW2WkJ2EH-64" style="edgeStyle=none;rounded=0;orthogonalLoop=1;jettySize=auto;html=1;exitX=0;exitY=0.5;exitDx=0;exitDy=0;entryX=1;entryY=0.5;entryDx=0;entryDy=0;fontSize=16;" edge="1" parent="-BnxETSJDraIW2WkJ2EH-1" source="-BnxETSJDraIW2WkJ2EH-54" target="-BnxETSJDraIW2WkJ2EH-6">
          <mxGeometry relative="1" as="geometry" />
        </mxCell>
        <mxCell id="-BnxETSJDraIW2WkJ2EH-54" value="&lt;font style=&quot;font-size: 16px&quot;&gt;函数返回值&lt;/font&gt;&lt;span style=&quot;font-size: medium&quot;&gt;&lt;/span&gt;" style="ellipse;whiteSpace=wrap;html=1;fontSize=16;strokeWidth=2;" vertex="1" parent="-BnxETSJDraIW2WkJ2EH-1">
          <mxGeometry x="1430" y="460" width="90" height="50" as="geometry" />
        </mxCell>
        <mxCell id="-BnxETSJDraIW2WkJ2EH-67" value="n" style="edgeStyle=none;rounded=0;orthogonalLoop=1;jettySize=auto;html=1;exitX=0.5;exitY=1;exitDx=0;exitDy=0;entryX=0.5;entryY=0;entryDx=0;entryDy=0;fontSize=16;" edge="1" parent="-BnxETSJDraIW2WkJ2EH-1" source="-BnxETSJDraIW2WkJ2EH-65" target="-BnxETSJDraIW2WkJ2EH-5">
          <mxGeometry relative="1" as="geometry" />
        </mxCell>
        <mxCell id="-BnxETSJDraIW2WkJ2EH-65" value="站点间关联关系&lt;br&gt;数据挖掘" style="rhombus;whiteSpace=wrap;html=1;fontSize=16;strokeWidth=2;" vertex="1" parent="-BnxETSJDraIW2WkJ2EH-1">
          <mxGeometry x="350" y="290" width="170" height="80" as="geometry" />
        </mxCell>
        <mxCell id="-BnxETSJDraIW2WkJ2EH-71" value="n" style="edgeStyle=none;rounded=0;orthogonalLoop=1;jettySize=auto;html=1;exitX=0.5;exitY=1;exitDx=0;exitDy=0;entryX=0.5;entryY=0;entryDx=0;entryDy=0;fontSize=16;" edge="1" parent="-BnxETSJDraIW2WkJ2EH-1" source="-BnxETSJDraIW2WkJ2EH-68" target="-BnxETSJDraIW2WkJ2EH-5">
          <mxGeometry relative="1" as="geometry" />
        </mxCell>
        <mxCell id="-BnxETSJDraIW2WkJ2EH-68" value="用户访问行为&lt;br&gt;数据挖掘" style="rhombus;whiteSpace=wrap;html=1;fontSize=16;strokeWidth=2;" vertex="1" parent="-BnxETSJDraIW2WkJ2EH-1">
          <mxGeometry x="605" y="290" width="170" height="80" as="geometry" />
        </mxCell>
        <mxCell id="-BnxETSJDraIW2WkJ2EH-74" value="m" style="edgeStyle=none;rounded=0;orthogonalLoop=1;jettySize=auto;html=1;exitX=0.5;exitY=1;exitDx=0;exitDy=0;fontSize=16;" edge="1" parent="-BnxETSJDraIW2WkJ2EH-1" source="-BnxETSJDraIW2WkJ2EH-72">
          <mxGeometry relative="1" as="geometry">
            <mxPoint x="570" y="490" as="targetPoint" />
          </mxGeometry>
        </mxCell>
        <mxCell id="-BnxETSJDraIW2WkJ2EH-72" value="异常访问&lt;br&gt;监控" style="rhombus;whiteSpace=wrap;html=1;fontSize=16;strokeWidth=2;" vertex="1" parent="-BnxETSJDraIW2WkJ2EH-1">
          <mxGeometry x="945" y="290" width="170" height="80" as="geometry" />
        </mxCell>
      </root>
    </mxGraphModel>
  </diagram>
</mxfile>
